<svg id="Layer_1" data-name="Layer 1" xmlns="http://www.w3.org/2000/svg" width="375" height="375" viewBox="0 0 375 375"><defs><style>.cls-1{fill:#0d29ff;}.cls-2{fill:#ffd101;}.cls-3{fill:#ffd106;}.cls-4{font-size:11.97px;font-family:MyriadPro-Regular, Myriad Pro;}</style></defs><title>cjs-sunbreak-logo</title><circle class="cls-1" cx="187.5" cy="187.5" r="187.5"/><path class="cls-2" d="M82.67,116.36l5.8,3.45c5.59,3.31,5.86,8.08,2.51,13.72l-.06.1c-3.35,5.65-7.61,7.72-13.25,4.37L55.32,124.73c-5.38-3.19-5.86-8.08-2.51-13.72l.07-.11c3.35-5.64,7.87-7.56,13.24-4.37l4.9,2.91a1.83,1.83,0,0,1,.71,2.8l-.88,1.49a1.85,1.85,0,0,1-2.8.71l-3.94-2.34c-3.24-1.92-5.24-1.24-6.85,1.48s-1.26,4.79,2,6.72l20.43,12.13c3.25,1.93,5.24,1.24,6.85-1.47s1.26-4.79-2-6.72l-4.85-2.88a1.86,1.86,0,0,1-.71-2.8l.89-1.49A1.82,1.82,0,0,1,82.67,116.36Z"/><path class="cls-2" d="M115,103.92l-1.27,1.27a2.07,2.07,0,0,1-2.89.26l-6.95-4.87-6.62,6.6,4.85,7a2,2,0,0,1-.22,2.84l-1.09,1.09a1.68,1.68,0,0,1-2.85-.31L75.78,84.49A2.11,2.11,0,0,1,76,81.6l2.46-2.44a2.1,2.1,0,0,1,2.89-.26l33.32,22.18A1.65,1.65,0,0,1,115,103.92ZM99.83,97.73,82.38,85.59l12.11,17.48Z"/><path class="cls-2" d="M123.37,65.19,122,66a1.83,1.83,0,0,1-2.8-.72L117.24,62c-1.76-3-3.9-3.31-6.45-1.8s-3.31,3.53-1.55,6.52l1.51,2.55c1.32,2.24,2.59,2.57,5.44,2.54l6.43-.2c4.27-.07,7.36.55,9.46,4.12l3,5.17c3.3,5.6,1.34,9.7-4.31,13l-.11.07c-5.65,3.33-10.16,3.11-13.49-2.54l-2.7-4.58a1.83,1.83,0,0,1,.72-2.8l1.39-.81a1.82,1.82,0,0,1,2.79.72l2.2,3.73c1.73,2.93,4,3.41,6.57,1.87s3.27-3.72,1.54-6.65L128,80c-1.32-2.24-2.69-2.73-5.6-2.67l-6.37.17c-4.57,0-7.33-.49-9.43-4.07l-2.77-4.69c-3.17-5.38-.79-9.87,4.33-12.89l.1-.06c5.12-3,10.2-2.93,13.38,2.46l2.45,4.15A1.83,1.83,0,0,1,123.37,65.19Z"/><path class="cls-2" d="M161,64.87,163,71.33c1.87,6.22-1.15,9.91-7.43,11.8l-.12,0c-6.29,1.89-10.83.54-12.72-5.74l-7.48-24.89c-1.8-6,1.15-9.91,7.43-11.8l.12,0c6.28-1.89,10.91-.25,12.71,5.74l1.65,5.45a1.84,1.84,0,0,1-1.37,2.55l-1.66.5a1.87,1.87,0,0,1-2.55-1.37l-1.32-4.39c-1.08-3.61-3-4.45-6-3.54s-4.17,2.67-3.08,6.29L148,74.68c1.09,3.62,3,4.46,6,3.55s4.17-2.68,3.08-6.29l-1.62-5.39A1.86,1.86,0,0,1,156.84,64l1.65-.5A1.84,1.84,0,0,1,161,64.87Z"/><path class="cls-2" d="M193.27,77.61l-1.79.07a2.08,2.08,0,0,1-2.31-1.76l-1.82-8.29L178,68l-1.15,8.41a2,2,0,0,1-2.09,1.94l-1.55.06c-1.36.06-2.07-.72-1.88-2.15l6.21-39.52a2.1,2.1,0,0,1,2.15-2l3.46-.14a2.1,2.1,0,0,1,2.3,1.77L195,75.31A1.65,1.65,0,0,1,193.27,77.61Zm-7-14.83L181.67,42l-2.93,21Z"/><path class="cls-2" d="M231.19,49.82,225.64,74.2c-1.42,6.22-5.9,8-12.29,6.6l-8.45-1.93a1.82,1.82,0,0,1-1.54-2.44l8.71-38.26a1.83,1.83,0,0,1,2.44-1.54L223,38.56C229.36,40,232.6,43.61,231.19,49.82Zm-9.61-6.31-4.53-1L209.72,74.7l4.53,1c3.13.72,5.11-.17,6-3.91l5.06-22.2C226.12,45.87,224.72,44.22,221.58,43.51Z"/><path class="cls-2" d="M233.25,87.37l-1.59-.68A1.84,1.84,0,0,1,230.59,84L246,48a1.83,1.83,0,0,1,2.68-1.08l1.6.69a1.86,1.86,0,0,1,1.07,2.68L235.93,86.29A1.85,1.85,0,0,1,233.25,87.37Z"/><path class="cls-2" d="M260.19,103.42l-1.48-1a2.06,2.06,0,0,1-.79-2.79l3.5-7.73-7.7-5.29-5.95,6a2,2,0,0,1-2.84.31l-1.27-.88a1.67,1.67,0,0,1-.22-2.85l28.63-27.93A2.09,2.09,0,0,1,275,61l2.86,2a2.11,2.11,0,0,1,.79,2.79l-15.67,36.82A1.66,1.66,0,0,1,260.19,103.42Zm3.29-16.06L272.2,68,257.25,83.09Z"/><path class="cls-2" d="M278.91,107.48l22.81-20.81a1.85,1.85,0,0,1,2.88.13l1.17,1.28a1.82,1.82,0,0,1-.13,2.88l-23.73,21.65c-4.84,4.42-9.51,3.15-13.93-1.69l-.21-.23a1.86,1.86,0,0,1,.13-2.89l.87-.79a1.85,1.85,0,0,1,2.88.13l.13.14C274,109.7,276.07,110.06,278.91,107.48Z"/><path class="cls-2" d="M313,125l-.83-1.37a1.83,1.83,0,0,1,.68-2.81l3.28-2c3-1.8,3.26-3.94,1.72-6.47s-3.58-3.26-6.54-1.46l-2.54,1.54c-2.22,1.35-2.53,2.63-2.46,5.48l.28,6.42c.13,4.26-.45,7.37-4,9.52L297.48,137c-5.55,3.37-9.68,1.46-13.09-4.14l-.06-.11c-3.41-5.6-3.25-10.11,2.35-13.52l4.55-2.76a1.83,1.83,0,0,1,2.81.68l.83,1.38a1.82,1.82,0,0,1-.68,2.8l-3.7,2.25c-2.91,1.77-3.37,4-1.79,6.59s3.76,3.22,6.67,1.45l2.91-1.77c2.22-1.35,2.69-2.72,2.59-5.63l-.25-6.36c-.1-4.58.39-7.34,3.94-9.49l4.65-2.83c5.34-3.25,9.86-.93,13,4.15l.06.1c3.09,5.08,3.06,10.16-2.28,13.41l-4.12,2.51A1.84,1.84,0,0,1,313,125Z"/><g id="sun_and_clouds" data-name="sun and clouds"><path class="cls-3" d="M214,218.73a16.5,16.5,0,0,1,2.5-1.63,16,16,0,0,1,1.73-.58,20.92,20.92,0,0,1,6.05-1.26c1.67-.14,3.36-.21,5-.3,1.34-.07,2.67-.11,4-.16.68,0,1.36,0,2-.09,1.54-.13,3.09-.26,4.63-.43s2.85-.29,4.26-.53c1.24-.21,2.44-.6,3.68-.83a26.72,26.72,0,0,0,6.82-2.17,20.67,20.67,0,0,0,3.65-2.17,18.14,18.14,0,0,0,2.73-2.74,27.07,27.07,0,0,0,3.39-5.25,1.53,1.53,0,0,0,.06-.47c-.88.69-1.66,1.35-2.49,1.95a34.21,34.21,0,0,1-3,2.06c-1.22.69-2.52,1.26-3.8,1.84a7.88,7.88,0,0,1-1.81.61c-1.33.24-2.7.29-4,.59a31.39,31.39,0,0,1-6.34.47c-1.13,0-2.27-.07-3.41-.11-.78,0-1.57,0-2.36-.11-1.26-.12-2.52-.33-3.79-.41s-2.76-.07-4.14,0a21.72,21.72,0,0,0-2.56.16c-1.35.17-2.69.41-4,.63-.7.11-1.4.2-2.1.34-1.35.27-3.63.84-5,1.14Z"/><path class="cls-3" d="M193.66,176.84v-2.31a26.36,26.36,0,0,1,.65-5.73,19.42,19.42,0,0,1,1.36-3.64,27.5,27.5,0,0,1,2.05-3.43c.55-.89,1.07-1.8,1.61-2.69a3.13,3.13,0,0,1,.5-.65,15.85,15.85,0,0,0,2.84-4c.32-.62.75-1.18,1-1.81.4-.88.74-1.79,1.09-2.69s.71-1.89,1.1-2.81,1-2.07,1.44-3.15c.47-1.27.81-2.59,1.17-3.9.32-1.15.61-2.31.86-3.48a29,29,0,0,0,.5-5.18,55.82,55.82,0,0,0-.27-6.47,9,9,0,0,1,.16-1.86,32.6,32.6,0,0,1,2,3.23,25.17,25.17,0,0,1,2.16,5.45c.24,1,.66,1.95.92,2.95a24.29,24.29,0,0,1,.64,3.05,33.69,33.69,0,0,1,.36,4.24,19.27,19.27,0,0,1-1.44,7.6,4.43,4.43,0,0,0-.32.95,42.48,42.48,0,0,1-1.74,4.77,41.59,41.59,0,0,1-2.94,5.71c-.82,1.54-1.7,3-2.48,4.59a46.94,46.94,0,0,0-2.08,4.64,29.37,29.37,0,0,0-.88,3.5,18.37,18.37,0,0,0-.3,4.85,16.76,16.76,0,0,0,.27,2.1Z"/><path class="cls-3" d="M113.18,160.71a29.56,29.56,0,0,1,2.73,3.39,23.43,23.43,0,0,1,2.4,4.54c.37,1,1,1.91,1.41,2.89.56,1.26,1,2.56,1.57,3.83,1.07,2.48,2.14,4.95,3.25,7.41.32.72.65,1.43,1,2.14a8.84,8.84,0,0,1,1.42-1c.8-.48,1.56-1,2.38-1.49a9.77,9.77,0,0,1,2.35-1.08c.26-.07.53-.13.79-.18-.23-.4-.45-.8-.69-1.19-.47-.77-1-1.52-1.44-2.29-.85-1.38-1.69-2.78-2.54-4.16-.46-.76-.93-1.51-1.39-2.26a18.5,18.5,0,0,0-1-1.67c-.72-.92-1.51-1.79-2.27-2.69-.93-1.09-1.82-2.21-2.81-3.25a32.66,32.66,0,0,0-2.54-2.31,17.41,17.41,0,0,0-2.12-1.64,15.58,15.58,0,0,0-2.47-1.19,14.86,14.86,0,0,0-2.78-.6C110.55,158,112.4,159.82,113.18,160.71Z"/><path class="cls-3" d="M266,242.48c-.23-.37-.47-.74-.71-1.1-.72-1.07-1.4-2.17-2.16-3.21a9,9,0,0,0-2.39-2.28c-.54-.35-1.08-.69-1.59-1.07a27.77,27.77,0,0,0-4.64-2.67c-.91-.42-1.89-.68-2.76-1.15a22.41,22.41,0,0,0-5.79-2.08q-3.65-.79-7.32-1.46c-1.72-.31-3.45-.56-5.19-.76s-3.68-.21-5.48-.52a38.32,38.32,0,0,1-6.62-1.36c-.68-.24-1.43-.3-2.08-.58a19.86,19.86,0,0,1-3.06-1.53,15.12,15.12,0,0,1-2.9-2.66,3,3,0,0,1,.67-1.3,28.81,28.81,0,0,1,4.23-2.2,16.71,16.71,0,0,1,3.14-.89l-.87-.47a4,4,0,0,1-1.13-1,21.81,21.81,0,0,1-3.88-7.13,8.54,8.54,0,0,1-.38-2.41,38.39,38.39,0,0,1,.69-9.75c.08-.3.15-.6.23-.9l-1.66.51c-.92-1.64-1.8-3.22-2.68-4.82.14-.15,1.44-1.83,2-2.36,1.13-1.06,2.34-2,3.51-3.07.62-.54,1.24-1.09,1.83-1.67s1.24-1.31,1.86-1.95c1-1,1.94-2,2.88-3,1.27-1.37,2.51-2.78,3.76-4.17a2,2,0,0,0,.21-.28c.71-.93,1.4-1.88,2.13-2.81.52-.65,1.1-1.26,1.63-1.92a9.14,9.14,0,0,0,.94-1.36c1-1.79,1.91-3.61,2.88-5.4a11.94,11.94,0,0,0,1.45-3.48c.24-1.38.52-2.76.74-4.15a18.39,18.39,0,0,0,.32-2.66c.07-2.11.12-4.24.07-6.35,0-1.54-.23-3.07-.39-4.6a9.16,9.16,0,0,0-.76-2.44,3.18,3.18,0,0,0-.11.47,25.63,25.63,0,0,1-1.6,5.56c-.59,1.63-1.34,3.21-1.92,4.85a52,52,0,0,1-3.48,7.21c-.83,1.52-1.81,2.95-2.75,4.39a27.85,27.85,0,0,1-3.22,4.12c-1.06,1.12-2.06,2.31-3.08,3.48-.75.87-1.5,1.74-2.22,2.64a42.64,42.64,0,0,1-3.63,3.61c-.49.47-1,.94-1.49,1.39-.94.86-1.89,1.72-2.85,2.57-.7.62-1.41,1.21-2.12,1.81s-1.3,1.13-2,1.67a.52.52,0,0,1-.47,0c-.58-.29-1.15-.6-1.72-.92-.09,0-.22-.15-.23-.24a20.77,20.77,0,0,1-.27-2.1,18.37,18.37,0,0,1,.31-4.85,27.53,27.53,0,0,1,.87-3.5,50.66,50.66,0,0,1,2.09-4.64c.77-1.56,1.66-3.05,2.48-4.59a46.26,46.26,0,0,0,4.67-10.48,5.31,5.31,0,0,1,.32-1,16.77,16.77,0,0,0,.78-2.26,19,19,0,0,1-1.94-.61c-.53-.19-1.13-.56-1.6-.44s-.67.76-1,1.18A12.08,12.08,0,0,1,204,151.9q-.14.34-.3.69c-.29.63-.71,1.19-1,1.81a15.47,15.47,0,0,1-2.85,4,3.51,3.51,0,0,0-.5.65c-.54.89-1.05,1.8-1.6,2.69a26.34,26.34,0,0,0-2.05,3.43,18.78,18.78,0,0,0-1.37,3.64,26.35,26.35,0,0,0-.64,5.73v2.31c-.56-.18-1.06-.39-1.58-.5-.83-.17-1.68-.3-2.52-.4-.33-.05-.93,0-1-.34a15,15,0,0,1-.19-2.26c0-.73,0-1.47,0-2.21,0-1.27,0-2.54.09-3.81.12-1.46.4-2.92.58-4.38.24-2,.48-4,.68-6.05.15-1.6.33-3.2.34-4.81v-1.69l-1.13-.69c-.28.3-.55.54-.77.83a10,10,0,0,1-6.83,4q-.74,2.46-1.44,4.94c-.44,1.56-.84,3.12-1.23,4.69-.25,1-.47,2-.67,3a17.86,17.86,0,0,0-.53,3.12,40.93,40.93,0,0,0,.2,7.33,16,16,0,0,0-4.7,1.79c-.36-.53-.77-1-1.09-1.59-.48-.84-.9-1.71-1.34-2.57s-.87-1.57-1.21-2.39-.49-1.66-.81-2.46a16.74,16.74,0,0,1-1.25-5.39c-.06-1.1-.1-2.2-.12-3.31s0-2.53,0-3.8.13-2.52.19-3.77c0-.61.07-1.22.08-1.83s0-1,.05-1.58a11.71,11.71,0,0,1-5.52.88,10.06,10.06,0,0,1-1.89-.3c-.05.93-.1,1.86-.14,2.79-.08,1.53-.16,3.06-.25,4.59a33.72,33.72,0,0,0,.1,6c.23,1.83.49,3.66.8,5.49.25,1.44.51,2.88.89,4.28s.9,2.48,1.35,3.72a22.08,22.08,0,0,0,2.25,4.67c.3.46.48,1,.74,1.49s.29.62-.22,1a12.61,12.61,0,0,0-2.79,2.81c-.33.5-.62,1-.93,1.54-.06,0-.11,0-.14,0-1-.81-2.06-1.56-3-2.44a23.38,23.38,0,0,1-1.77-2.18,15.83,15.83,0,0,1-2.74-4.76c-.62-1.76-1.3-3.51-1.78-5.31-.68-2.53-1.26-5.09-1.78-7.66-.56-2.76-1-5.55-1.48-8.32-.23-1.33-.37-2.68-.62-4-.34-1.78-.72-3.56-1.14-5.32-.22-.95-.59-1.85-.83-2.79a12.09,12.09,0,0,0-1.68-3.6,15.12,15.12,0,0,0-1.44-1.67c-.59-.67-1.18-1.34-1.79-2a3.87,3.87,0,0,0-.78-.54c-1.08-.65-2.12-1.36-3.25-1.9-.83-.4-3.79-1.2-3.93-.89l1.69,1.77a16.52,16.52,0,0,1,1.26,1.25,16.25,16.25,0,0,1,1.52,2.17,20.54,20.54,0,0,1,1.64,3.45,25.94,25.94,0,0,1,1.45,6c.18,2.19.57,4.37.84,6.55s.53,4.59.77,6.88a46.78,46.78,0,0,0,1,5.88c.41,1.76.72,3.55,1.16,5.3.36,1.42.94,2.79,1.27,4.21a23.46,23.46,0,0,0,.83,2.78c.4.2.8.42,1.18.66a2.87,2.87,0,0,0,.67.3,9.91,9.91,0,0,1,3.81,2.45,17.66,17.66,0,0,1,3.55,4.43,16.26,16.26,0,0,1,2.21,4.33,43.7,43.7,0,0,1,.86,4.51c.41,2.82.74,5.66,1.1,8.49.08.62.17,1.24.25,1.86s12.2-1,9.77,13.11a35.73,35.73,0,0,1-.73,3.68,3.23,3.23,0,0,1-.78,1.21c-.73.79-1.53,1.53-2.27,2.31a4.79,4.79,0,0,1-2,1.27,23.85,23.85,0,0,1-6.92,1.35c-.45.24-.91.47-1.36.72s-.75.41-1.11.64a8.54,8.54,0,0,1-2.74,1.13c-.71.18-1.41.42-2.13.57s-1.55.22-2.31.36q-2.53.47-5.06,1c-1.55.31-3.09.61-4.63,1s-3.14.79-4.72,1.18c-.82.2-1.67.33-2.48.59-1.44.46-2.89.92-4.28,1.51a23.84,23.84,0,0,0-2.53,1.55c-.41.25-.89.41-1.3.67-.62.39-1.22.81-1.8,1.25s-1.18.89-1.73,1.37c-.8.7-1.59,1.41-2.34,2.16-1,1-2,2-2.94,3.09a19.47,19.47,0,0,0-1.51,2.09c-.35.51-.65,1.06-1,1.58-1.69,2.72-3.07,9.06-3,9.23a5.08,5.08,0,0,0,.47-.57,62.41,62.41,0,0,1,4.83-5.73,17.09,17.09,0,0,1,1.59-1.48c1.42-1.14,2.84-2.27,4.3-3.34a11.38,11.38,0,0,1,3.77-1.87c1.82-.49,3.6-1.14,5.43-1.6,2-.52,4.14-.91,6.21-1.32s4.31-.84,6.47-1.22c1.68-.3,3.38-.55,5.07-.84.88-.16,1.74-.38,2.62-.52,1.93-.32,3.86-.56,5.78-.91a28.16,28.16,0,0,0,3.82-1,10.08,10.08,0,0,0,2.14-1.15c1.27-.8,2.55-1.6,3.75-2.5a14.47,14.47,0,0,0,1.74-1.76c.77-.83,1.56-1.64,2.26-2.52s1.24-1.81,1.86-2.72c0-.07.09-.14.13-.22.43-.8.47-.76.86-1.61l2.47,1.76c-.36.73-.71,1.45-1.08,2.16s-.78,1.5-1.23,2.22c-.59.95-1.21,1.87-1.85,2.79s-1.43,2.07-2.23,3a18.25,18.25,0,0,1-3,3.2c-.66.49-1.24,1.1-1.88,1.62-.93.77-1.89,1.5-2.83,2.26-1.14.9-2.29,1.8-3.42,2.72q-2.05,1.68-4.08,3.39a16.22,16.22,0,0,0-1.74,1.57,23.21,23.21,0,0,0-1.84,2.35,30.2,30.2,0,0,0-1.9,3.12,41.3,41.3,0,0,0-3,8.33c-.21,1.31-.6,4.53-.56,4.53.2-.41.37-.84.6-1.24a30.64,30.64,0,0,1,3-4.6c.63-.78,1.2-1.61,1.88-2.34a29.41,29.41,0,0,1,2.68-2.56,61.35,61.35,0,0,1,4.91-3.76,41.33,41.33,0,0,1,7.6-4.26,16.4,16.4,0,0,0,1.86-1c.77-.41,1.52-.84,2.3-1.23a15.12,15.12,0,0,0,3.6-2.59,39.13,39.13,0,0,0,4.63-4.74c1-1.28,2-2.56,3-3.87a30.54,30.54,0,0,0,3.1-4.78c.5-1,1-2,1.53-3,.07-.13.11-.28.18-.4.28-.56.37-.6.37-.6.49.06,1.38.11,1.83.14v3.64c0,.89,0,1.79-.06,2.68a15.26,15.26,0,0,1-1.23,5.66c-.71,1.71-1.44,3.41-2.29,5a41.53,41.53,0,0,0-1.8,4.51c-.41,1.09-.93,2.14-1.31,3.25s-.65,2.31-1,3.47c-.25.92-.49,1.85-.71,2.77a36.47,36.47,0,0,0-.84,7,36.86,36.86,0,0,0,.7,8.65c.27,1.38.57,2.76,1,4.1a23.59,23.59,0,0,0,2.89,6c.07.09.18.16.31.29,0-.12.07-.17.06-.22-.22-1.27-.5-2.54-.64-3.82a40.31,40.31,0,0,1-.22-4.12,26.91,26.91,0,0,1,.71-5.5c.24-1.26.42-2.54.68-3.79.14-.64.4-1.25.57-1.87.28-1,.48-2,.82-3a33.22,33.22,0,0,1,2.36-5.52c.64-1.11,1.22-2.25,1.82-3.37.69-1.29,1.37-2.58,2.07-3.87.59-1.08,1.22-2.14,1.79-3.23.24-.46.37-1,.57-1.45.35-.83.69-1.66,1.09-2.46a18.68,18.68,0,0,0,1.58-5.63c.26-1.88.63-3.74.84-5.63.12-1.1,0-2.23,0-3.35,0-.53,0-1.06.09-1.59a.32.32,0,0,1,.18-.2c.56-.22,1.14-.42,1.77-.65.34.74.71,1.46,1,2.2.65,1.61,1.37,3.2,1.87,4.85.4,1.29.48,2.67.77,4a24.64,24.64,0,0,1,.22,4c.08,1.47.25,3,.4,4.42.11,1.12.27,2.24.39,3.36a40,40,0,0,0,1.43,6.84c.37,1.3.7,2.61,1.16,3.89.37,1,.9,2,1.36,3.05.11.25.2.51.29.77a13,13,0,0,0,2.06,3.95c.35.48.64,1,1,1.46q1.47,1.72,3,3.4c.54.6,1.09,1.17,1.65,1.75a26.34,26.34,0,0,0,5.31,4.4,21.18,21.18,0,0,0,5.57,2.67,2.63,2.63,0,0,0,.41.05c-.37-.43-.74-.89-1.13-1.33a25.64,25.64,0,0,1-3-3.72c-.6-1-1.28-1.9-1.85-2.9-.7-1.21-1.35-2.44-2-3.7-.85-1.8-1.64-3.63-2.44-5.45-.21-.47-.37-1-.54-1.47-.56-1.6-1.19-3.18-1.63-4.81s-.76-3.42-1.07-5.14c-.22-1.24-.37-2.49-.51-3.75-.12-1.09-.23-2.19-.26-3.28-.05-1.34,0-2.68,0-4,0-1.64,0-3.28-.08-4.91,0-1,0-2,0-2.92a17.44,17.44,0,0,0-1.53-6.58,25.52,25.52,0,0,0-2.72-4.44c-.37-.55-.77-1.08-1.17-1.64a9.17,9.17,0,0,1,.92-.84c.27-.2.53,0,.74.19a10,10,0,0,0,3.48,2.53c.92.38,1.76,1,2.66,1.4s1.76.73,2.65,1.07a19.4,19.4,0,0,0,2.3.77,22.62,22.62,0,0,0,2.95.46c2.56.23,5.13.45,7.7.6,1.76.1,3.53.07,5.3.11,1.32,0,2.63.09,4,.14.92,0,1.84,0,2.75.12,1.64.21,3.27.51,4.9.74a57.6,57.6,0,0,1,7.73,2.07,17.94,17.94,0,0,1,7.18,3.81,20.47,20.47,0,0,1,2.22,2.34c1.05,1.28,3.27,4,3.38,4,0-.14-.17-1.31-.24-1.75A9.7,9.7,0,0,0,266,242.48Z"/><path class="cls-3" d="M179.27,155.81a16.8,16.8,0,0,1-5.94-1.05,13.56,13.56,0,0,1-4.73-3.07l-.15-.15a12.31,12.31,0,0,1-6.52,1.23,15.17,15.17,0,0,1-2.9-.53l-1-.25c-.5-.11-1-.25-1.47-.38l-.51-.14a10.61,10.61,0,0,1-7.61-7.12,22.73,22.73,0,0,1-.85-11.65,21.2,21.2,0,0,1,1.26-4.58,30.18,30.18,0,0,1,2.83-5.48s1.56-1.32,2-1.76a31.16,31.16,0,0,1,4.17-2.51,11.87,11.87,0,0,1,2.88-1.15h.06a26.35,26.35,0,0,1,6-.8,8.82,8.82,0,0,0,.89,0c.11-.56.22-1.12.32-1.69.22-1.19.45-2.41.74-3.62a38.77,38.77,0,0,1,1.4-4.87,15.67,15.67,0,0,1,5.75-7.36c.21-.14.41-.3.61-.45s.62-.48,1-.7A7.58,7.58,0,0,1,179,96.9l1.28-.46c1.4-.5,2.86-1,4.34-1.41a21.54,21.54,0,0,1,9.65-.19,40.34,40.34,0,0,1,8.81,2.9,14.24,14.24,0,0,1,6.56,5.17,10.63,10.63,0,0,0,.83,1.06l.42.49a11.3,11.3,0,0,1,1.63,3.13l.4,1c.09.18.17.37.25.55a18.89,18.89,0,0,1,1,2.58,24.12,24.12,0,0,1,.63,3.62v.12c0,.18,0,.39.07.54l.61.06h.06a2.88,2.88,0,0,1,.47.06l1.56.35c1.09.25,2.22.5,3.32.7a10.08,10.08,0,0,1,3,1.23l.92.49a11.46,11.46,0,0,1,4.14,3.78,22.06,22.06,0,0,1,4.26,9.56,16.19,16.19,0,0,1-.72,8.8,10.89,10.89,0,0,1-2.56,3.87,8.59,8.59,0,0,1-2.61,1.82l-.5.21a14.87,14.87,0,0,1-5.14,1.4,13.38,13.38,0,0,0-1.81.23l-.66.11a12.4,12.4,0,0,1-6.33-.92c-.15-.05-.31-.12-.47-.19s-.29-.13-.42-.17l-.16.25c-.1.16-.21.34-.33.5a13.13,13.13,0,0,1-8.91,5.19,23.62,23.62,0,0,1-4.82.33,21.72,21.72,0,0,1-6.4-1.3,12.78,12.78,0,0,1-2.07-1.11l-.16-.1-.1.12a11.43,11.43,0,0,1-9.28,4.53ZM169,149.07l.46.48.2.22.38.4a11.61,11.61,0,0,0,4,2.61,15,15,0,0,0,5.62.9,9.31,9.31,0,0,0,7.66-3.69,6.21,6.21,0,0,1,.58-.65l.25-.26.57-.61.73.42c.32.18.63.37.93.56a10.76,10.76,0,0,0,1.71.93,19.91,19.91,0,0,0,5.78,1.17,21.78,21.78,0,0,0,4.39-.31,11.11,11.11,0,0,0,7.51-4.39,2.68,2.68,0,0,0,.22-.33,2.38,2.38,0,0,1,1.37-1.24,2.91,2.91,0,0,1,1.85.33l.36.15a10.57,10.57,0,0,0,5.27.82l.63-.11a17.29,17.29,0,0,1,2.09-.26A12.93,12.93,0,0,0,226,145l.5-.21a7,7,0,0,0,2-1.4,8.87,8.87,0,0,0,2.05-3.15,13.51,13.51,0,0,0,.58-7.66,20.07,20.07,0,0,0-3.88-8.64,9.57,9.57,0,0,0-3.35-3.12c-.35-.17-.69-.35-1-.53a8,8,0,0,0-2.38-1c-1.15-.21-2.3-.47-3.41-.72l-1.54-.35-.19,0h-.07c-2-.17-2.39-.57-2.6-2.48l0-.11a22.31,22.31,0,0,0-.56-3.3,16.61,16.61,0,0,0-.89-2.27c-.08-.19-.17-.38-.25-.58-.15-.35-.29-.71-.43-1a9.28,9.28,0,0,0-1.31-2.57l-.38-.45a12.2,12.2,0,0,1-1-1.31,12.48,12.48,0,0,0-5.64-4.36,38.34,38.34,0,0,0-8.35-2.76,19.42,19.42,0,0,0-8.71.16c-1.4.36-2.8.87-4.16,1.36l-1.3.46a5.29,5.29,0,0,0-1.1.57c-.27.18-.55.39-.83.61l-.68.5a13.55,13.55,0,0,0-5,6.37,37.24,37.24,0,0,0-1.32,4.61c-.27,1.15-.5,2.36-.71,3.52-.11.59-.22,1.18-.34,1.77a1.74,1.74,0,0,1-1.91,1.65c-.34,0-.71,0-1.09,0a24.31,24.31,0,0,0-5.47.75h0a9.65,9.65,0,0,0-2.36,1,24.44,24.44,0,0,0-3.65,2.13c-.47.47-1.86,1.59-1.86,1.59a25.48,25.48,0,0,0-2.51,5,19,19,0,0,0-1.13,4.14,20.33,20.33,0,0,0,.76,10.57,8.51,8.51,0,0,0,6.16,5.79l.52.14c.47.13.92.25,1.37.35l1.07.26a13.08,13.08,0,0,0,2.49.47,10,10,0,0,0,5.73-1.15,2.17,2.17,0,0,1,.52-.2l.12,0Z"/><path class="cls-3" d="M253.08,228.46a6.91,6.91,0,0,1-1.11-.08,28.06,28.06,0,0,1-11.42-4.06,11.31,11.31,0,0,1-2.2-2,4.5,4.5,0,0,0-3-1.54c-2.28-.3-4.7-.7-7.87-1.28a11.57,11.57,0,0,1-2.79-.93c-1.74-.82-3.43-1.73-4.71-2.43a4.87,4.87,0,0,1-1.45-1.25,23.05,23.05,0,0,1-4.06-7.47,9.55,9.55,0,0,1-.43-2.72v-.47a37.72,37.72,0,0,1,.73-9.55,17.93,17.93,0,0,1,3-7.13,9.62,9.62,0,0,1,.82-.86c.13-.12.25-.25.38-.38s.29-.29.44-.43a5.83,5.83,0,0,0,.77-.86,6.65,6.65,0,0,1,2.7-2.29c.47-.23.93-.5,1.42-.77.67-.39,1.37-.78,2.11-1.12,1.41-.64,2.83-1.15,4.41-1.7a17.41,17.41,0,0,1,5.88-.74c.32,0,.66,0,1,0l.17-.65c.27-1.05.54-2.07.81-3.09l.1-.35c.3-1.11.61-2.26,1-3.39a7.94,7.94,0,0,1,.85-1.84,20.36,20.36,0,0,1,5.65-5.91,21.36,21.36,0,0,1,4-2.17,29.74,29.74,0,0,1,3.92-1.17l.69-.17c.87-.22,1.74-.39,2.59-.55l1-.2.14,0a4.39,4.39,0,0,1,.87-.11h.85a53.17,53.17,0,0,1,9.46.57,7.27,7.27,0,0,1,1.32.37l.32.13c2,.78,4,1.59,6,2.42a11.08,11.08,0,0,1,4.39,3.28l.78.94a24.58,24.58,0,0,1,3,4.19,12.45,12.45,0,0,1,1.45,4.58c.16,1.45.25,2.91.34,4.34,0,.58.07,1.16.11,1.74,0,.42.05.77.05,1.1h0c1,.38,2.11.79,3.13,1.18l.46.17.44.17a9.74,9.74,0,0,1,1.4.59c.88.47,1.76,1,2.62,1.44,1.11.61,2.26,1.25,3.4,1.85a12.66,12.66,0,0,1,4.06,3.19,16,16,0,0,0,1.15,1.21,13.7,13.7,0,0,1,1.5,1.62,14,14,0,0,1,2.92,8.42,33.45,33.45,0,0,1-.74,7.53,17.16,17.16,0,0,1-2.91,6.8c-.37.51-.75,1-1.13,1.51l-1,1.29a13.47,13.47,0,0,1-9.08,5.61l-1.46.22c-1.84.28-3.76.58-5.67.72a44.61,44.61,0,0,1-11.18-.58,27.31,27.31,0,0,1-3.9-1.08l-1.14-.36c-.37-.12-.45-.07-.52,0l-1.19.65c-.88.47-1.79.95-2.64,1.47a11,11,0,0,1-4.44,1.63c-2,.24-4.09.45-6.17.63l-.62.06A17.54,17.54,0,0,1,253.08,228.46Zm-16.63-47.91a14.46,14.46,0,0,0-4.88.62c-1.53.54-2.91,1-4.24,1.63-.65.3-1.27.65-1.93,1-.49.28-1,.56-1.51.83A4.39,4.39,0,0,0,222,186.2a6.89,6.89,0,0,1-1.08,1.23c-.13.12-.26.25-.38.38s-.29.29-.44.43-.45.45-.63.67a15.77,15.77,0,0,0-2.62,6.31,35.84,35.84,0,0,0-.67,9v.47a7.31,7.31,0,0,0,.33,2.09,20.91,20.91,0,0,0,3.69,6.79,2.83,2.83,0,0,0,.82.72c1.25.69,2.9,1.57,4.6,2.37a9.18,9.18,0,0,0,2.27.76c3.12.58,5.52,1,7.76,1.27a6.59,6.59,0,0,1,4.27,2.24,9.18,9.18,0,0,0,1.78,1.6,25.93,25.93,0,0,0,10.58,3.74,9.31,9.31,0,0,0,2.34-.06l.65-.06c2.06-.18,4.12-.39,6.11-.63a8.71,8.71,0,0,0,3.58-1.33c.9-.55,1.84-1.05,2.75-1.53l1.17-.64a2.7,2.7,0,0,1,2.17-.13l1.17.38a27.23,27.23,0,0,0,3.61,1,42.82,42.82,0,0,0,10.66.55c1.82-.14,3.69-.43,5.5-.71l1.46-.22a11.24,11.24,0,0,0,7.69-4.77l1-1.31c.38-.49.75-1,1.11-1.48a14.93,14.93,0,0,0,2.54-6,31,31,0,0,0,.7-7.06,12,12,0,0,0-2.48-7.18,12.79,12.79,0,0,0-1.3-1.38,17.26,17.26,0,0,1-1.31-1.38,10.49,10.49,0,0,0-3.41-2.66c-1.16-.61-2.32-1.26-3.44-1.88-.85-.47-1.72-1-2.59-1.42a8.54,8.54,0,0,0-1.13-.47l-.47-.18-.45-.17c-1-.39-2.08-.8-3.12-1.17a2,2,0,0,1-1.38-2c0-.29,0-.61-.05-1,0-.59-.07-1.18-.11-1.76-.09-1.4-.18-2.85-.32-4.25a10.6,10.6,0,0,0-1.23-3.81,23.15,23.15,0,0,0-2.76-3.83c-.27-.31-.53-.63-.79-1a9.16,9.16,0,0,0-3.57-2.67c-2-.82-4-1.62-5.92-2.4l-.33-.13a4.64,4.64,0,0,0-.91-.25,51.1,51.1,0,0,0-9.08-.54h-.85a2.8,2.8,0,0,0-.42.06l-.17,0-1,.2c-.82.16-1.66.32-2.47.52l-.7.18a28.09,28.09,0,0,0-3.64,1.08,18.58,18.58,0,0,0-3.57,2,18.05,18.05,0,0,0-5.06,5.29,5.24,5.24,0,0,0-.62,1.33c-.34,1.09-.64,2.22-.94,3.31l-.09.35c-.27,1-.54,2-.81,3.08l-.57,2.18-.8,0-.63,0c-.43,0-.83,0-1.25,0Z"/><path class="cls-3" d="M116.81,236.47a14.93,14.93,0,0,1-5.26-.82c-.36-.13-.74-.24-1.13-.35a14.66,14.66,0,0,1-1.58-.53,11,11,0,0,1-2.24-1.23,12.36,12.36,0,0,1-5.4,2.3,10.52,10.52,0,0,1-5-.17,35,35,0,0,1-3.65-1.26,5.58,5.58,0,0,1-2.06-1.55,17.06,17.06,0,0,1-3.39-6.07,13.4,13.4,0,0,1-.37-2c-.14-1.19-.28-2.4-.35-3.6a11.33,11.33,0,0,1,1.79-6.78l.1-.16h0a8.4,8.4,0,0,1,3.26-4.17l.66-.55a14.72,14.72,0,0,1,6.55-3c.32-.08.66-.18,1-.28l.12-.62c.19-1,.37-1.94.57-2.9.15-.75.32-1.49.49-2.17a5.88,5.88,0,0,1,1.3-2.56,14.71,14.71,0,0,0,1.22-1.65,6.56,6.56,0,0,1,2.87-2.46,7.65,7.65,0,0,0,1.21-.66,18.45,18.45,0,0,1,7.14-2.82,29.57,29.57,0,0,1,6.86-.78,12.64,12.64,0,0,1,1.77-3.61,9.6,9.6,0,0,1,3.19-3.05c.33-.2.65-.41,1-.64s.92-.6,1.41-.88l.2-.1a9.87,9.87,0,0,1,2.42-1.07,24.17,24.17,0,0,1,7.47-.66c4.23.26,7.31,1.11,10,2.75a1.5,1.5,0,0,0,.39.18,10.63,10.63,0,0,1,4.09,2.56l.14.11a19.41,19.41,0,0,1,3.76,4.69c.16.28.33.55.51.83a12.85,12.85,0,0,1,1.82,3.8c.35,1.43.65,3,.88,4.61.29,2,.54,4,.78,5.93.11.85.21,1.71.32,2.57,0,.24.07.49.1.73l0,.39h0c1.72.19,5.76.61,8.21,3.85,1.84,2.42,2.38,5.89,1.62,10.31a37.52,37.52,0,0,1-.76,3.77,4,4,0,0,1-1,1.66c-.42.46-.87.9-1.29,1.32s-.68.67-1,1a5.85,5.85,0,0,1-2.43,1.54,22.31,22.31,0,0,1-11.85,1l-1-.18a17.9,17.9,0,0,1-2.3-.5,11.84,11.84,0,0,1-1.89-.86l-.35-.18a8.88,8.88,0,0,0-.84.57,12.42,12.42,0,0,1-2.75,1.55l-.3.13a20.66,20.66,0,0,1-5.91,1.61,17.78,17.78,0,0,1-6.17-.14,6.28,6.28,0,0,1-1.44-.49l-3.49-1.75-1.29-.66a12.81,12.81,0,0,1-5.41,3.72,4.12,4.12,0,0,1-1.27.3C118.2,236.44,117.51,236.47,116.81,236.47Zm-10.23-5.12a2.11,2.11,0,0,1,1.18.41,9.13,9.13,0,0,0,1.88,1.05,12.75,12.75,0,0,0,1.36.45c.42.12.85.24,1.28.4a16.46,16.46,0,0,0,6.49.63,1.83,1.83,0,0,0,.55-.13,10.88,10.88,0,0,0,4.6-3.12,4.38,4.38,0,0,1,.51-.53l.16-.14.49-.48.65.26.17.06c.14.06.25.1.36.16l1.55.78,3.47,1.75a4.66,4.66,0,0,0,.93.32,15.93,15.93,0,0,0,5.46.11,19.11,19.11,0,0,0,5.32-1.44l.3-.14a10.79,10.79,0,0,0,2.3-1.26,10.53,10.53,0,0,1,1.19-.81l.33-.21.5-.34.55.27.93.47a9.71,9.71,0,0,0,1.54.71,16.83,16.83,0,0,0,2,.45l1,.18a20.36,20.36,0,0,0,10.75-.94,4,4,0,0,0,1.58-1c.34-.37.69-.71,1-1.05a12.93,12.93,0,0,0,2.47-5.58c.68-3.85.26-6.77-1.21-8.7-1.89-2.51-5.17-2.85-6.74-3-.85-.09-1.72-.18-1.83-1.11,0-.37-.09-.73-.14-1.1s-.07-.5-.1-.75l-.33-2.58c-.24-1.94-.49-3.94-.77-5.89a43.78,43.78,0,0,0-.84-4.41A11.17,11.17,0,0,0,156,191.9c-.18-.28-.36-.57-.53-.86a16.35,16.35,0,0,0-3.34-4.18l-.13-.11a8.75,8.75,0,0,0-3.27-2.12,4,4,0,0,1-.93-.41,18.57,18.57,0,0,0-9-2.45,22.5,22.5,0,0,0-6.83.6,8.37,8.37,0,0,0-1.9.87l-.2.11c-.43.24-.84.51-1.28.8s-.7.46-1.07.68a7.41,7.41,0,0,0-2.5,2.38,8.91,8.91,0,0,0-1.64,3.72l-.13,1-1-.11a24.59,24.59,0,0,0-7.2.69,16.64,16.64,0,0,0-6.35,2.48,9.61,9.61,0,0,1-1.53.85,4.38,4.38,0,0,0-2,1.68,16.66,16.66,0,0,1-1.39,1.88,3.91,3.91,0,0,0-.85,1.67c-.16.67-.33,1.38-.48,2.1-.19.95-.37,1.91-.56,2.88l-.36,1.9-.63.18-.48.14c-.39.12-.79.24-1.21.34a12.86,12.86,0,0,0-5.67,2.5l-.7.58c-1.19,1-2.22,1.81-2.58,3.18a2,2,0,0,1-.3.6.1.1,0,0,0,0,0,9.21,9.21,0,0,0-1.46,5.53c.06,1.14.2,2.31.33,3.44a11.79,11.79,0,0,0,.31,1.72,14.77,14.77,0,0,0,3,5.3,3.34,3.34,0,0,0,1.25.93,32.48,32.48,0,0,0,3.4,1.18,8.48,8.48,0,0,0,4.08.11,10,10,0,0,0,4.57-1.95A1.9,1.9,0,0,1,106.58,231.35Zm-18.37-17Z"/></g><text class="cls-4" transform="translate(86.57 269.72)"> </text><path class="cls-3" d="M54.18,260.49l-.22-.37a.72.72,0,0,1,.25-1.09L76.16,246a.72.72,0,0,1,1.08.3l.36.6a.83.83,0,0,1-.08,1.08L63.44,266.37,81.8,255.45a.69.69,0,0,1,1.06.27l.22.37a.72.72,0,0,1-.25,1.09l-22,13.06a.73.73,0,0,1-1.08-.31l-.29-.49a.83.83,0,0,1,.07-1.09l14.16-18.59-18.49,11A.7.7,0,0,1,54.18,260.49Z"/><path class="cls-3" d="M92.8,268.28l.2.24c2.67,3.12,2.56,6-.32,8.43L80.33,287.52c-2.88,2.47-5.71,2.14-8.38-1l-.2-.23c-2.67-3.12-2.56-6,.32-8.43l12.35-10.57C87.33,264.81,90.13,265.17,92.8,268.28ZM73.32,285.17c2,2.32,3.74,2.4,6.18.31l11.29-9.67c2.44-2.09,2.63-3.83.64-6.15s-3.74-2.4-6.18-.31L74,279C71.52,281.1,71.33,282.84,73.32,285.17Z"/><path class="cls-3" d="M111.55,287.87,90.88,303.78a.79.79,0,0,1-1.1,0l-.65-.55a.79.79,0,0,1-.2-1.08l12.28-23c.32-.5.69-.58,1.11-.23l.44.37a.76.76,0,0,1,.2,1.08l-11,20.28,18.21-14.2a.76.76,0,0,1,1.1,0l.35.3A.65.65,0,0,1,111.55,287.87Z"/><path class="cls-3" d="M134.46,302.91,118,321.81a.78.78,0,0,1-1.08.24l-.41-.21a.66.66,0,0,1-.22-1.11l16.46-18.89-7.34-3.75a.69.69,0,0,1-.34-1l.16-.31a.69.69,0,0,1,1-.33l8.48,4.32a.72.72,0,0,1,.37,1.06l-.14.28A4.24,4.24,0,0,1,134.46,302.91Z"/><path class="cls-3" d="M144.46,318.63l-.08.22a.73.73,0,0,1-1,.45l-6.47-2.36a.72.72,0,0,1-.5-1l.08-.22a.73.73,0,0,1,1-.45l6.47,2.35A.73.73,0,0,1,144.46,318.63Z"/><path class="cls-3" d="M166.23,316.12l-.69,3.25c-.35,1.67-1.2,3.82-3.76,3.56,2.54.93,2.22,3.75,1.91,5.19l-.82,3.9c-.72,3.41-2.85,5.25-6.41,4.5l-1.17-.25c-3.56-.75-4.77-3.3-4-6.71l.83-3.9c.3-1.44,1.15-4.14,3.85-4-2.45-.79-2.35-3.11-2-4.77l.69-3.26c.72-3.41,2.85-5.25,6.41-4.5l1.17.25C165.75,310.16,167,312.71,166.23,316.12Zm-4.52,11.26c.51-2.38-.59-3.56-2.71-4l-.72-.15c-2.12-.45-3.6.19-4.1,2.57l-.79,3.75c-.64,3,.39,4.47,2.51,4.92l.72.16c2.12.44,3.66-.46,4.3-3.49Zm2.38-11.24c.64-3-.4-4.48-2.52-4.92l-.72-.16c-2.12-.44-3.65.46-4.29,3.49l-.61,2.84c-.5,2.38.6,3.56,2.72,4l.72.15c2.12.45,3.6-.19,4.1-2.57Z"/><path class="cls-3" d="M192,325.54c0,1.71-.73,2.42-2.2,2.44s-2.34-.66-2.36-2.36.77-2.42,2.28-2.44S191.94,323.84,192,325.54Z"/><path class="cls-3" d="M224.67,316.55l-.49.12a.75.75,0,0,1-1-.61l-.63-2.59c-.71-2.89-2.08-3.91-4.89-3.22s-3.56,2.22-2.85,5.12l.45,1.84c.48,2,1.28,2.31,3.53,2.88l4.57,1.23c2.08.53,3.75,1.67,4.24,3.66l.83,3.39c.92,3.76-.57,5.95-4.56,6.93l-.07,0c-4,1-6.32-.25-7.25-4l-.86-3.5a.76.76,0,0,1,.6-1l.49-.12a.73.73,0,0,1,.94.6l.71,2.9c.7,2.85,2.1,4,5,3.29s3.57-2.35,2.87-5.21l-.51-2.1c-.48-2-1.44-2.44-3.71-3.08l-4.47-1.18c-2.48-.7-3.67-1.49-4.19-3.59l-.74-3.05c-.88-3.61.93-6,4.54-6.85h.07c3.61-.89,6.31.36,7.19,4l.78,3.2A.75.75,0,0,1,224.67,316.55Z"/><path class="cls-3" d="M250.8,325.7l-8.43,3.52a.73.73,0,0,1-1.05-.41l-9.84-23.57a.72.72,0,0,1,.45-1l8.32-3.47a.72.72,0,0,1,1.05.4l.13.32a.74.74,0,0,1-.43,1.06l-7.15,3,4,9.64,6-2.52a.75.75,0,0,1,1.06.44l.12.28a.76.76,0,0,1-.44,1.07l-6,2.52,4.17,10,7.25-3a.76.76,0,0,1,1.07.44l.13.32A.73.73,0,0,1,250.8,325.7Z"/><path class="cls-3" d="M272.3,313.67l-.49.31a.78.78,0,0,1-1.09-.15l-4.44-4.63L260.05,313l2.13,6.05a.76.76,0,0,1-.36,1l-.4.25c-.46.28-.82.14-1.06-.4l-8.47-24.73a.77.77,0,0,1,.36-1l.8-.48a.75.75,0,0,1,1.09.15l18.29,18.69A.65.65,0,0,1,272.3,313.67Zm-7.37-5.87-10.56-11.05,5.05,14.43Z"/><path class="cls-3" d="M271.93,280.63l.22.27a.76.76,0,0,1-.11,1.15l-3.32,2.72,15.48,18.84a.73.73,0,0,1-.13,1.12l-.39.32a.69.69,0,0,1-1.09-.11L267.1,286.1l-3.31,2.73a.76.76,0,0,1-1.15-.11l-.22-.27a.73.73,0,0,1,.14-1.12l8.25-6.78A.72.72,0,0,1,271.93,280.63Z"/><path class="cls-3" d="M284,268l.26.23a.75.75,0,0,1,0,1.15l-2.91,3.16,17.93,16.52a.72.72,0,0,1,0,1.12l-.34.37a.69.69,0,0,1-1.09.05L280,274.1l-2.91,3.16a.75.75,0,0,1-1.15.05l-.25-.24a.72.72,0,0,1,0-1.12l7.23-7.86A.72.72,0,0,1,284,268Z"/><path class="cls-3" d="M314.91,268.25l.32.22a.73.73,0,0,1,.18,1.11l-4.87,7a.72.72,0,0,1-1.1.23l-21-14.53a.73.73,0,0,1-.17-1.11l.28-.41a.69.69,0,0,1,1.08-.2l20.05,13.87,4.14-6A.72.72,0,0,1,314.91,268.25Z"/><path class="cls-3" d="M325.9,250.35l-4.07,8.17a.72.72,0,0,1-1.05.39l-22.87-11.37a.72.72,0,0,1-.33-1.07l4-8.08a.73.73,0,0,1,1.06-.38l.31.15a.75.75,0,0,1,.36,1.09l-3.44,6.93,9.36,4.66,2.91-5.86a.76.76,0,0,1,1.09-.37l.27.14a.76.76,0,0,1,.37,1.09L311,251.7l9.7,4.82,3.5-7a.76.76,0,0,1,1.09-.37l.31.15A.74.74,0,0,1,325.9,250.35Z"/></svg>