<svg id="Layer_1" data-name="Layer 1" xmlns="http://www.w3.org/2000/svg" width="380" height="380" viewBox="0 0 380 380"><defs><style>.cls-1{fill:#b9debc;}.cls-2{fill:#0d29ff;}</style></defs><title>logo-round</title><circle class="cls-1" cx="190" cy="190" r="188"/><path class="cls-2" d="M110.24,204.8a15.08,15.08,0,0,1-2.64-1.93c-1-1-1.5-2.39-2.51-3.34a4.68,4.68,0,0,0-1.06-.71c.44.25-1.06-.54-.81-.47a8,8,0,0,0-2-.32,6,6,0,0,0-3.11.5,15.93,15.93,0,0,0-2.47,2c-.82.67-1.67,1.3-2.51,1.95s-1.68,1.29-2.54,1.9-1.68,1.32-2.58,1.88-1.9.95-2.84,1.43a21.86,21.86,0,0,1-3.27,1.27A29.25,29.25,0,0,1,78.57,210a9.78,9.78,0,0,1-2.81,0c-.92-.09-1.85-.27-2.77-.32a16.26,16.26,0,0,1-3.12-.56,7.3,7.3,0,0,1-2.19-.84,5.3,5.3,0,0,1-2.12-2c-.7-1.5-.21-1.32.76-2.07s1.16-1.27,2-1.95c1.06-.89,2.2-1.75,3.27-2.74.9-.82,1.76-1.72,2.66-2.58s1.82-1.7,2.76-2.46a34.29,34.29,0,0,0,3.36-3.35c.4-.4,1.45-1.47,2.52-2.49s2.4-2.19,2.62-2.4c0,0,.1,0,.12-.07.17-.36,1.73-2,2-2.37A22.72,22.72,0,0,1,90,182c.2-.19,1.46-1.07,2.76-2.33.84-.81,1.68-1.78,2.52-2.59,1.42-1.39,1.35-1.2,2.58-2.52.91-1.06,1.87-2.12,2.71-3.19.54-.7,1.15-1.49,1.78-2.16s1.76-1.84,2.94-2.92c1.56-1.42,1.52-1.4,3.06-2.77A20.34,20.34,0,0,1,111,161.6a22.53,22.53,0,0,1,2.86-1.44,23.09,23.09,0,0,1,3-1.29,11.87,11.87,0,0,1,3.17-.6,7.54,7.54,0,0,1,3.1,1,23,23,0,0,1,2.75,1.75c.94.65,1.91,1.22,2.72,1.83a20,20,0,0,0,2.61,1.91,4.25,4.25,0,0,0,3.46-.09,6.17,6.17,0,0,0,2.81-2.13c.66-.69,1.41-1.55,2.33-2.47.73-.74,1.65-1.42,2.52-2.29s1.46-1.66,2.31-2.5,1.65-1.49,2.49-2.31,1.49-1.66,2.33-2.47,1.66-1.51,2.49-2.31,1.67-1.52,2.49-2.32,1.69-1.5,2.51-2.29,1.49-1.71,2.31-2.5,1.69-1.52,2.51-2.31,1.66-1.55,2.47-2.34,1.68-1.53,2.5-2.31,1.59-1.65,2.4-2.42l2.45-2.37c.84-.81,1.61-1.65,2.41-2.41s1.75-1.51,2.54-2.27,1.55-1.75,2.33-2.49,1.85-1.48,2.6-2.2c.93-.89,1.72-1.72,2.41-2.38,1.56-1.49,1.24-1.16,2.47-2.33A16.54,16.54,0,0,1,189,113a3.88,3.88,0,0,1,3.39-.6c1.49.52,1.81,1.72,2.08,2.9a9,9,0,0,0,1.28,3.46,3.84,3.84,0,0,0,3.68,1.59,16.17,16.17,0,0,0,4-1.3,4.77,4.77,0,0,1,3.51-.16,3.92,3.92,0,0,1,2.19,2.66,14.65,14.65,0,0,1,.57,3.22,4.34,4.34,0,0,0,1.21,3,9.09,9.09,0,0,0,3.39,1.92,13.38,13.38,0,0,1,3.62,1.45,6.4,6.4,0,0,1,1.93,3.52,11.78,11.78,0,0,1,.2,3.51c-.08,1.18-.14,2.43-.31,3.54a19.1,19.1,0,0,1-.74,3.46,7.83,7.83,0,0,0-.28,3.41,11.77,11.77,0,0,0,.9,3.29A30,30,0,0,0,221,155s.1,0,.11,0c.75,1.7,1.3,2.73.55,4.66a4.89,4.89,0,0,1-3.06,2.78,18.86,18.86,0,0,1-3,1,22.8,22.8,0,0,1-3.21.29,26.38,26.38,0,0,1-3.19.19c-1,0-2.09-.08-3.16,0a15,15,0,0,0-3.14.44,8.45,8.45,0,0,0-2.76,1.5,6.56,6.56,0,0,0-2,2.09,3.71,3.71,0,0,0-.25,2.78,3.76,3.76,0,0,0,1.67,2.24,6.13,6.13,0,0,0,3.35.9c1.14,0,2.33-.31,3.49-.36a8.12,8.12,0,0,1,3.43.47c1.54.63,2.76.75,3.74,1.9a4,4,0,0,1,1,3.19,10.3,10.3,0,0,1-.66,2.7c-.45,1.33-.55,1.26-1,2.55-.58,1.57-.69,2.1-1.59,3a9.46,9.46,0,0,1-1.87,1.41,13.5,13.5,0,0,1-2.66,1.17,20.77,20.77,0,0,1-2.8.83,23.33,23.33,0,0,1-3,.21c-1,0-2,.06-3,.06s-2,0-3,.06a21.38,21.38,0,0,0-3,.45,14.78,14.78,0,0,0-2.8.54,7.84,7.84,0,0,0-2.34,1.58,2.11,2.11,0,0,0-.82,2.44c.31.9,1.83,1.66,3.13,2.6s2.28,2,1.83,3.39a2.77,2.77,0,0,1-2.17,1.94,8,8,0,0,1-3.1.08,19.18,19.18,0,0,1-3-.84c-1-.34-1.94-.88-2.82-1.27-1.19-.53-2.24-.92-2.82-1.26a10.28,10.28,0,0,0-2.51-1.21,4.49,4.49,0,0,0-2.74.05c-.78.33-1.56.71-2.35,1s-1.62.57-2.41.91a15.66,15.66,0,0,0-2.83,1.43c-.88.59-1.63,1.4-2.51,2a11.82,11.82,0,0,1-2.88,1.36,5,5,0,0,1-3.33-.08,8.77,8.77,0,0,1-2.8-1.84,25.16,25.16,0,0,0-2.61-2.13c-1.2-.84-2.26-2-3.5-2.75-1.65-1.25-2.13-1.93-3.66-1.71a16.41,16.41,0,0,0-3.61,1.15A26.18,26.18,0,0,0,136,200.7c-1,.64-2.08,1.32-3.2,2s-2.08,1.36-3.15,2-2.24,1.1-3.28,1.76a20.32,20.32,0,0,1-2.73,1.44,17.72,17.72,0,0,1-2.93,1c-.85.19-1.8.53-2.72.66a3.61,3.61,0,0,1-2.76-.34c-.15-.12-1.3-1.21-2.5-2.21S111.55,205.83,110.24,204.8Zm21.44-26.35c-.16.27.06.57.36.66a3.23,3.23,0,0,0,2.62-.57,17.21,17.21,0,0,0,2.25-1.72c.85-.76,1.64-1.44,2.12-1.87.83-.74,1.63-1.52,2.42-2.31s1.63-1.53,2.41-2.33,1.43-1.72,2.23-2.5,1.5-1.41,2.23-2.14l2.21-2.17c.74-.73,1.4-1.54,2.16-2.23,1-.91,2.05-1.78,3-2.7s2-1.32,3-2.35,1.46-2,2.25-2.9,1.62-1.86,2.35-2.8c.93-1.19,1.37-2.63-.76-2-1.55.44-2.45,2.28-3.72,3.25-.85.65-1.67,1.31-2.46,2s-1.52,1.49-2.27,2.26-1.64,1.38-2.37,2.16-1.31,1.7-2.05,2.46-1.56,1.48-2.34,2.2a30,30,0,0,1-2.43,2.08,11.8,11.8,0,0,0-2.65,3,14.5,14.5,0,0,1-1.75,2,17.53,17.53,0,0,1-2,1.75c-.77.56-1.53,1.1-2.23,1.72s-1.42,1.22-2.09,1.9A15.66,15.66,0,0,0,131.68,178.45Zm23.49-5.68c.78-.85,1.51-1.85,2.37-2.72a30.4,30.4,0,0,0,2.5-2.58c.56-.71,1.09-1.48,1.61-2.25s1.09-1.51,1.61-2.26c.76-1.11,2-4.15-.71-2.49a6.2,6.2,0,0,0-1.76,1.87,10.46,10.46,0,0,1-1.36,2.16,17.69,17.69,0,0,1-2.26,1.65,9.94,9.94,0,0,0-2.1,1.83c-.7.88-1.23,1.82-1.91,2.63a17.48,17.48,0,0,1-2.38,2.21c-.68.58-1.46,1-2.16,1.5a11.41,11.41,0,0,0-1.79,1.93,19,19,0,0,1-3.46,3.6c-.75.54-1.56,1.09-2.32,1.72a24.49,24.49,0,0,0-2.05,2c-.81.84-2.81,2.86-1.49,3.59.62.35,1-.16,1.55-.38s1.76-.38,2.32-.66a7.47,7.47,0,0,0,1.94-1.87,15.82,15.82,0,0,1,2-1.83c.18-.14,1.16-1.13,2.46-2.42l2.46-2.44c.85-.85,1.75-1.65,2.5-2.4C154.1,173.78,154,174,155.17,172.77Zm-29.54,2.59c1.83-1.73,1.85-1.7,3.62-3.49.75-1.21-.39-1.59-.83-1.65-1.61-.27-1.42-.24-2.89,1.25-.2.2-1,1.05-2,2.2l-2,2.28c-.67.79-1.41,1.54-2,2.23-1,1.19-1.66,2.21-1.83,2.38-.9,1.1-.92,1.08-1.8,2.2s-1.54,2-1.71,2.26c-.72,1.18-.09,2,.81,1,.6-.7,1.56-1.45,2.39-2.28s1.83-1.68,2.38-2.26c1-1,.77-1,1.9-2.11.64-.62,1.39-1.28,2-2A22.69,22.69,0,0,0,125.63,175.36Zm47.16,7.22c.19.19.47,0,.67-.14a18.93,18.93,0,0,0,2.33-2.23c.68-.83,1.32-1.7,2-2.58s1.33-1.68,2-2.52,1.43-1.67,2.22-2.6a26.28,26.28,0,0,0,2.15-2.68,10,10,0,0,0,1.26-3.18.48.48,0,0,0-.52-.61c-1.36.17-3.18,2.37-3.68,3.12-.68,1-.94,2.43-1.7,3.38s-1.65,1-2.56,1.59a10.19,10.19,0,0,0-2.34,2.36,16.12,16.12,0,0,0-1.51,2.95C172.5,180.74,172.14,182,172.79,182.58Zm-2.28-35.85a23.47,23.47,0,0,0-1.86,2.63,4.28,4.28,0,0,0-.91,3,.52.52,0,0,0,.54.46,4,4,0,0,0,2.33-1.21c.7-.67,1.32-1.45,1.82-2,.83-.84,1.69-1.67,2.48-2.56s1.43-1.91,2.17-2.83c.3-.37,1.12-1.17,1.79-2s1.32-1.93.94-2.38c-.18-.21-1.28.12-1.68.24-.07,0-.18-.09-.23,0-.27.24-1.34,1.08-2.52,2.16-.79.72-1.52,1.68-2.3,2.41C171.82,145.74,170.65,146.57,170.51,146.73Z"/><path class="cls-2" d="M229.57,145.62c-.39-1-1.68-3.69.35-3.09,1,.29,1.71,1.71,2.34,2.44.83,1,1.85,1.76,2.71,2.72,1.7,1.9,3.14,4,4.87,5.9.68.74,5,4.7,3.79,5.45s-4.37-2.23-5.19-3-1.83-2-2.73-3C233.83,150.88,230.63,148.29,229.57,145.62Z"/><path class="cls-2" d="M244.56,173.85c.41.44.38,2.24-.18,2-6.15-2.39-11.5-7.76-14.42-13.6-1.67-3.35,1.13-1.4,2.52-.1,2,1.88,3.64,3.45,5.67,5.27C238.84,168.07,242.45,171.62,244.56,173.85Z"/><path class="cls-2" d="M227.49,182.75a.36.36,0,0,1-.44.52,19.83,19.83,0,0,1-7.34-5.46c-1.36-1.54-3-4.35-2.58-6.46a1.45,1.45,0,0,1,.94-.78c1.17-.15,1.7,1.37,2.24,2,1,1.09,1.63,2.38,2.55,3.53A50.14,50.14,0,0,1,227.49,182.75Z"/><path class="cls-2" d="M221.5,125.87c-.78-.87-1.62-1.76-2.44-2.71s-1.56-1.85-2.39-2.76-1.76-1.7-2.64-2.54a32.8,32.8,0,0,0-2.64-2.52,20.14,20.14,0,0,0-3.18-1.81,11.94,11.94,0,0,0-3.62-1.35,21.88,21.88,0,0,0-3.88,0,30.87,30.87,0,0,1-3.86,0c-.82-.06-1.53-1.9.07-3a6.29,6.29,0,0,1,3.63-.9,21.28,21.28,0,0,1,3,.3,23.55,23.55,0,0,1,3,.7,24.25,24.25,0,0,1,2.95.82,23.28,23.28,0,0,1,2.74,1.36,20.31,20.31,0,0,1,2.49,1.77c.88.71,1.75,1.43,2.6,2.17s1.72,1.48,2.53,2.26,1.56,1.64,2.34,2.45,1.53,1.67,2.3,2.5,1.58,1.62,2.33,2.47,1.41,1.76,2.15,2.62,1.49,1.69,2.22,2.55,1.56,1.64,2.3,2.49,1.49,1.7,2.24,2.55,1.38,1.79,2.14,2.63,1.58,1.51,2.32,2.3,1.46,1.61,2.2,2.4,1.39,1.68,2.13,2.48,1.47,1.6,2.21,2.4,1.52,1.54,2.25,2.35,1.5,1.56,2.22,2.39l2.14,2.47c.69.81,1.29,1.73,2,2.59s1.36,1.66,2,2.53,1.31,1.71,2,2.6,1.37,1.86,2.06,2.78,1.54,1.73,2.24,2.64,1.39,1.86,2.1,2.76,1.46,1.78,2.2,2.67,1.37,1.87,2.12,2.73,1.53,1.74,2.32,2.58,1.7,1.56,2.52,2.38,1.51,1.75,2.36,2.53,1.84,1.4,2.73,2.14,1.73,1.51,2.66,2.21,1.72,1.41,2.71,2.07,2,1.09,3,1.67,2,1.12,3,1.64,2.06,1,3.08,1.44,2.13,1,3.15,1.28,1.93.5,2.88.74,1.93.44,2.89.63,1.94.34,2.92.49,2,.24,2.94.33a17.84,17.84,0,0,1,3.39.63c1.39.43,2.49,1.21,2,2.3-.28.61-1.35.86-2.8.95a24.45,24.45,0,0,1-3.09,0c-1-.07-2-.23-3.07-.36s-2.17-.12-3.09-.27a21.66,21.66,0,0,1-3-.76c-1-.24-2-.37-3-.69s-1.95-.66-2.92-1-1.84-.95-2.78-1.39-1.9-.83-2.8-1.32-1.86-.95-2.72-1.5-1.7-1.22-2.51-1.82-1.81-1.29-2.67-2-1.69-1.43-2.52-2.16-1.6-1.54-2.4-2.3-1.63-1.5-2.41-2.29-1.45-1.68-2.21-2.49-1.62-1.51-2.37-2.33-1.47-1.66-2.2-2.49-1.49-1.63-2.22-2.46-1.36-1.75-2.09-2.59-1.41-1.71-2.14-2.54-1.56-1.64-2.29-2.5-1.44-1.73-2.16-2.6-1.34-1.82-2.05-2.7-1.49-1.7-2.19-2.58-1.37-1.8-2.07-2.67-1.53-1.68-2.24-2.55-1.33-1.82-2.05-2.69-1.54-1.65-2.27-2.51-1.4-1.77-2.14-2.62-1.54-1.65-2.3-2.49-1.45-1.73-2.23-2.54-1.59-1.64-2.38-2.46-1.55-1.67-2.34-2.49-1.61-1.61-2.4-2.43-1.64-1.59-2.42-2.41-1.59-1.64-2.36-2.48S222.26,126.72,221.5,125.87Z"/><path class="cls-2" d="M237.22,211.34c.46,0,1.49,0,2.94,0l3-.09a1.74,1.74,0,0,0,.73-.23c.85-.44,1.75-1,2.58-1.55,1.13-.71,2.15-1.28,2.56-1.56a3.17,3.17,0,0,1,2.2-.65l2.11.7a10.17,10.17,0,0,1,1.83.93,6.66,6.66,0,0,0,1.85.92,2.3,2.3,0,0,0,2.11-.51c.52-.44,1-1,1.58-1.5s.92-.93,1.43-1.3c.68-.59.86-1,1.53-.92a8,8,0,0,1,2.37.72c.71.34,1.37.8,2.14,1.22.92.5,1.85,1,2.76,1.46a8.46,8.46,0,0,0,2.7.82c.32.06.66.28,1,.32s.56-.07.84-.08a1.16,1.16,0,0,0,.43-.27l2.11-2c.36-.3.93-.8,1-.92s-.07-.11,0-.13c.38-.46.64-1,1-1.42s.37-.29.82-.45a3.18,3.18,0,0,1,.82-.2,3,3,0,0,1,2.44.87c.38.27,1.18.73,2.21,1.31.67.37,1.44.78,2.27,1.21s1.53.72,2.34,1.09a2.56,2.56,0,0,0,1.17.15c.92,0,1.77,0,2.54,0,1,0,1.82,0,2.53-.06l2.52-.12c1,0,1.83,0,2.56-.12,1.13-.09,1.95-.37,2.14-1.12.32-1.23-.72-1.67-2.31-2a19.15,19.15,0,0,1-2.73-.16c-.89-.15-1.79-.29-2.67-.53s-1.73-.56-2.59-.87-1.7-.64-2.54-1-1.65-.78-2.48-1.14-1.59-.71-2.36-1.09-1.58-.73-2.34-1.14-1.51-.86-2.25-1.31-1.46-.94-2.17-1.42-1.35-1.09-2.05-1.61-1.46-.94-2.13-1.48-1.29-1.17-1.94-1.73-1.35-1.09-2-1.68-1.18-1.27-1.81-1.87-1.29-1.15-1.9-1.78-1.07-1.23-1.65-1.82-1.26-1.06-1.85-1.63-1.11-1.21-1.71-1.77-1.2-1.12-1.81-1.67-1.3-1-1.93-1.53a13.21,13.21,0,0,0-2-1.37,14.61,14.61,0,0,0-2.26-1,2.82,2.82,0,0,0-2.37,0c-.47.32-.61,1-.24,2.25a8.54,8.54,0,0,0,1.06,2.39,17,17,0,0,0,1.68,2c.58.64,1.26,1.21,1.9,1.81s1.23,1.29,1.86,1.85,1.4,1.17,2,1.72c.81.79,1.57,1.59,2.32,2.41s1.45,1.67,2.17,2.54c.41.5.93,1.08,1.41,1.67a4.46,4.46,0,0,1,1,1.9,1.49,1.49,0,0,1-1.43,1.95,8.11,8.11,0,0,1-2.82-.17,11.81,11.81,0,0,1-2.65-1,9.94,9.94,0,0,1-2.35-1.62c-.72-.64-1.45-1.28-2.17-1.9a25.81,25.81,0,0,0-2.42-1.89c-.84-.59-1.71-1.14-2.59-1.65-.61-.36-1.46-.84-2.44-1.37-.77-.42-1.6-.89-2.49-1.3a25.31,25.31,0,0,0-2.6-1.06,12.88,12.88,0,0,0-2.74-.57,5.09,5.09,0,0,0-2.71.38,3.4,3.4,0,0,0-1.72,2.07,5.6,5.6,0,0,0-.21,2.6,16.18,16.18,0,0,0,.54,2.59c.25.84.46,1.72.74,2.57s.54,1.72.73,2.56a9.12,9.12,0,0,1,.33,2.63,4.49,4.49,0,0,1-.83,2.52,5.94,5.94,0,0,1-2.14,1.58,5.29,5.29,0,0,1-2.44.58,6.74,6.74,0,0,1-2.45-.58,14.44,14.44,0,0,1-2.21-1.19c-.7-.44-1.42-.89-2.11-1.38s-1.33-1-2-1.49a15.21,15.21,0,0,0-2.26-1.47,11.86,11.86,0,0,0-2.45-1.13,3.58,3.58,0,0,0-2.65.1,6.77,6.77,0,0,0-2.07,2,12.6,12.6,0,0,0-1.43,2.53,12.75,12.75,0,0,0-.91,2.76,7.74,7.74,0,0,0,0,2.92c.12.56,1,1,2.36,1.35a25,25,0,0,0,2.76.36c.86.09,1.8.11,2.77.16s1.83.09,2.78.12,1.85.18,2.78.18,1.88-.05,2.78-.06,1.91,0,2.78,0c1,0,2-.07,2.78-.1C236.15,211.44,235.83,211.39,237.22,211.34Z"/><path class="cls-2" d="M84.89,118.67l5.82,3.45c5.6,3.33,5.87,8.11,2.51,13.76l-.06.11c-3.36,5.66-7.63,7.74-13.29,4.38l-22.41-13.3C52.08,123.86,51.6,119,55,113.31l.07-.11c3.36-5.66,7.89-7.58,13.28-4.38l4.91,2.91a1.84,1.84,0,0,1,.72,2.81L73,116a1.87,1.87,0,0,1-2.81.72l-4-2.35c-3.25-1.93-5.25-1.24-6.87,1.48s-1.26,4.81,2,6.74l20.49,12.17c3.26,1.93,5.26,1.24,6.87-1.48s1.27-4.81-2-6.74l-4.85-2.88a1.87,1.87,0,0,1-.72-2.81l.89-1.49A1.83,1.83,0,0,1,84.89,118.67Z"/><path class="cls-2" d="M117.32,106.2,116,107.47a2.07,2.07,0,0,1-2.89.26l-7-4.88-6.64,6.62,4.87,7a2,2,0,0,1-.23,2.85l-1.09,1.1a1.69,1.69,0,0,1-2.86-.31L78,86.72a2.11,2.11,0,0,1,.27-2.9l2.46-2.45a2.09,2.09,0,0,1,2.89-.26L117,103.34A1.67,1.67,0,0,1,117.32,106.2ZM102.1,100,84.6,87.82l12.14,17.52Z"/><path class="cls-2" d="M125.7,67.36l-1.39.82a1.84,1.84,0,0,1-2.81-.72l-2-3.31c-1.77-3-3.9-3.32-6.47-1.81s-3.31,3.54-1.55,6.53L113,71.44c1.33,2.24,2.6,2.57,5.46,2.54l6.44-.19c4.28-.08,7.39.54,9.5,4.12l3.05,5.19c3.31,5.61,1.35,9.72-4.32,13.06l-.11.07c-5.66,3.34-10.18,3.12-13.53-2.54l-2.71-4.6a1.83,1.83,0,0,1,.73-2.8l1.39-.82a1.83,1.83,0,0,1,2.8.72L124,89.93c1.73,2.94,4,3.43,6.58,1.88s3.28-3.73,1.54-6.67l-1.73-2.94c-1.33-2.24-2.69-2.73-5.61-2.67l-6.39.16c-4.58,0-7.35-.49-9.46-4.07l-2.77-4.7c-3.18-5.4-.8-9.91,4.33-12.93l.11-.06c5.13-3,10.23-2.94,13.41,2.46l2.46,4.17A1.83,1.83,0,0,1,125.7,67.36Z"/><path class="cls-2" d="M163.47,67l1.95,6.48c1.87,6.24-1.16,9.94-7.46,11.83l-.12,0c-6.3,1.89-10.85.54-12.75-5.76l-7.5-24.95c-1.81-6,1.16-9.94,7.45-11.84l.12,0c6.3-1.9,10.94-.25,12.75,5.75L159.55,54a1.83,1.83,0,0,1-1.37,2.55l-1.66.5A1.86,1.86,0,0,1,154,55.71l-1.32-4.4c-1.09-3.62-3-4.46-6.06-3.55s-4.19,2.68-3.1,6.31l6.87,22.81c1.09,3.63,3,4.47,6.06,3.56s4.18-2.69,3.09-6.31l-1.63-5.41a1.87,1.87,0,0,1,1.37-2.55l1.67-.5A1.84,1.84,0,0,1,163.47,67Z"/><path class="cls-2" d="M195.78,79.82l-1.79.07a2.08,2.08,0,0,1-2.31-1.77l-1.83-8.31-9.36.38-1.15,8.43a2,2,0,0,1-2.09,1.95l-1.55.06c-1.37.05-2.08-.72-1.89-2.16L180,38.84a2.12,2.12,0,0,1,2.16-2l3.47-.14A2.12,2.12,0,0,1,188,38.52l9.52,39A1.66,1.66,0,0,1,195.78,79.82Zm-7-14.87-4.63-20.81-2.94,21.11Z"/><path class="cls-2" d="M233.8,52,228.24,76.4c-1.42,6.23-5.91,8.07-12.33,6.61l-8.47-1.93a1.83,1.83,0,0,1-1.54-2.45l8.73-38.36a1.84,1.84,0,0,1,2.46-1.54l8.47,1.93C232,42.12,235.22,45.72,233.8,52Zm-9.63-6.33-4.54-1L212.28,76.9l4.54,1c3.14.72,5.13-.16,6-3.92l5.07-22.26C228.72,48,227.32,46.34,224.17,45.62Z"/><path class="cls-2" d="M235.88,89.6l-1.6-.68a1.84,1.84,0,0,1-1.08-2.69l15.5-36.16A1.84,1.84,0,0,1,251.39,49l1.59.68a1.87,1.87,0,0,1,1.08,2.69l-15.5,36.16A1.86,1.86,0,0,1,235.88,89.6Z"/><path class="cls-2" d="M262.88,105.69l-1.48-1a2.06,2.06,0,0,1-.79-2.8l3.51-7.74-7.72-5.3-6,6.06a2,2,0,0,1-2.84.3l-1.28-.87a1.68,1.68,0,0,1-.22-2.86l28.7-28a2.12,2.12,0,0,1,2.9-.27l2.86,2a2.11,2.11,0,0,1,.79,2.8l-15.71,36.92A1.66,1.66,0,0,1,262.88,105.69Zm3.3-16.1,8.75-19.43-15,15.15Z"/><path class="cls-2" d="M281.65,109.76,304.52,88.9a1.87,1.87,0,0,1,2.9.13l1.17,1.29a1.83,1.83,0,0,1-.14,2.89l-23.78,21.7c-4.86,4.43-9.55,3.16-14-1.7l-.21-.23a1.86,1.86,0,0,1,.13-2.89l.88-.79a1.86,1.86,0,0,1,2.89.13l.12.14C276.72,112,278.81,112.35,281.65,109.76Z"/><path class="cls-2" d="M315.85,127.31l-.84-1.38a1.84,1.84,0,0,1,.69-2.82l3.28-2c3-1.81,3.27-4,1.72-6.49s-3.58-3.27-6.55-1.47l-2.55,1.55c-2.22,1.35-2.53,2.63-2.46,5.49l.28,6.44c.13,4.28-.45,7.39-4,9.55l-5.15,3.12c-5.56,3.39-9.7,1.47-13.12-4.15l-.06-.1c-3.42-5.62-3.26-10.15,2.36-13.56l4.56-2.77a1.83,1.83,0,0,1,2.81.68l.84,1.38a1.83,1.83,0,0,1-.69,2.81l-3.71,2.26c-2.92,1.77-3.37,4-1.79,6.61s3.77,3.22,6.69,1.45l2.92-1.77c2.22-1.36,2.69-2.73,2.59-5.65l-.25-6.38c-.1-4.59.4-7.36,3.95-9.51l4.66-2.84c5.36-3.26,9.89-.93,13,4.16l.06.11c3.1,5.09,3.07,10.18-2.28,13.44L318.66,128A1.83,1.83,0,0,1,315.85,127.31Z"/><path class="cls-2" d="M70.14,286l-.86-1a1.81,1.81,0,0,1,.19-2.85L93.09,261.6a1.81,1.81,0,0,1,2.85.2l1.39,1.6a2.18,2.18,0,0,1,.24,2.81L86.85,284.66l15-13a1.82,1.82,0,0,1,2.85.2l.86,1a1.82,1.82,0,0,1-.2,2.85L81.72,296.23a1.81,1.81,0,0,1-2.85-.19l-1.2-1.37a2.19,2.19,0,0,1-.23-2.81L88.8,272.44,73,286.22A1.81,1.81,0,0,1,70.14,286Z"/><path class="cls-2" d="M117.67,282.76l.32.25c4.23,3.28,5.73,7.12,2.45,11.36l-13,16.77c-3.28,4.23-7.37,3.74-11.61.46l-.32-.25c-4.23-3.28-5.73-7.12-2.45-11.35l13-16.77C109.37,279,113.44,279.48,117.67,282.76ZM98.83,307.4c1.52,1.18,3,1.43,4.54-.57l11.88-15.33c1.54-2,.94-3.37-.58-4.54s-3-1.42-4.53.57L98.25,302.87C96.71,304.86,97.31,306.23,98.83,307.4Z"/><path class="cls-2" d="M143.4,301.19l-19.61,25.19a2,2,0,0,1-2.81.6l-2.43-1.25a2,2,0,0,1-1.14-2.63l9.1-30.6a1.64,1.64,0,0,1,2.61-1.1l1.66.85a2,2,0,0,1,1.08,2.66l-7.78,23.38,14.51-19.91a2,2,0,0,1,2.79-.67l1.39.71A1.65,1.65,0,0,1,143.4,301.19Z"/><path class="cls-2" d="M168.59,311.61l-13.19,26a2.06,2.06,0,0,1-2.57,1.21l-1.43-.33a1.62,1.62,0,0,1-1.21-2.57L163.31,310l-7.78-1.82a1.81,1.81,0,0,1-1.5-2.43l.2-.89a1.81,1.81,0,0,1,2.43-1.5l11.47,2.68a1.82,1.82,0,0,1,1.5,2.43l-.19.84A10,10,0,0,1,168.59,311.61Z"/><path class="cls-2" d="M183.31,324.83l-.06.71a1.81,1.81,0,0,1-2.2,1.82l-7.85-.72a1.8,1.8,0,0,1-1.82-2.2l.06-.71a1.81,1.81,0,0,1,2.2-1.82l7.85.72A1.82,1.82,0,0,1,183.31,324.83Z"/><path class="cls-2" d="M205.75,314.32l.25,4.34c.12,2.22-.22,5.12-3.12,5.74,3.11.44,3.67,4,3.78,5.91l.29,5.2c.28,4.94-2.2,7.61-7.35,7.91l-1.56.08c-5.15.29-7.91-2.08-8.19-7l-.3-5.2c-.1-1.92,0-5.52,3.09-6.3-2.95-.29-3.62-3.13-3.74-5.35l-.25-4.34c-.28-4.94,2.2-7.61,7.35-7.91l1.56-.08C202.71,307,205.47,309.38,205.75,314.32Zm-5.62.93c-.13-2.37-1.44-3.16-2.6-3.09l-1,0c-1.16.07-2.37,1-2.24,3.37l.22,3.78c.13,2.37,1.44,3.16,2.6,3.09l1-.05c1.16-.07,2.37-1,2.24-3.37Zm.85,15c-.13-2.37-1.44-3.16-2.6-3.09l-1,.05c-1.16.07-2.37,1-2.24,3.37l.28,5c.14,2.37,1.45,3.16,2.61,3.09l1-.05c1.16-.07,2.37-1,2.23-3.37Z"/><path class="cls-2" d="M221.38,335.48l.58,3a12.71,12.71,0,0,1-.85,7c-.51,1.12-1.14,1.56-2,1.3s-.87-1-.51-2.32a11.38,11.38,0,0,0,.58-3.92l-.64.13a1.83,1.83,0,0,1-2.37-1.61l-.48-2.47a1.82,1.82,0,0,1,1.6-2.37l1.68-.33A1.82,1.82,0,0,1,221.38,335.48Z"/><path class="cls-2" d="M233.36,311.35l-1.47-3.44c-2.08-4.82-.18-7.84,4.74-10l.09,0c4.93-2.12,8.42-1.42,10.49,3.41l1.64,3.81c1.75,4.09-.18,7-2,11.3-1.58,3.75-2.59,6.28-1.83,8l1.28,3,8.36-3.59a1.81,1.81,0,0,1,2.65,1.06l.32.74a1.82,1.82,0,0,1-1.06,2.66l-11.7,5a1.81,1.81,0,0,1-2.65-1l-2.44-5.67c-1.77-4.13.48-8.24,2.39-12.74,1.45-3.43,2.14-4.88,1.41-6.6l-1.36-3.16c-1-2.22-2.27-2.32-3.75-1.69s-2.22,1.62-1.27,3.85l1.24,2.88a1.81,1.81,0,0,1-1.06,2.65l-1.39.6A1.82,1.82,0,0,1,233.36,311.35Z"/><path class="cls-2" d="M266.35,289.49l11.71,17.69c2.95,4.47,1.47,8-3,10.92l-.33.22c-4.43,2.93-8.25,2.92-11.21-1.55l-11.71-17.69c-2.95-4.47-1.47-8,3-10.92l.33-.23C259.57,285,263.39,285,266.35,289.49Zm-8.53,2.85c-1.56,1-2.14,2.27-.74,4.37l10.7,16.18c1.39,2.11,2.75,2.06,4.31,1s2.14-2.26.75-4.36l-10.71-16.18C260.74,291.26,259.38,291.31,257.82,292.34Z"/><path class="cls-2" d="M293.24,303.48,292,304.56a1.81,1.81,0,0,1-2.85-.15l-19.11-21.27a1.73,1.73,0,0,1-.47-1.28,10.74,10.74,0,0,0-.39-2.7,1.87,1.87,0,0,1,.47-2.2l.15-.13a1.48,1.48,0,0,1,2.28.12l21.28,23.68A1.81,1.81,0,0,1,293.24,303.48Z"/><path class="cls-2" d="M296.34,286.15l1-1.25a1.81,1.81,0,0,1,2.84-.26l.55.46c1.86,1.55,2.88,1.28,4,0s1.18-2.37-.68-3.92l-5.59-4.66c.14,1.17.07,2.36-1.45,4.19-2.59,3.1-6,4.06-10.06.69l-6.17-5.14c-4-3.36-3.68-7-.25-11.06l.06-.08c3.43-4.11,6.89-5.11,10.93-1.75l16.62,13.85c4,3.36,3.77,6.83.34,10.95l-.06.07c-3.43,4.12-6.79,5-10.83,1.63l-1.28-1.06C295.51,288.09,295.5,287.15,296.34,286.15Zm-2.75-13.75-5.21-4.33c-1.86-1.55-3-1.17-4.07.15s-1.28,2.49.58,4l5.2,4.34c1.87,1.55,3,1.16,4.08-.16C295.14,275.28,295.37,273.89,293.59,272.4Z"/><path class="cls-2" d="M131.92,235.71h-.66a.82.82,0,0,1-.9-.9v-2.29c0-2.32-.94-3.32-3.12-3.32s-3.12,1-3.12,3.32v1.7c0,1.63.55,2.12,2.18,3l3.47,1.9c1.87,1,3.12,2.32,3.12,4.37v3.22c0,3.54-1.91,5.06-5.58,5.06h-.07c-3.67,0-5.58-1.49-5.58-5.06v-3.12a.8.8,0,0,1,.9-.9h.66a.82.82,0,0,1,.9.9v2.57c0,2.28.94,3.39,3.15,3.39s3.16-1.11,3.16-3.39v-1.94c0-1.63-.63-2.26-2.29-3.19l-3.4-1.87c-2.11-1.18-3.08-2.19-3.08-4.3V232c0-3.4,2.22-5,5.55-5h.06c3.33,0,5.55,1.59,5.55,5v2.84A.8.8,0,0,1,131.92,235.71Z"/><path class="cls-2" d="M145.64,251.51h-8.11a.8.8,0,0,1-.9-.9V228.16a.8.8,0,0,1,.9-.9h8a.8.8,0,0,1,.9.9v.45a.8.8,0,0,1-.9.9h-6.41v8.59h5.34a.8.8,0,0,1,.9.9v.42a.8.8,0,0,1-.9.9h-5.34v8.94h6.52a.8.8,0,0,1,.9.9v.45A.8.8,0,0,1,145.64,251.51Z"/><path class="cls-2" d="M160.57,251.51h-.73a.89.89,0,0,1-1-.83l-1-5.16h-6l-1,5.16a.87.87,0,0,1-1,.83h-.59c-.62,0-.93-.34-.83-1l4.78-22.46a.9.9,0,0,1,1-.79h1.31a.9.9,0,0,1,1,.79l4.85,22.46C161.51,251.17,161.19,251.51,160.57,251.51Zm-3.19-8.17-2.53-12.62-2.53,12.62Z"/><path class="cls-2" d="M174,228.16v.45a.82.82,0,0,1-.9.9h-3.53v21.1a.8.8,0,0,1-.9.9H168a.82.82,0,0,1-.9-.9v-21.1h-3.5a.8.8,0,0,1-.9-.9v-.45a.8.8,0,0,1,.9-.9h9.53A.82.82,0,0,1,174,228.16Z"/><path class="cls-2" d="M186.14,228.16v.45a.82.82,0,0,1-.9.9H181.7v21.1a.8.8,0,0,1-.9.9h-.69a.82.82,0,0,1-.9-.9v-21.1h-3.5a.8.8,0,0,1-.9-.9v-.45a.8.8,0,0,1,.9-.9h9.53A.82.82,0,0,1,186.14,228.16Z"/><path class="cls-2" d="M198.06,250.13v.48a.8.8,0,0,1-.9.9h-7.59a.8.8,0,0,1-.9-.9V228.16a.8.8,0,0,1,.9-.9h.66a.83.83,0,0,1,.93.9v21.07h6A.82.82,0,0,1,198.06,250.13Z"/><path class="cls-2" d="M209.84,251.51h-8.11a.8.8,0,0,1-.9-.9V228.16a.8.8,0,0,1,.9-.9h8a.8.8,0,0,1,.9.9v.45a.8.8,0,0,1-.9.9h-6.41v8.59h5.34a.8.8,0,0,1,.9.9v.42a.8.8,0,0,1-.9.9h-5.34v8.94h6.52a.81.81,0,0,1,.9.9v.45A.81.81,0,0,1,209.84,251.51Z"/><path class="cls-2" d="M215.93,249.33v1.39a9.48,9.48,0,0,1-1,4.33c-.27.48-.62.62-.93.48s-.35-.52-.11-1.07a9.13,9.13,0,0,0,.7-3h-.28a.8.8,0,0,1-.9-.9v-1.28a.8.8,0,0,1,.9-.9H215A.8.8,0,0,1,215.93,249.33Z"/><path class="cls-2" d="M244.41,228.23l-3.74,22.45a.92.92,0,0,1-1,.83H239a.94.94,0,0,1-1-.79l-3.74-18.65-3.78,18.65a.87.87,0,0,1-1,.79h-.8a.92.92,0,0,1-1-.83L224,228.23c-.11-.63.21-1,.83-1h.66a.92.92,0,0,1,1,.86l2.81,18.68,3.67-18.75a.94.94,0,0,1,1-.79h.7a.94.94,0,0,1,1,.79l3.68,18.75,2.8-18.68a.9.9,0,0,1,.94-.86h.55C244.21,227.26,244.52,227.6,244.41,228.23Z"/><path class="cls-2" d="M258.31,251.51h-.73a.89.89,0,0,1-1-.83l-1-5.16h-6l-1,5.16a.88.88,0,0,1-1,.83H247c-.63,0-.94-.34-.83-1L251,228.05a.9.9,0,0,1,1-.79h1.32a.91.91,0,0,1,1,.79l4.85,22.46C259.24,251.17,258.93,251.51,258.31,251.51Zm-3.19-8.17-2.53-12.62-2.53,12.62Z"/></svg>