<svg id="Layer_1" data-name="Layer 1" xmlns="http://www.w3.org/2000/svg" width="80" height="80" viewBox="0 0 80 80"><defs><style>.cls-1{fill:#fff;}.cls-2,.cls-4{fill:#020800;}.cls-2{opacity:0.7;}.cls-3{fill:none;}</style></defs><title>plaid-pattern</title><rect class="cls-1" width="80" height="80"/><rect class="cls-2" width="80" height="80"/><rect class="cls-3" width="80" height="80"/><rect class="cls-4" y="40" width="40" height="40"/><path class="cls-4" d="M3,40c.28-.3.54-.63.83-.92L39,3.91c.36-.37.69-.78,1-1.17V5a8.54,8.54,0,0,0-1,.73q-16.53,16.5-33,33A14,14,0,0,0,5,40Z"/><path class="cls-4" d="M0,38.85c1.22-1.18,2.46-2.36,3.67-3.56Q20.83,18.17,38,1a12.44,12.44,0,0,0,.87-1H40V.91Q33.72,7.15,27.45,13.4,14.35,26.46,1.28,39.57c-.13.13-.24.28-.37.42H0Z"/><path class="cls-4" d="M0,35c.26-.22.53-.43.77-.66L34.39.69C34.6.47,34.77.23,35,0H36.8a4.68,4.68,0,0,1-.45.62Q19.3,17.69,2.23,34.73C1.52,35.45.75,36.11,0,36.8Z"/><path class="cls-4" d="M6.86,40c.25-.28.48-.58.75-.85q15.84-15.85,31.7-31.7c.21-.21.46-.39.68-.58V8.68L8.68,40Z"/><path class="cls-4" d="M0,31.08c.23-.19.48-.36.69-.57L30.51.69c.21-.21.38-.46.57-.69h1.83a9.76,9.76,0,0,1-.69.87Q16.55,16.55.87,32.21a9.86,9.86,0,0,1-.87.7Z"/><path class="cls-4" d="M40,12.57,12.57,40H10.74c.17-.2.32-.42.5-.6Q25.31,25.31,39.39,11.24c.18-.18.4-.33.6-.5Z"/><path class="cls-4" d="M0,27.2a7.37,7.37,0,0,0,.61-.5Q13.66,13.67,26.7.61A7.37,7.37,0,0,0,27.2,0H29a8,8,0,0,1-.67.87L.87,28.35A8,8,0,0,1,0,29Z"/><path class="cls-4" d="M40,16.46,16.46,40H14.63c1.67-1.7,3.33-3.42,5-5.12q9.7-9.72,19.43-19.42c.29-.29.62-.55.92-.82Z"/><path class="cls-4" d="M25.14,0c-.9,1-1.77,2-2.7,2.89Q11.71,13.65,1,24.38a8.79,8.79,0,0,1-.95.76V23.31a2.4,2.4,0,0,0,.37-.25Q9.55,13.91,18.71,4.74c1.56-1.56,3.07-3.16,4.6-4.74Z"/><path class="cls-4" d="M19.43,0h2.05L0,21.48V19.43a5.94,5.94,0,0,0,.61-.49L18.94.61A5.94,5.94,0,0,0,19.43,0Z"/><path class="cls-4" d="M40,20.34,20.34,40H18.51a7.22,7.22,0,0,1,.5-.6L39.39,19a7.22,7.22,0,0,1,.6-.5Z"/><path class="cls-4" d="M22.4,40c1.47-1.51,2.94-3,4.43-4.54q6.31-6.33,12.64-12.64c.16-.15.35-.28.52-.41v1.83L24.23,40Z"/><path class="cls-4" d="M17.37,0c-.66.72-1.3,1.46-2,2.15Q8,9.5.7,16.83a7.63,7.63,0,0,1-.7.54V15.54c.28-.25.58-.48.85-.74L13.19,2.46C14,1.65,14.76.82,15.54,0Z"/><path class="cls-4" d="M26.28,40Q31.5,34.74,36.7,29.47c1.11-1.12,2.2-2.28,3.29-3.42v2.29a5,5,0,0,0-.71.49L28.83,39.28a5,5,0,0,0-.49.71Z"/><path class="cls-4" d="M13.48,0a1.52,1.52,0,0,1-.2.38L.38,13.28a1.52,1.52,0,0,1-.38.2V11.66c1.33-1.3,2.68-2.57,4-3.89C6.55,5.19,9.1,2.59,11.66,0Z"/><path class="cls-4" d="M30.17,40,40,30.17V32l-8,8Z"/><path class="cls-4" d="M9.6,0c-.39.45-.75.93-1.17,1.35Q4.7,5.1,1,8.82A11.94,11.94,0,0,1,0,9.6V7.77L7.77,0Z"/><path class="cls-4" d="M34.05,40,40,34.05v1.83L35.88,40Z"/><path class="cls-4" d="M5.71,0,0,5.71V3.89L3.89,0Z"/><path class="cls-4" d="M37.94,40,40,37.94V40Z"/><path class="cls-4" d="M1.83,0,0,1.83V0Z"/><path class="cls-4" d="M43,80c.27-.31.54-.63.83-.92L79,43.91c.37-.37.7-.77,1-1.16V45a9.8,9.8,0,0,0-1,.74q-16.53,16.5-33,33c-.36.37-.65.81-1,1.21Z"/><path class="cls-4" d="M40,78.86c1.22-1.19,2.46-2.36,3.66-3.56L78,41c.32-.32.59-.69.88-1H80v.91Q73.73,47.16,67.45,53.4L41.29,79.57c-.13.13-.25.29-.37.43H40Z"/><path class="cls-4" d="M40,75c.25-.22.52-.42.76-.66L74.39,40.69c.21-.21.39-.46.58-.68H76.8a5.44,5.44,0,0,1-.45.62L42.24,74.74c-.72.71-1.49,1.37-2.23,2.06Z"/><path class="cls-4" d="M46.86,80c.25-.29.48-.59.75-.85q15.86-15.86,31.71-31.7c.21-.22.45-.39.68-.59v1.83L48.69,80Z"/><path class="cls-4" d="M40,71.09c.23-.19.47-.37.68-.58q14.93-14.9,29.82-29.82c.21-.21.39-.45.58-.68h1.83a9.72,9.72,0,0,1-.7.86Q56.56,56.56,40.88,72.22c-.26.26-.58.46-.87.7Z"/><path class="cls-4" d="M80,52.57,52.57,80H50.75a7,7,0,0,1,.5-.61L79.39,51.25a7,7,0,0,1,.61-.5Z"/><path class="cls-4" d="M40,67.2c.2-.16.42-.31.61-.49L66.71,40.62c.18-.19.33-.41.49-.61H69a8.14,8.14,0,0,1-.68.87Q54.63,54.62,40.88,68.35A8.14,8.14,0,0,1,40,69Z"/><path class="cls-4" d="M80,56.46,56.46,80H54.63c1.67-1.71,3.33-3.43,5-5.12L79.07,55.46c.3-.3.62-.55.93-.83Z"/><path class="cls-4" d="M65.14,40c-.89,1-1.76,2-2.69,2.89L41,64.39c-.29.28-.64.5-1,.75V63.32a3.27,3.27,0,0,0,.36-.25L58.72,44.75c1.55-1.56,3.06-3.16,4.6-4.74Z"/><path class="cls-4" d="M59.43,40h2.06L40,61.49V59.43c.2-.16.42-.3.61-.48L59,40.62C59.13,40.43,59.27,40.21,59.43,40Z"/><path class="cls-4" d="M80,60.35,60.35,80H58.52c.16-.2.31-.42.49-.61L79.39,59c.19-.18.41-.33.61-.49Z"/><path class="cls-4" d="M62.4,80c1.48-1.52,2.94-3,4.44-4.55q6.3-6.33,12.63-12.63A5.43,5.43,0,0,1,80,62.4v1.83L64.23,80Z"/><path class="cls-4" d="M57.37,40c-.66.71-1.3,1.45-2,2.15q-7.32,7.35-14.67,14.67a7.25,7.25,0,0,1-.7.54V55.55c.28-.25.58-.48.84-.75Q47,48.64,53.19,42.46c.8-.8,1.57-1.64,2.36-2.45Z"/><path class="cls-4" d="M66.29,80,76.71,69.48c1.11-1.13,2.19-2.28,3.29-3.42v2.28a5.24,5.24,0,0,0-.71.49q-5.24,5.22-10.46,10.46a5.24,5.24,0,0,0-.49.71Z"/><path class="cls-4" d="M53.49,40a1.76,1.76,0,0,1-.21.38L40.39,53.28a1.76,1.76,0,0,1-.38.21V51.66c1.33-1.29,2.67-2.57,4-3.88,2.57-2.58,5.12-5.18,7.67-7.77Z"/><path class="cls-4" d="M70.17,80,80,70.17V72l-8,8Z"/><path class="cls-4" d="M49.6,40c-.39.45-.75.92-1.17,1.34-2.48,2.5-5,5-7.47,7.48a11.42,11.42,0,0,1-1,.77V47.78L47.78,40Z"/><path class="cls-4" d="M74.06,80,80,74.06v1.83L75.89,80Z"/><path class="cls-4" d="M45.72,40,40,45.72V43.89L43.89,40Z"/><path class="cls-4" d="M77.94,80,80,77.94V80Z"/><path class="cls-4" d="M41.83,40,40,41.83V40Z"/></svg>