<svg id="Layer_1" data-name="Layer 1" xmlns="http://www.w3.org/2000/svg" width="850" height="510" viewBox="0 0 850 510"><defs><style>.cls-1{fill:#252f3e;}.cls-2{fill:#f90;fill-rule:evenodd;}</style></defs><title>aws</title><path class="cls-1" d="M241.7,185.32q0,15.66,3.18,24.93a129.64,129.64,0,0,0,9,20.05,12.94,12.94,0,0,1,2,6.35c0,2.93-1.79,5.71-5.37,8.31l-17.6,11.73a14,14,0,0,1-7.33,2.44c-2.93,0-5.71-1.29-8.31-3.91a63.59,63.59,0,0,1-10-12.95q-4.16-7.08-8.56-16.37-32.75,38.61-82.12,38.61-35.19,0-55.72-20T40.31,190.7q0-35.67,25.42-57.43t68.43-21.75a210.05,210.05,0,0,1,29.57,2.19q15.41,2.21,32,6.11V99.3q0-31.77-13.2-44.73t-45.46-13A129.82,129.82,0,0,0,107,45.28,216,216,0,0,0,77,54.81a75.71,75.71,0,0,1-9.78,3.67,19.89,19.89,0,0,1-4.39.73q-5.88,0-5.87-8.8V36.73q0-6.84,2-9.78C60.18,25,62.8,23,66.71,21.09Q81.37,13.76,101.9,8.38A170.82,170.82,0,0,1,145.4,3q49.86,0,73.08,22.73T241.7,94.41ZM128.29,227.85a89.92,89.92,0,0,0,28.84-5.13,61,61,0,0,0,26.4-17.84A44,44,0,0,0,193.06,187a94.45,94.45,0,0,0,2.69-24.19V151.11a238.42,238.42,0,0,0-25.66-4.64,207.33,207.33,0,0,0-26.15-1.71q-27.87,0-41.55,11.24T88.7,188.26q0,19.56,10.27,29.57T128.29,227.85Zm224.37,30.31q-7.34,0-10.76-2.69t-5.86-11l-65.5-216q-2.46-8.31-2.45-11.24,0-6.84,6.85-6.85h27.37q7.81,0,11,2.69t5.62,11l46.93,184.77L409.36,24q2-8.31,5.38-11T426,10.33h22.48q7.82,0,11.25,2.69c2.27,1.8,4.07,5.46,5.37,11l44,187.21L557.47,24q2.43-8.31,5.62-11t11-2.69H600q6.84,0,6.85,6.85a23,23,0,0,1-.49,4.39,61.31,61.31,0,0,1-2,6.85L536.94,244.47q-2.46,8.33-5.87,11t-10.75,2.69h-24q-7.83,0-11.25-2.94c-2.28-1.95-4.08-5.69-5.37-11.24L436.24,64.1,393.23,244q-2,8.33-5.38,11.24t-11.24,2.94Zm358.78,7.33a189.1,189.1,0,0,1-43-4.89q-21-4.87-32.27-11.24-6.84-3.9-8.55-7.82a19.21,19.21,0,0,1-1.71-7.82V219.54q0-8.79,6.36-8.8a15.12,15.12,0,0,1,5.13,1c1.78.66,4.15,1.63,7.09,2.93a147.5,147.5,0,0,0,30.79,9.78,164.45,164.45,0,0,0,33.24,3.42q26.4,0,40.81-9.29t14.42-26.39q0-11.73-7.57-19.55T728.06,158l-40.57-12.71q-30.79-9.77-44.73-28.35T628.83,76.32q0-17.59,7.58-31a75,75,0,0,1,20-23A88.32,88.32,0,0,1,685.53,7.89,124.44,124.44,0,0,1,720.73,3a148.84,148.84,0,0,1,18.82,1.22q9.53,1.23,18.08,3.18t15.89,4.4a70.71,70.71,0,0,1,11.73,4.89q5.87,3.42,8.31,6.84T796,32.82V46c0,5.87-2.13,8.8-6.36,8.8-2.28,0-5.86-1.13-10.75-3.42q-24-10.74-53.77-10.75-24,0-37.15,7.82t-13.2,24.93a26.53,26.53,0,0,0,8.31,19.8q8.31,8.06,30.8,15.39l39.59,12.71q30.3,9.78,43.26,26.89a63.1,63.1,0,0,1,13,39.1q0,18.09-7.33,32.51a74.07,74.07,0,0,1-20.29,24.68,91.13,91.13,0,0,1-31,15.64A138.62,138.62,0,0,1,711.44,265.49Z"/><path class="cls-2" d="M764.27,403c-92,67.87-225.29,104-340.1,104-160.9,0-305.8-59.48-415.45-158.48-8.61-7.78-.93-18.4,9.42-12.38,118.3,68.84,264.59,110.3,415.69,110.3,101.93,0,214-21.15,317.07-64.88C766.45,375,779.48,391.8,764.27,403Z"/><path class="cls-2" d="M802.54,359.35c-11.77-15.06-77.75-7.14-107.4-3.58-9,1.07-10.37-6.78-2.28-12.46,52.65-37,138.9-26.3,148.93-13.91s-2.66,99-52,140.23c-7.59,6.34-14.8,3-11.44-5.42C789.46,436.49,814.31,374.42,802.54,359.35Z"/></svg>