<svg id="Laag_1" data-name="Laag 1" xmlns="http://www.w3.org/2000/svg" width="850" height="179.26" viewBox="0 0 850 179.26"><defs><style>.cls-1{fill:#fff;}.cls-2{fill:#6ab42d;}.cls-3{fill:#212b30;}</style></defs><title>codezilla</title><polygon class="cls-1" points="416.63 55.04 429.47 67.32 436.72 60.06 467.99 91.31 437.28 121.99 428.35 113.06 415.51 125.89 436.17 146.54 491.44 90.75 436.3 35.65 436.03 35.65 416.63 55.04"/><path class="cls-2" d="M520.33,89.63Z"/><path class="cls-2" d="M513.21,72.34,476.83,35.65,452.36,11c-9.49-9.48-25.13-9.48-34.06,0L393.83,35.65l-5.15,5.19-31.23,31.5a24.57,24.57,0,0,0,0,34.59l31.23,31.5,28.53,28.77,1.09,1.09c9.49,9.49,25.12,9.49,34.06,0l1.08-1.09,59.77-60.27a24.4,24.4,0,0,0,7.12-17.3h0A24.38,24.38,0,0,0,513.21,72.34Zm-77,74.2-20.66-20.65,12.84-12.83,8.93,8.93L468,91.31,436.72,60.06l-7.25,7.26L416.63,55,436,35.65l.14-.13.13.13,55.14,55.1Z"/><polygon class="cls-3" points="663.39 47.23 648.87 47.23 648.87 132.03 701.35 132.03 701.35 119.2 663.39 119.2 663.39 47.23"/><rect class="cls-3" x="620.4" y="47.23" width="14.52" height="84.8"/><polygon class="cls-3" points="725.36 47.23 711.4 47.23 711.4 132.03 756.62 132.03 763.88 119.2 725.36 119.2 725.36 47.23"/><polygon class="cls-3" points="607 47.79 607 47.23 548.94 47.23 548.94 60.06 585.23 60.06 546.71 131.47 546.71 132.03 608.67 132.03 608.67 119.2 569.04 119.2 607 47.79"/><polygon class="cls-3" points="806.31 45.56 767.23 132.03 782.3 132.03 789 116.41 789 116.41 806.87 75.13 824.17 116.41 824.17 116.41 830.87 132.03 846.5 132.03 806.31 45.56"/><path class="cls-3" d="M124.64,45.56c-24.56,0-42.42,18.41-42.42,44.07,0,25.11,17.86,44.08,42.42,44.08s43-18.42,43-44.08C167.07,64.53,149.21,45.56,124.64,45.56Zm0,74.76c-16.74,0-28.47-12.84-28.47-30.69S107.9,59,124.64,59s28.48,12.83,28.48,30.68C152.56,107.48,140.83,120.32,124.64,120.32Z"/><path class="cls-3" d="M45.93,120.32C29.18,120.32,18,107.48,18,89.63S29.18,59,45.93,59a27.22,27.22,0,0,1,21.21,9.48l8.93-10C68.26,50,59.33,45.56,45.93,45.56c-24.57,0-42.43,19-42.43,44.07s17.86,44.08,42.43,44.08c12.84,0,22.89-3.91,30.7-12.84l-8.93-10.6A28.84,28.84,0,0,1,45.93,120.32Z"/><path class="cls-3" d="M206.15,47.23H179.91V132h26.24c29,0,45.78-15.62,45.78-42.4S234.63,47.23,206.15,47.23Zm0,71.41H195v-58h11.16c20.1,0,31.27,10.6,31.27,29S226.25,118.64,206.15,118.64Z"/><polygon class="cls-3" points="279.29 118.64 279.29 95.21 312.79 95.21 312.79 82.38 279.29 82.38 279.29 60.62 317.81 60.62 317.81 47.23 264.77 47.23 264.77 132.03 318.93 132.03 318.93 118.64 279.29 118.64"/></svg>