<svg id="Layer_1" data-name="Layer 1" xmlns="http://www.w3.org/2000/svg" width="850" height="186.19" viewBox="0 0 850 186.19"><defs><style>.cls-1{fill-rule:evenodd;}</style></defs><title>docusign</title><path class="cls-1" d="M61.55,123.82c27.58,0,38.33-16.83,38.33-45.63S87.31,29.3,62.37,29.3h-28v94.52ZM5,4.15H66c38.73,0,63.68,31.24,63.68,74,0,23.52-7.91,44.21-23.12,57-10.75,8.93-24.74,14-43,14H5V4.15Z"/><path class="cls-1" d="M213.68,97.25c0-20.28-9.53-34.07-26.36-34.07C170.28,63.18,161,77,161,97.25s9.32,33.88,26.36,33.88c16.83,0,26.36-13.59,26.36-33.88m-80.71,0c0-31,22.1-55,54.35-55s54.34,23.93,54.34,55-22.1,55-54.34,55S133,128.29,133,97.25"/><path class="cls-1" d="M246.22,97.25c0-31,20.28-55,51.92-55,27,0,43.6,15.62,47.25,38.13h-27c-1.83-9.13-8.93-16-19.06-16-16.63,0-25.15,12.77-25.15,32.86,0,19.67,7.91,32.86,24.74,32.86,11.15,0,19.06-5.89,20.89-17.65H346.4c-1.82,22.11-19.06,39.75-46.84,39.75-32.85,0-53.34-23.93-53.34-55"/><path class="cls-1" d="M418.21,149.18V137h-.61c-7.1,9.53-15.21,15-29.81,15-23.12,0-36.1-14.81-36.1-37.52V45.12h27.38v64.71c0,12.17,5.47,18.86,17.24,18.86,13,0,20.88-9.73,20.88-23.53v-60h27.58V149.18Z"/><path class="cls-1" d="M579.13,149.18h27.58v-104H579.13Zm0-118.6h27.58V4.79H579.13Z"/><path class="cls-1" d="M691,92.59c0-15.21-8.11-28.2-24.74-28.2-14,0-23.32,11-23.32,28.4,0,17.65,9.33,28,23.52,28C683.85,120.78,691,108,691,92.59m-72.8,59.63h27.38c2.23,6.49,8.11,11.56,20.88,11.56,15.62,0,23.12-7.5,23.12-21.7V130.72h-.61c-6.08,6.9-14,12.17-27.17,12.17-23.12,0-45.83-18.26-45.83-49.69,0-31,18.66-50.92,45-50.92,13,0,22.51,5.07,28.79,13.8h.41v-11H716.7v96.15c0,14.6-4.66,24.54-12.37,31.64-8.72,8.11-22.1,11.76-37.51,11.76-28.39,0-45.83-12.17-48.67-32.45"/><path class="cls-1" d="M755.5,59.32h.61c7.1-11.15,16.63-17,30.82-17,21.5,0,35.89,16.23,35.89,39v68H795.25V85.29c0-11.16-6.49-19.07-18-19.07-12.17,0-21.09,9.73-21.09,23.93v59H728.53V45.12h27v14.2Z"/><path class="cls-1" d="M516.29,61.76c-21.5-4.67-31.64-8.11-31.64-19.88,0-10.34,10.35-17,26.16-17,14.44,0,25.47,6.78,27.73,20.29h28.29C564,17,543.05,1.52,511,1.52c-32.25,0-55.57,14.8-55.57,43.4,0,30.23,23.73,37.12,49.69,43C527.24,93,541,95.83,541,110c0,13.39-13.18,18.66-28.19,18.66-20.68,0-30.62-6.89-32.65-24.34H451.4c1,30.63,23.32,48.07,62.66,48.07,32.65,0,56.37-16.42,56.37-45.84,0-31.23-24.33-38.33-54.14-44.82"/><path class="cls-1" d="M834,44.12a9.26,9.26,0,1,0,9.25,9.25A9.26,9.26,0,0,0,834,44.12m0,20.23a11,11,0,1,1,11-11,11,11,0,0,1-11,11"/><path class="cls-1" d="M832.32,49.54v3.51h.73c.72,0,1,0,1.39,0a1.74,1.74,0,0,0,2-1.73,1.62,1.62,0,0,0-.89-1.51,5.23,5.23,0,0,0-2.23-.24Zm-2.08-1.81h3.58c1.49,0,2.49,0,3.47.81a3.41,3.41,0,0,1,1.25,2.76,3.08,3.08,0,0,1-2.21,3.09L838.82,59h-2.4l-2.22-4.16h-1.88V59h-2.08V47.73Z"/></svg>