<svg id="Layer_1" data-name="Layer 1" xmlns="http://www.w3.org/2000/svg" width="850" height="850" viewBox="0 0 850 850"><defs><style>.cls-1{fill:#1877f2;}.cls-2{fill:#fff;}</style></defs><title>facebook</title><path class="cls-1" d="M845,425C845,193,657,5,425,5S5,193,5,425C5,634.63,158.59,808.39,359.38,839.9V546.41H252.73V425H359.38V332.47c0-105.26,62.7-163.41,158.63-163.41,46,0,94,8.21,94,8.21V280.63h-53c-52.17,0-68.44,32.37-68.44,65.58V425H607.11L588.49,546.41H490.63V839.9C691.41,808.39,845,634.63,845,425Z"/><path class="cls-2" d="M588.49,546.41,607.11,425H490.63V346.21c0-33.21,16.27-65.58,68.44-65.58h53V177.27s-48.06-8.21-94-8.21c-95.93,0-158.63,58.15-158.63,163.41V425H252.73V546.41H359.38V839.9a424.77,424.77,0,0,0,131.25,0V546.41Z"/></svg>