<svg xmlns="http://www.w3.org/2000/svg" viewBox="0 0 255.78 81.99"><defs><style>.cls-1{fill:#203146;}.cls-2{fill:#2a549a;}.cls-3{fill:#00ceff;}</style></defs><title>Asset 3</title><g id="Layer_2" data-name="Layer 2"><g id="Layer_1-2" data-name="Layer 1"><path class="cls-1" d="M96.8,36.14V14.6h10.9v2.26H99.58v7.5H107v2.26H99.58v9.51Z"/><path class="cls-1" d="M121.58,36.14h-2.3l-.16-1.33A9.54,9.54,0,0,1,114,36.46c-3.43,0-4.79-2-4.79-5,0-3.17,1.58-4.82,5-4.82a12.34,12.34,0,0,1,4.66.91V25.08c0-2.07-.65-2.94-3-2.94a15,15,0,0,0-4.27.61l-.42-2.23a17.47,17.47,0,0,1,5-.74c3.72,0,5.47,1.62,5.47,5.14Zm-2.72-6.76a15.47,15.47,0,0,0-4.27-.68c-2.17,0-2.72,1-2.72,2.81,0,2,.65,2.91,2.52,2.91a8.19,8.19,0,0,0,4.46-1.36Z"/><path class="cls-1" d="M135.42,20.45l-.36,2.1a12.21,12.21,0,0,0-3.4-.58c-3.62,0-3.91,2.36-3.91,6.15s.29,6.15,3.91,6.15a12.21,12.21,0,0,0,3.4-.58l.36,2.1a11.36,11.36,0,0,1-3.82.68c-5.24,0-6.57-3.4-6.57-8.35s1.33-8.34,6.57-8.34A11.36,11.36,0,0,1,135.42,20.45Z"/><path class="cls-1" d="M140.66,29.31c.16,3.4,1,5,4.27,5a13.62,13.62,0,0,0,4.72-.91l.42,2.07a15,15,0,0,1-5.18,1c-5.79,0-7-3.95-7-8.44s1.52-8.25,6.44-8.25c4.37,0,6.18,3.07,6.18,6.92v2.62Zm0-2.13h7.28V26.6c0-3-.94-4.79-3.59-4.79C141.34,21.81,140.69,24,140.66,27.18Z"/><path class="cls-1" d="M161.3,36.46a5.91,5.91,0,0,1-4.4-1.94l-.23,1.62h-2.3V13.3h2.72v8.09a5.9,5.9,0,0,1,4-1.65c4.53,0,6.15,3.36,6.15,8.38C167.25,32.81,165.89,36.46,161.3,36.46Zm-4.21-3.78a5.85,5.85,0,0,0,3.78,1.59c3.07,0,3.66-2.39,3.66-6.11,0-3.56-.68-6.21-3.79-6.21a5.45,5.45,0,0,0-3.65,1.42Z"/><path class="cls-1" d="M176.79,36.46c-4.66,0-6.76-3.49-6.76-8.35s2.1-8.34,6.76-8.34,6.76,3.49,6.76,8.34S181.45,36.46,176.79,36.46Zm0-14.49c-3.36,0-4,2.75-4,6.15s.68,6.15,4,6.15,4-2.75,4-6.15S180.16,22,176.79,22Z"/><path class="cls-1" d="M193,36.46c-4.66,0-6.76-3.49-6.76-8.35s2.1-8.34,6.76-8.34,6.76,3.49,6.76,8.34S197.69,36.46,193,36.46ZM193,22c-3.36,0-4,2.75-4,6.15s.68,6.15,4,6.15,4-2.75,4-6.15S196.39,22,193,22Z"/><path class="cls-1" d="M203.57,36.14V13.3h2.72V27.5l5.6-7.41h3.17L208.91,28l6.41,8.12h-3.2l-5.82-7.6v7.6Z"/><path class="cls-1" d="M95.51,56.16c0-6.53,2.17-11.16,8.34-11.16s8.35,4.63,8.35,11.16S110,67.32,103.86,67.32,95.51,62.69,95.51,56.16Zm8.34-8.89c-4.59,0-5.56,3.46-5.56,8.89s1,8.9,5.56,8.9,5.56-3.46,5.56-8.9S108.45,47.26,103.86,47.26Z"/><path class="cls-1" d="M123,67.28A6.7,6.7,0,0,1,119,66v6.79h-2.72V50.88h2.3l.23,1.62a5.65,5.65,0,0,1,4.4-1.94c4.72,0,6,3.82,6,8.34C129.12,64,127.44,67.28,123,67.28Zm-4-3.46a5.92,5.92,0,0,0,3.62,1.26c3.14,0,3.82-2.46,3.82-6.21s-.58-6.11-3.62-6.11A5.75,5.75,0,0,0,119,54.35Z"/><path class="cls-1" d="M134.55,60.1c.16,3.4,1,5,4.27,5a13.62,13.62,0,0,0,4.72-.91l.42,2.07a15,15,0,0,1-5.18,1c-5.79,0-7-3.95-7-8.44s1.52-8.25,6.44-8.25c4.37,0,6.18,3.07,6.18,6.92V60.1Zm0-2.13h7.28v-.58c0-3-.94-4.79-3.59-4.79C135.23,52.6,134.58,54.77,134.55,58Z"/><path class="cls-1" d="M157.71,66.93V55.25c0-1.46-.61-2.2-2.2-2.2A11.67,11.67,0,0,0,151,54.12V66.93h-2.72v-16h2.2l.23,1.42a10.27,10.27,0,0,1,5.5-1.75c2.75,0,4.24,1.55,4.24,4.4v12Z"/><path class="cls-1" d="M177.22,67.32a16.52,16.52,0,0,1-6-1.13l.45-2.23a14.66,14.66,0,0,0,5.4,1.13c3,0,4.43-1.07,4.43-3.53s-1.16-3.4-4.5-4.4c-3.95-1.2-6-2.49-6-6.21,0-4,2.1-6,6.73-6a13.87,13.87,0,0,1,5.21.94l-.45,2.17a14.72,14.72,0,0,0-4.66-.87c-3.2,0-4.08,1.1-4.08,3.56s.81,2.88,3.85,3.91c4,1.36,6.6,2.36,6.6,6.5S181.49,67.32,177.22,67.32Z"/><path class="cls-1" d="M193.71,67.25c-4.66,0-6.76-3.49-6.76-8.35s2.1-8.34,6.76-8.34,6.76,3.49,6.76,8.34S198.37,67.25,193.71,67.25Zm0-14.49c-3.36,0-4,2.75-4,6.15s.68,6.15,4,6.15,4-2.75,4-6.15S197.08,52.76,193.71,52.76Z"/><path class="cls-1" d="M206.81,50.88V62.56c0,1.46.61,2.2,2.2,2.2a11.14,11.14,0,0,0,4.4-1.07V50.88h2.72v16h-2.2l-.23-1.42a9.9,9.9,0,0,1-5.37,1.75c-2.75,0-4.24-1.55-4.24-4.4v-12Z"/><path class="cls-1" d="M228.71,53.15a19.4,19.4,0,0,0-5,1.68v12.1H221v-16h2.23l.29,1.88a8.16,8.16,0,0,1,4.85-2.1Z"/><path class="cls-1" d="M240.65,51.24l-.36,2.1a12.21,12.21,0,0,0-3.4-.58c-3.62,0-3.91,2.36-3.91,6.15s.29,6.15,3.91,6.15a12.21,12.21,0,0,0,3.4-.58l.36,2.1a11.36,11.36,0,0,1-3.82.68c-5.24,0-6.57-3.4-6.57-8.35s1.33-8.34,6.57-8.34A11.36,11.36,0,0,1,240.65,51.24Z"/><path class="cls-1" d="M245.89,60.1c.16,3.4,1,5,4.27,5a13.62,13.62,0,0,0,4.72-.91l.42,2.07a15,15,0,0,1-5.18,1c-5.79,0-7-3.95-7-8.44s1.52-8.25,6.44-8.25c4.37,0,6.18,3.07,6.18,6.92V60.1Zm0-2.13h7.28v-.58c0-3-.94-4.79-3.59-4.79C246.57,52.6,245.92,54.77,245.89,58Z"/><path class="cls-1" d="M35.5,82,0,61.49v-41L35.5,0,71,20.5v41ZM3.73,59.34,35.5,77.69,67.28,59.34V22.65L35.5,4.3,3.73,22.65Z"/><path class="cls-2" d="M35.5,64.83a9.83,9.83,0,0,1-4.84-1.18L18.29,56.51a10.55,10.55,0,0,1-4.84-8.38V33.85a10.55,10.55,0,0,1,4.84-8.38l12.37-7.14a10.51,10.51,0,0,1,9.68,0l12.37,7.14a10.55,10.55,0,0,1,4.84,8.38V48.13a10.55,10.55,0,0,1-4.84,8.38L40.34,63.65A9.82,9.82,0,0,1,35.5,64.83Zm0-44a6.17,6.17,0,0,0-3,.68L20.16,28.69a6.8,6.8,0,0,0-3,5.16V48.13a6.8,6.8,0,0,0,3,5.16l12.37,7.14a7.15,7.15,0,0,0,6,0l12.37-7.14a6.8,6.8,0,0,0,3-5.16V33.85a6.8,6.8,0,0,0-3-5.16L38.48,21.55A6.17,6.17,0,0,0,35.5,20.87Z"/><path class="cls-3" d="M35.5,50.8A9.79,9.79,0,1,1,45.29,41,9.8,9.8,0,0,1,35.5,50.8Zm0-15.85A6.06,6.06,0,1,0,41.56,41,6.07,6.07,0,0,0,35.5,34.95Z"/></g></g></svg>