<svg id="Layer_1" data-name="Layer 1" xmlns="http://www.w3.org/2000/svg" width="200" height="74.79" viewBox="0 0 200 74.79"><defs><style>.cls-1{fill:#fff;}</style></defs><title>fizbuz-white</title><path class="cls-1" d="M31,23.9v7.92h-21V45h16v7.78h-16V74.15H0V23.9Z"/><path class="cls-1" d="M61.86,65.87H79.64v8.28H50.41V66L67.83,42.54H50.49V34.27H79.42V42.4Z"/><path class="cls-1" d="M99.26,35.42a16.48,16.48,0,0,1,7.81-1.8,17.46,17.46,0,0,1,9.25,2.52,17.7,17.7,0,0,1,6.55,7.16,23.12,23.12,0,0,1,2.41,10.76,23.6,23.6,0,0,1-2.41,10.84,18.17,18.17,0,0,1-6.55,7.3,17.07,17.07,0,0,1-9.25,2.59A16.45,16.45,0,0,1,99.26,73a15.23,15.23,0,0,1-5.37-4.57v5.69H83.82V20.88H93.89V40.1A14.46,14.46,0,0,1,99.26,35.42Zm14.25,12.42a10.2,10.2,0,0,0-3.89-4,10.44,10.44,0,0,0-5.22-1.37,10,10,0,0,0-5.14,1.41,10.36,10.36,0,0,0-3.89,4.06,12.69,12.69,0,0,0-1.48,6.27,12.65,12.65,0,0,0,1.48,6.26,10.46,10.46,0,0,0,3.89,4.07,10.16,10.16,0,0,0,10.36,0,10.75,10.75,0,0,0,3.89-4.1A12.94,12.94,0,0,0,115,54.06,12.52,12.52,0,0,0,113.51,47.84Z"/><path class="cls-1" d="M166.67,34.27V74.15H156.52v-5a13.32,13.32,0,0,1-5.07,4.06,15.7,15.7,0,0,1-6.81,1.48,16.9,16.9,0,0,1-8.28-2,14,14,0,0,1-5.65-5.83,19.38,19.38,0,0,1-2.05-9.18V34.27h10.08V56.22q0,4.76,2.38,7.31a8.41,8.41,0,0,0,6.47,2.55,8.53,8.53,0,0,0,6.56-2.55q2.37-2.55,2.37-7.31V34.27Z"/><path class="cls-1" d="M182.22,65.87H200v8.28H170.77V66l17.42-23.47H170.85V34.27h28.93V42.4Z"/><path class="cls-1" d="M45.7,34.43a20.3,20.3,0,0,1-4.43.4,20.36,20.36,0,0,1-4.43-.4c-.22,0-.42-.1-.61-.16V74.15H46.31V34.27A5.92,5.92,0,0,1,45.7,34.43Z"/><circle class="cls-1" cx="41.27" cy="24.18" r="6"/><circle class="cls-1" cx="30.66" cy="14.16" r="4.8"/><circle class="cls-1" cx="44.87" cy="7.2" r="7.2"/></svg>