<?xml version="1.0" encoding="utf-8"?>
<!-- Generator: Adobe Illustrator 23.0.1, SVG Export Plug-In . SVG Version: 6.00 Build 0)  -->
<svg version="1.1" id="Layer_1" xmlns="http://www.w3.org/2000/svg" xmlns:xlink="http://www.w3.org/1999/xlink" x="0px" y="0px"
	 viewBox="0 0 868.54 480.95" style="enable-background:new 0 0 868.54 480.95;" xml:space="preserve">
<style type="text/css">
	.st0{fill:#F04D21;}
</style>
<g>
	<path class="st0" d="M512.27,118.26l25.14-43.91c0.79-1.38,0.79-3.07,0-4.45l-26.41-46.14c-0.01-0.02-0.03-0.04-0.04-0.07
		c-0.07-0.12-0.15-0.24-0.24-0.36c-0.03-0.04-0.06-0.08-0.09-0.12c-0.11-0.13-0.22-0.26-0.33-0.38c-0.01-0.01-0.01-0.01-0.01-0.02
		c-0.12-0.12-0.26-0.24-0.39-0.34c-0.04-0.03-0.08-0.06-0.12-0.09c-0.11-0.08-0.22-0.16-0.34-0.23c-0.04-0.02-0.07-0.04-0.11-0.06
		c-0.31-0.17-0.64-0.31-0.99-0.41c-0.04-0.01-0.09-0.02-0.13-0.03c-0.13-0.03-0.27-0.06-0.41-0.08c-0.05-0.01-0.09-0.02-0.14-0.02
		c-0.18-0.02-0.36-0.04-0.54-0.04H358.06c-0.18,0-0.37,0.01-0.54,0.04c-0.05,0.01-0.09,0.01-0.14,0.02
		c-0.14,0.02-0.28,0.05-0.41,0.08c-0.04,0.01-0.09,0.02-0.13,0.03c-0.35,0.1-0.68,0.24-0.99,0.41c-0.04,0.02-0.07,0.04-0.11,0.06
		c-0.12,0.07-0.23,0.15-0.34,0.23c-0.04,0.03-0.08,0.06-0.12,0.09c-0.14,0.11-0.27,0.22-0.39,0.35c0,0-0.01,0.01-0.01,0.01
		c-0.12,0.12-0.23,0.25-0.34,0.39c-0.03,0.04-0.06,0.08-0.09,0.12c-0.09,0.12-0.17,0.24-0.24,0.36c-0.01,0.02-0.03,0.04-0.04,0.07
		L327.76,69.9c-0.79,1.38-0.79,3.07,0,4.45l25.82,45.1v147.93c0,0.18,0.01,0.37,0.04,0.54c0.01,0.05,0.01,0.09,0.02,0.14
		c0.02,0.14,0.05,0.28,0.08,0.41c0.01,0.04,0.02,0.09,0.03,0.13c0.1,0.35,0.24,0.68,0.41,0.99c0.02,0.04,0.04,0.07,0.06,0.1
		c0.07,0.12,0.15,0.23,0.23,0.34c0.03,0.04,0.06,0.08,0.09,0.12c0.11,0.14,0.22,0.27,0.35,0.39c0,0,0.01,0.01,0.01,0.01
		c0.12,0.12,0.25,0.23,0.39,0.34c0.04,0.03,0.08,0.06,0.12,0.09c0.12,0.09,0.24,0.17,0.36,0.24c0.02,0.01,0.04,0.03,0.07,0.04
		l46.14,26.41c0.69,0.39,1.46,0.59,2.23,0.59c0.77,0,1.54-0.2,2.23-0.59l46.14-26.41c0.02-0.01,0.04-0.03,0.07-0.04
		c0.12-0.07,0.24-0.15,0.36-0.24c0.04-0.03,0.08-0.06,0.12-0.09c0.13-0.11,0.26-0.22,0.38-0.33c0.01-0.01,0.01-0.01,0.02-0.01
		c0.12-0.12,0.24-0.26,0.34-0.39c0.03-0.04,0.06-0.08,0.09-0.12c0.08-0.11,0.16-0.22,0.23-0.34c0.02-0.04,0.04-0.07,0.06-0.11
		c0.18-0.31,0.31-0.64,0.41-0.99c0.01-0.04,0.02-0.08,0.03-0.13c0.03-0.13,0.06-0.27,0.08-0.41c0.01-0.05,0.02-0.09,0.02-0.14
		c0.02-0.18,0.04-0.36,0.04-0.54v-52.37h52.3c0.18,0,0.37-0.01,0.54-0.04c0.05-0.01,0.09-0.01,0.14-0.02
		c0.14-0.02,0.28-0.05,0.41-0.08c0.04-0.01,0.09-0.02,0.13-0.03c0.35-0.1,0.68-0.24,0.99-0.41c0.04-0.02,0.07-0.04,0.11-0.07
		c0.12-0.07,0.23-0.15,0.34-0.23c0.04-0.03,0.08-0.06,0.12-0.09c0.14-0.11,0.27-0.22,0.39-0.34c0.01-0.01,0.01-0.01,0.01-0.02
		c0.12-0.12,0.23-0.25,0.33-0.38c0.03-0.04,0.06-0.08,0.09-0.12c0.09-0.12,0.17-0.24,0.24-0.36c0.01-0.02,0.03-0.04,0.04-0.07
		l26.41-46.14c0.79-1.38,0.79-3.07,0-4.45L512.27,118.26z M478.1,159.91h-73.67c-1.09-0.05-2.19,0.28-3.08,1.02
		c-0.03,0.03-0.06,0.06-0.09,0.09c-0.07,0.06-0.15,0.13-0.22,0.19c0,0,0,0-0.01,0.01c-0.81,0.81-1.32,1.93-1.32,3.17v73.98
		l-37.18,21.28V122.74h136.84L478.1,159.91z M445.85,259.65l-37.18-21.28v-63.19l37.18,37.19V259.65z M478.1,67.64h-91.03
		l-21.28-37.18h133.6L478.1,67.64z M387.06,76.6h91.03l21.28,37.18h-133.6L387.06,76.6z M507.11,109.24l-21.25-37.12l21.25-37.12
		l21.25,37.12L507.11,109.24z M358.06,35.01l21.25,37.12l-21.25,37.12l-21.25-37.12L358.06,35.01z M404.19,288.63l-37.12-21.25
		l37.12-21.25l37.12,21.25L404.19,288.63z M452.19,206.05l-37.17-37.18h63.07l21.29,37.18H452.19z M507.11,201.52l-21.25-37.12
		l21.25-37.12l21.25,37.12L507.11,201.52z"/>
	<g>
		<g>
			<path d="M12.56,343.12c0-2.36,1.01-3.37,3.37-3.37H89.1c2.36,0,3.37,1.01,3.37,3.37v10.79c0,1.69-0.67,2.36-2.36,2.36h-59v33.21
				h46.87c2.36,0,3.37,1.01,3.37,3.37v9.78c0,2.36-1.01,3.37-3.37,3.37H31.11v48.38c0,2.36-1.01,3.37-3.37,3.37h-11.8
				c-2.36,0-3.37-1.01-3.37-3.37V343.12z"/>
			<path d="M91.3,418.14c0-25.46,17.36-41.3,41.3-41.3c23.94,0,41.3,15.85,41.3,41.3c0,27.31-18.88,41.3-41.3,41.3
				C110.18,459.44,91.3,445.45,91.3,418.14z M156.04,418.31c0-17.03-10.45-26.64-23.43-26.64c-12.98,0-23.43,9.61-23.43,26.64
				c0,15.51,8.77,26.3,23.43,26.3C147.27,444.61,156.04,433.82,156.04,418.31z"/>
			<path d="M188.06,381.9c0-2.36,1.01-3.37,3.37-3.37h10.45c2.36,0,3.37,1.01,3.37,3.37v7.08c5.56-7.08,13.99-12.14,25.62-12.14
				c15.17,0,24.61,9.27,24.61,23.43c0,2.36-1.18,3.37-3.37,3.37H241.5c-1.85,0-2.53-0.67-2.7-2.7c-0.67-5.73-4.21-9.27-11.46-9.27
				c-6.74,0-12.47,4.55-16.18,9.78c-3.71,5.23-5.9,11.63-5.9,21.75v31.19c0,2.36-1.01,3.37-3.37,3.37h-10.45
				c-2.36,0-3.37-1.01-3.37-3.37V381.9z"/>
			<path d="M266.95,381.9c0-2.36,1.01-3.37,3.37-3.37h10.45c2.36,0,3.37,1.01,3.37,3.37v7.25c5.39-7.59,12.31-12.31,23.43-12.31
				c10.12,0,17.03,4.04,20.06,11.13c5.39-6.41,13.66-11.13,25.46-11.13c13.99,0,23.77,7.59,23.77,23.43v54.11
				c0,2.36-1.01,3.37-3.37,3.37h-10.45c-2.36,0-3.37-1.01-3.37-3.37v-51.75c0-7.08-3.03-10.96-9.95-10.96
				c-5.06,0-9.78,2.36-13.82,7.25c-4.21,5.06-6.07,9.78-6.07,18.21v37.26c0,2.36-1.01,3.37-3.37,3.37h-10.45
				c-2.36,0-3.37-1.01-3.37-3.37v-51.92c0-7.08-3.03-10.79-9.95-10.79c-4.72,0-9.61,2.7-13.15,7.25c-3.54,4.55-5.39,7.92-5.39,16.69
				v38.77c0,2.36-1.01,3.37-3.37,3.37h-10.45c-2.36,0-3.37-1.01-3.37-3.37V381.9z"/>
			<path d="M404,342.79c6.41,0,11.46,5.06,11.46,11.46c0,6.41-5.06,11.46-11.46,11.46c-6.41,0-11.46-5.06-11.46-11.46
				C392.53,347.84,397.59,342.79,404,342.79z M395.4,381.9c0-2.36,1.01-3.37,3.37-3.37h10.45c2.36,0,3.37,1.01,3.37,3.37v72.49
				c0,2.36-1.01,3.37-3.37,3.37h-10.45c-2.36,0-3.37-1.01-3.37-3.37V381.9z"/>
			<path d="M491.17,450.85c-6.58,5.56-12.31,8.6-24.44,8.6c-19.89,0-36.58-13.82-36.58-41.3c0-25.96,17.7-41.3,38.61-41.3
				c9.95,0,17.53,3.2,22.42,8.43v-45.52c0-2.36,1.01-3.37,3.37-3.37H505c2.36,0,3.37,1.01,3.37,3.37v114.63
				c0,2.36-1.01,3.37-3.2,3.37h-8.26c-2.36,0-3.54-0.84-4.38-3.37L491.17,450.85z M491.17,411.57c0-5.23-1.01-8.6-4.55-12.47
				c-3.71-4.21-9.27-7.42-16.18-7.42c-12.81,0-22.42,10.12-22.42,26.64c0,15.17,8.6,26.3,22.25,26.3c7.59,0,13.49-3.2,16.86-7.59
				c3.2-4.04,4.05-7.59,4.05-13.15V411.57z"/>
			<path d="M588.95,450c-6.58,6.24-12.98,9.44-25.12,9.44c-21.41,0-39.45-13.82-39.45-41.3c0-25.96,18.21-41.3,40.46-41.3
				c11.97,0,19.89,4.21,24.11,9.27v-4.21c0-2.36,1.01-3.37,3.37-3.37h10.45c2.36,0,3.37,1.01,3.37,3.37v72.49
				c0,2.36-1.01,3.37-3.37,3.37h-8.26c-2.19,0-3.54-0.84-4.21-3.37L588.95,450z M588.95,410.89c0-5.06-1.18-8.43-4.89-12.31
				c-3.54-3.54-9.27-6.91-17.2-6.91c-13.99,0-24.61,9.95-24.61,26.64c0,16.18,10.11,26.3,24.28,26.3c8.77,0,15-4.21,18.54-8.6
				c2.87-3.88,3.88-7.25,3.88-12.64V410.89z"/>
			<path d="M624.89,339.75c0-2.36,1.01-3.37,3.37-3.37h10.45c2.36,0,3.37,1.01,3.37,3.37v50.57c6.24-7.42,16.18-13.49,27.98-13.49
				c22.76,0,34.73,15.34,34.73,40.96c0,23.77-14.33,41.64-39.11,41.64c-9.78,0-17.2-2.53-23.6-6.74v1.69c0,2.36-1.01,3.37-3.37,3.37
				h-10.45c-2.36,0-3.37-1.01-3.37-3.37V339.75z M642.08,431.12c0,4.05,2.02,6.07,4.38,7.92c5.06,3.71,11.13,5.56,17.03,5.56
				c15.17,0,23.43-11.63,23.43-26.64c0-17.53-8.77-26.3-20.23-26.3c-10.96,0-17.7,7.42-21.24,13.32c-2.02,3.54-3.37,6.57-3.37,12.64
				V431.12z"/>
			<path d="M719.45,339.75c0-2.36,1.01-3.37,3.37-3.37h10.45c2.36,0,3.37,1.01,3.37,3.37v96.43c0,6.07,2.7,8.43,6.58,8.43
				c3.71,0,5.39-1.69,7.08-1.69c1.01,0,1.69,0.84,1.69,2.19v10.12c0,1.52-0.67,2.19-1.69,2.53c-2.7,1.01-7.59,1.69-11.63,1.69
				c-9.27,0-19.22-5.39-19.22-19.22V339.75z"/>
			<path d="M835.11,440.9c0.51,0.51,0.84,1.18,0.84,1.85c0,0.67-0.34,1.35-1.01,2.02c-10.96,10.96-19.05,14.67-34.56,14.67
				c-21.07,0-41.13-14.67-41.13-41.3c0-25.12,18.21-41.3,40.46-41.3c26.97,0,39.45,20.9,39.45,40.12v3.37
				c0,2.36-1.01,3.37-3.37,3.37h-59.34c2.19,12.81,11.29,20.9,24.78,20.9c11.13,0,17.2-4.21,22.42-10.12
				c0.84-1.01,1.52-1.52,2.53-1.52c0.68,0,1.35,0.34,2.19,1.18L835.11,440.9z M821.96,409.54c-2.87-12.31-11.97-17.87-21.92-17.87
				c-10.79,0-20.9,6.58-23.6,17.87H821.96z"/>
		</g>
		<g>
			<path d="M838.94,382.42h1.34c-0.06,1.18,0.72,1.83,1.93,1.83c1.23,0,1.82-0.49,1.82-1.23c0-0.83-0.74-1.11-2.39-1.57
				c-1.69-0.48-2.46-1.14-2.46-2.35c0-1.31,1.15-2.37,2.9-2.37c1.84,0,3.05,1.04,3.05,2.58h-1.29c-0.01-0.98-0.71-1.53-1.76-1.53
				c-0.97,0-1.62,0.47-1.62,1.18c0,0.77,0.49,1.04,1.57,1.35c2.02,0.59,3.31,0.91,3.31,2.58c0,1.47-1.28,2.41-3.14,2.41
				C840.21,385.3,838.94,384.13,838.94,382.42z"/>
			<path d="M847.23,376.84h1.95l1.93,5.49c0.44,1.23,0.47,1.67,0.47,1.67h0.05c0,0,0.03-0.43,0.48-1.67l1.98-5.49h1.9v8.34h-1.2
				l0.01-7.2h-0.04c0,0-0.08,0.54-0.48,1.65l-2,5.55h-1.35l-1.97-5.55c-0.41-1.13-0.49-1.65-0.49-1.65h-0.04v7.2h-1.2V376.84z"/>
		</g>
	</g>
</g>
</svg>
