<svg id="Layer_1" data-name="Layer 1" xmlns="http://www.w3.org/2000/svg" width="850" height="470.68" viewBox="0 0 850 470.68"><defs><style>.cls-1{fill:#f04d21;}</style></defs><title>formidable</title><path d="M830.49,377h1.34c-.06,1.18.72,1.83,1.93,1.83s1.82-.49,1.82-1.23-.74-1.11-2.39-1.57-2.46-1.14-2.46-2.35,1.15-2.37,2.9-2.37,3,1,3,2.58h-1.29c0-1-.71-1.53-1.76-1.53s-1.62.47-1.62,1.18.49,1,1.57,1.35c2,.59,3.31.91,3.31,2.58,0,1.47-1.28,2.41-3.14,2.41S830.49,378.75,830.49,377Z"/><path d="M838.78,371.46h2l1.93,5.49a7.61,7.61,0,0,1,.47,1.67h0a7.61,7.61,0,0,1,.48-1.67l2-5.49h1.9v8.34h-1.2v-7.2h0a9.81,9.81,0,0,1-.48,1.65l-2,5.55h-1.35l-2-5.55a10.08,10.08,0,0,1-.49-1.65h0v7.2h-1.2v-8.34Z"/><path d="M2.46,337.71c0-2.29.77-3.06,3.06-3.06H79.09c2.3,0,3.07.77,3.07,3.06v10.73a2,2,0,0,1-2.3,2.3h-59v33.72H67.6c2.3,0,3.06.77,3.06,3.07v10c0,2.3-.76,3.06-3.06,3.06H20.85v48.28c0,2.3-.77,3.07-3.06,3.07H6.29c-2.3,0-3.06-.77-3.06-3.07L2.46,337.71Z"/><path d="M81.39,412.81c0-25.28,17.63-41.38,41.38-41.38s41.38,16.1,41.38,41.38c0,27.59-19.15,41.39-41.38,41.39S81.39,440.4,81.39,412.81Zm65.14.77c0-16.86-10.73-26.82-23.76-26.82S99,396.72,99,413.58c0,15.33,8.43,26.06,23.75,26.06S146.53,428.91,146.53,413.58Z"/><path d="M178.71,376.8c0-2.3.77-3.07,3.07-3.07h10.73c2.3,0,3.06.77,3.06,3.07v6.89c5.37-6.89,13.8-12.26,26.06-12.26,15.32,0,24.52,9.2,24.52,23.76a2.8,2.8,0,0,1-3.06,3.06H232.36c-1.54,0-2.3-.76-3.07-3.06-.77-5.37-4.6-9.2-11.49-9.2s-12.26,4.6-16.1,10-6.13,11.49-6.13,21.45v31.42c0,2.3-.76,3.07-3.06,3.07H181.78c-2.3,0-3.07-.77-3.07-3.07v-72Z"/><path d="M257.65,376.8c0-2.3.76-3.07,3.06-3.07h10.73c2.3,0,3.06.77,3.06,3.07v6.89c5.37-7.66,12.27-12.26,23.76-12.26,10,0,16.86,3.83,19.92,11.5a33,33,0,0,1,25.29-11.5c13.8,0,23.76,7.67,23.76,23.76V449.6c0,2.3-.77,3.06-3.07,3.06H353.44c-2.3,0-3.07-.76-3.07-3.06V397.49c0-6.9-3.06-10.73-10-10.73q-8.06,0-13.8,6.9c-4.59,5.36-6.13,10-6.13,18.39V449.6c0,2.3-.76,3.06-3.06,3.06H306.69c-2.3,0-3.07-.76-3.07-3.06V397.49c0-6.9-3.06-10.73-10-10.73-4.6,0-10,3.06-13,6.9-3.83,4.59-5.36,7.66-5.36,16.86V449.6c0,2.3-.77,3.06-3.06,3.06H261.48c-2.3,0-3.07-.76-3.07-3.06l-.76-72.8Z"/><path d="M394.82,337.71a11.5,11.5,0,1,1-11.5,11.5A11.29,11.29,0,0,1,394.82,337.71Zm-8.43,39.09c0-2.3.76-3.07,3.06-3.07h10.73c2.3,0,3.07.77,3.07,3.07v72.8c0,2.3-.77,3.06-3.07,3.06H389.45c-2.3,0-3.06-.76-3.06-3.06Z"/><path d="M482.18,445.77c-6.9,5.36-12.26,8.43-24.52,8.43-19.93,0-36.79-13.8-36.79-41.39,0-26.05,17.63-41.38,39.08-41.38,10,0,17.63,3.07,22.23,8.43v-46c0-2.3.76-3.06,3.06-3.06H496c2.3,0,3.07.76,3.07,3.06v115c0,2.3-.77,3.07-3.07,3.07h-8.43c-2.3,0-3.83-.77-4.6-3.07Zm0-39.09c0-5.36-.77-8.43-4.6-12.26a20.36,20.36,0,0,0-16.09-7.66c-13,0-22.23,10-22.23,26.82,0,15.33,8.43,26.06,22.23,26.06,7.66,0,13.79-3.07,16.86-7.67,3.06-3.83,3.83-7.66,3.83-13V406.68Z"/><path d="M580.27,445c-6.9,6.13-13,9.2-25.29,9.2-21.46,0-39.85-13.8-39.85-41.39,0-26.05,18.39-41.38,40.62-41.38,12.26,0,19.92,4.6,24.52,9.2V376.8c0-2.3.76-3.07,3.06-3.07h10.73c2.3,0,3.07.77,3.07,3.07v72.8c0,2.3-.77,3.06-3.07,3.06H586.4c-2.3,0-3.83-.76-4.6-3.06Zm0-39.08c0-5.37-1.53-8.43-4.6-12.26-3.83-3.84-9.2-6.9-17.63-6.9-13.79,0-24.52,10-24.52,26.82,0,16.09,10,26.06,24.52,26.06a24.64,24.64,0,0,0,18.4-8.43c3.06-3.84,3.83-6.9,3.83-13Z"/><path d="M616.28,334.65c0-2.3.77-3.07,3.07-3.07h10.73c2.3,0,3.06.77,3.06,3.07v50.58a36.33,36.33,0,0,1,28.36-13.8c23,0,34.48,15.33,34.48,41.38,0,23.76-14.56,41.39-39.08,41.39-10,0-17.63-2.3-23.76-6.9v1.53c0,2.3-.76,3.07-3.06,3.07H619.35c-2.3,0-3.07-.77-3.07-3.07Zm17.63,91.19c0,3.83,2.3,6.13,4.6,7.67a29.18,29.18,0,0,0,16.86,5.36c15.32,0,23.75-11.5,23.75-26.82,0-17.63-8.43-26.06-19.92-26.06-10.73,0-17.63,7.67-21.46,13-2.3,3.83-3.06,6.9-3.06,13l-.77,13.79Z"/><path d="M711.31,334.65c0-2.3.77-3.07,3.06-3.07H725.1c2.3,0,3.07.77,3.07,3.07v96.56c0,6.13,3.06,8.43,6.9,8.43s5.36-1.54,6.89-1.54c.77,0,1.53.77,1.53,2.3v10c0,1.54-.76,2.3-1.53,2.3a51.83,51.83,0,0,1-11.49,1.54c-9.2,0-19.16-5.37-19.16-19.16V334.65Z"/><path d="M827.79,435.8a2.38,2.38,0,0,1,.77,1.54,3.78,3.78,0,0,1-.77,2.3c-10.73,10.72-19.16,14.56-34.48,14.56-21.46,0-41.39-14.56-41.39-41.39,0-25.28,18.4-41.38,40.62-41.38,26.82,0,39.85,20.69,39.85,40.62v3.06c0,2.3-.77,3.07-3.07,3.07H769.55c2.3,13,11.49,20.69,24.52,20.69,11.5,0,17.63-4.6,22.23-10,.76-.77,1.53-1.54,2.29-1.54s1.54,0,2.3,1.54ZM814,404.38c-3.07-12.26-12.26-17.62-22.23-17.62A24.59,24.59,0,0,0,768,404.38Z"/><path class="cls-1" d="M504.56,112.67l25-44a4.57,4.57,0,0,0,0-4.29L503.13,18.28h0a.35.35,0,0,0-.36-.36h0l-.36-.36h0l-.36-.36h0a.34.34,0,0,1-.35-.35h0c-.36,0-.72-.36-1.08-.36H349c-.36,0-.72.36-1.07.36h0a.35.35,0,0,0-.36.35h0l-.36.36h0l-.36.36h0a.35.35,0,0,1-.35.36h0L320.06,64.4a4.52,4.52,0,0,0,0,4.29l25.38,45.41V262.85h0v.35h0c0,.36.36.72.36,1.08h0a.35.35,0,0,0,.36.35h0l.36.36h0l.35.36h0a.35.35,0,0,1,.36.36h0l46.13,26.46a3.6,3.6,0,0,0,4.29,0l46.12-26.46h0a.35.35,0,0,0,.36-.36h0l.36-.36h0l.35-.36h0a.35.35,0,0,1,.36-.35h0a1.32,1.32,0,0,0,.36-1.08h0v-.35h0V209.57h54.71c.35,0,.71-.36,1.07-.36h0a.35.35,0,0,0,.36-.36h0l.35-.35h0l.36-.36h0a.35.35,0,0,1,.36-.36h0l26.46-46.12a4.57,4.57,0,0,0,0-4.29Zm-34.33,41.84H396.57a5.7,5.7,0,0,0-3.21,1.07h0l-.36.36h0a4.48,4.48,0,0,0-1.43,3.21v74l-37.19,21.45V117.32h137Zm-32.18,99.75-37.19-21.45V169.88l37.19,37.19Zm32.18-192H379.05L357.6,25.07H491.33Zm-91.18,8.93h91.18l21.45,37.19H357.6Zm120.14,32.54L477.74,66.55l21.45-37.19,21.46,37.19ZM350.09,29.36l21.45,37.19-21.45,37.18L328.64,66.55Zm46.13,254.22L359,262.13l37.19-21.45,37.18,21.45Zm47.91-82.95-37.19-37.19h63.29l21.45,37.19Zm55.06-4.29-21.45-37.19L499.19,122l21.46,37.18Z"/></svg>