<svg id="Layer_1" data-name="Layer 1" xmlns="http://www.w3.org/2000/svg" width="200" height="28.89" viewBox="0 0 200 28.89"><defs><style>.cls-1{fill:#fff;}</style></defs><title>formidable-white</title><path class="cls-1" d="M196,10.77h.32c0,.28.17.43.46.43s.43-.11.43-.29-.18-.26-.57-.37S196,10.27,196,10a.71.71,0,0,1,1.4,0h-.31c0-.23-.17-.36-.42-.36s-.38.11-.38.28.12.24.37.32c.48.14.79.22.79.61s-.31.57-.75.57a.68.68,0,0,1-.75-.61A.17.17,0,0,1,196,10.77Z"/><path class="cls-1" d="M197.92,9.46h.48l.45,1.3a1.9,1.9,0,0,1,.11.39h0a2.91,2.91,0,0,1,.12-.39l.47-1.3H200v2h-.28V9.72h0a2.64,2.64,0,0,1-.12.4l-.47,1.31h-.32l-.47-1.31a2.64,2.64,0,0,1-.12-.4h0v1.71h-.28v-2Z"/><path class="cls-1" d="M0,1.47C0,.93.18.75.72.75H18.14c.54,0,.72.18.72.72V4a.48.48,0,0,1-.39.55h0a.38.38,0,0,1-.15,0h-14v8H15.42c.54,0,.72.18.72.72v2.38c0,.55-.18.73-.72.73H4.35V27.79c0,.55-.18.73-.72.73H.91c-.55,0-.73-.18-.73-.73Z"/><path class="cls-1" d="M18.68,19.25c0-6,4.17-9.8,9.79-9.8s9.8,3.82,9.8,9.8c0,6.52-4.54,9.79-9.8,9.79S18.68,25.77,18.68,19.25Zm15.42.18c0-4-2.54-6.35-5.63-6.35s-5.62,2.36-5.62,6.35c0,3.63,2,6.16,5.62,6.16S34.1,23.06,34.1,19.43Z"/><path class="cls-1" d="M41.71,10.72c0-.54.18-.72.73-.72H45c.54,0,.72.18.72.72v1.63a7.5,7.5,0,0,1,6.17-2.9c3.62,0,5.8,2.18,5.8,5.63a.66.66,0,0,1-.59.72H54.41c-.37,0-.55-.18-.73-.72A2.48,2.48,0,0,0,51,12.9a4.86,4.86,0,0,0-3.81,2.36,8.07,8.07,0,0,0-1.45,5.08v7.44c0,.54-.18.72-.72.72H42.44c-.55,0-.73-.18-.73-.72Z"/><path class="cls-1" d="M60.39,10.72c0-.54.18-.72.73-.72h2.54c.55,0,.73.18.73.72v1.63A6.28,6.28,0,0,1,70,9.45c2.36,0,4,.91,4.71,2.72a7.84,7.84,0,0,1,6-2.72c3.27,0,5.62,1.82,5.62,5.63V28c0,.54-.18.72-.72.72H83.07c-.55,0-.73-.18-.73-.72V15.62c0-1.63-.72-2.54-2.37-2.54a4.09,4.09,0,0,0-3.26,1.63,5.8,5.8,0,0,0-1.45,4.36V28c0,.54-.18.72-.73.72H72c-.55,0-.73-.18-.73-.72V15.62c0-1.63-.72-2.54-2.36-2.54a4.3,4.3,0,0,0-3.08,1.63c-.91,1.09-1.27,1.82-1.27,4V28c0,.54-.18.72-.72.72H61.29c-.54,0-.72-.18-.72-.72Z"/><path class="cls-1" d="M92.86,1.47a2.73,2.73,0,1,1-2.73,2.72,2.68,2.68,0,0,1,2.62-2.72h.11Zm-2,9.25c0-.54.18-.72.72-.72h2.54c.55,0,.73.18.73.72V28c0,.54-.18.72-.73.72H91.59c-.55,0-.73-.18-.73-.72Z"/><path class="cls-1" d="M113.53,27.05a8,8,0,0,1-5.8,2C103,29,99,25.77,99,19.25c0-6.17,4.17-9.8,9.25-9.8a6.68,6.68,0,0,1,5.26,2V.56c0-.54.18-.72.72-.72h2.55c.54,0,.73.18.73.72V27.78c0,.54-.19.72-.73.72h-2a1,1,0,0,1-1.09-.72Zm0-9.26a3.46,3.46,0,0,0-1.09-2.9,4.82,4.82,0,0,0-3.81-1.81c-3.08,0-5.26,2.37-5.26,6.35,0,3.63,2,6.16,5.26,6.16a4.68,4.68,0,0,0,4-1.81,4.48,4.48,0,0,0,.9-3.08V17.79Z"/><path class="cls-1" d="M136.74,26.86a7.79,7.79,0,0,1-6,2.18c-5.08,0-9.43-3.27-9.43-9.79,0-6.17,4.35-9.8,9.61-9.8a7.85,7.85,0,0,1,5.8,2.18v-.91c0-.54.18-.72.73-.72H140c.54,0,.72.18.72.72V28c0,.54-.18.72-.72.72h-1.82a1,1,0,0,1-1.08-.72Zm0-9.25a4.1,4.1,0,0,0-1.09-2.9,5.52,5.52,0,0,0-4.17-1.63c-3.26,0-5.8,2.37-5.8,6.35,0,3.81,2.37,6.16,5.8,6.16a5.8,5.8,0,0,0,4.36-2,4.17,4.17,0,0,0,.91-3.08Z"/><path class="cls-1" d="M145.27.75c0-.55.18-.73.72-.73h2.54c.55,0,.73.18.73.73v12A8.61,8.61,0,0,1,156,9.45c5.44,0,8.16,3.63,8.16,9.8,0,5.62-3.45,9.79-9.25,9.79a9,9,0,0,1-5.62-1.63v.36c0,.54-.18.73-.73.73H146c-.54,0-.72-.19-.72-.73Zm4.17,21.58a2.11,2.11,0,0,0,1.09,1.81,6.86,6.86,0,0,0,4,1.27c3.62,0,5.62-2.72,5.62-6.34,0-4.18-2-6.17-4.72-6.17-2.54,0-4.17,1.81-5.08,3.07a5.24,5.24,0,0,0-.72,3.08l-.18,3.26Z"/><path class="cls-1" d="M167.76.75c0-.55.18-.73.72-.73H171c.54,0,.73.18.73.73V23.6c0,1.45.72,2,1.63,2s1.27-.36,1.63-.36c.18,0,.36.18.36.54v2.37c0,.37-.18.55-.36.55a12.45,12.45,0,0,1-2.72.36,4.27,4.27,0,0,1-4.54-4.53V.75Z"/><path class="cls-1" d="M195.32,24.69a.54.54,0,0,1,.18.36.86.86,0,0,1-.18.54A10,10,0,0,1,187.16,29c-5.08,0-9.79-3.45-9.79-9.79A9.38,9.38,0,0,1,187,9.45c6.35,0,9.43,4.9,9.43,9.62v.72c0,.54-.18.73-.73.73H181.54a5.56,5.56,0,0,0,5.8,4.89,6.32,6.32,0,0,0,5.26-2.36c.18-.19.36-.37.54-.37s.37,0,.55.37Zm-3.26-7.44a5.18,5.18,0,0,0-5.26-4.17,5.82,5.82,0,0,0-5.63,4.17Z"/></svg>