<svg xmlns="http://www.w3.org/2000/svg" width="698.91" height="958.38" viewBox="0 0 698.91 958.38"><defs><style>.cls-1{fill:#410099;}</style></defs><title>heroku</title><g id="purple"><path class="cls-1" d="M623.62,7H75.29A68.54,68.54,0,0,0,6.74,75.51V700a68.55,68.55,0,0,0,68.55,68.55H623.62A68.55,68.55,0,0,0,692.17,700V75.51A68.54,68.54,0,0,0,623.62,7Zm30.47,693a30.51,30.51,0,0,1-30.47,30.47H75.29A30.51,30.51,0,0,1,44.82,700V75.51A30.5,30.5,0,0,1,75.29,45.05H623.62a30.5,30.5,0,0,1,30.47,30.46Z"/><polygon class="cls-1" points="178.1 654.31 263.78 578.15 178.1 501.99 178.1 654.31"/><path class="cls-1" d="M487.65,345.63c-15.34-15.52-43.52-34-90.6-34-51.63,0-104.77,13.43-142.79,25.81V121.2H178.1V451.47l53.79-24.37c.87-.4,87.73-39.34,165.16-39.34,38.67,0,47.23,21.35,47.6,39.12V654.31h76.16V425.84C520.86,421,520.41,378.76,487.65,345.63Z"/><path class="cls-1" d="M387.53,245h76.16c34.44-39,52-80.5,57.12-123.76H444.65C436.26,164.37,417.46,205.69,387.53,245Z"/><path class="cls-1" d="M6.74,845.63H34.8v38.58H69.32V845.63H97.38V949.45H69.32v-42H34.8v42H6.74Z"/><path class="cls-1" d="M133.53,845.63h74.08v23.29h-46v16.84h32.83v21.88H161.59v19.22H210v22.59H133.53Z"/><path class="cls-1" d="M240.82,845.63h40.54c26.66,0,42.94,8.84,42.94,33.81,0,16.27-6.88,25.68-20.49,30.3l22,39.71H296.1L276,913.4h-7.72v36.05H240.82Zm39.56,46.43c11.5,0,16.55-3.22,16.55-11.92s-5.05-11.79-16.55-11.79H268.31v23.71Z"/><path class="cls-1" d="M353.57,897.53c0-38,26-53.87,51.07-53.87s50.93,15.86,50.93,53.87-25.95,53.88-50.93,53.88S353.57,935.56,353.57,897.53Zm73.94,0c0-19.08-8.28-30.72-22.87-30.72s-23,11.64-23,30.72,8.28,31.44,23,31.44S427.51,916.62,427.51,897.53Z"/><path class="cls-1" d="M486.81,845.63h28.06v37.6l28.62-37.6H576l-34.93,41,38,62.86H547.42l-24.55-41.53-8,9.26v32.27H486.81Z"/><path class="cls-1" d="M605,907.78V845.63H633.1v62c0,14.31,4.63,20.76,15.85,20.76s15.72-6.45,15.72-20.76v-62h27.5v62.15c0,27.5-13.19,43.21-43.5,43.21S605,935.28,605,907.78Z"/></g></svg>