<svg id="Layer_1" data-name="Layer 1" xmlns="http://www.w3.org/2000/svg" width="850" height="105.62" viewBox="0 0 850 105.62"><defs><style>.cls-1{fill:#231f20;}.cls-2{fill:#0c80c3;}.cls-3{fill:#5fb146;}.cls-4{fill:#f69120;}</style></defs><title>moovweb</title><path class="cls-1" d="M26.27,1.86H67.33l3,61.34L99,1.86H140L118.77,103.27H93.05L109.37,26.1,73.26,103.27H50l-3-77.17L30.72,103.27H5Zm119.21,51c3.47-16.32,10.89-29.18,21.77-38.58C178.63,4.83,192,.38,208.8.38s28.69,4.45,36.11,13.35,8.9,21.77,5.44,38.09C247.88,63.69,243.92,73.09,238,81a60.47,60.47,0,0,1-20.77,17.81c-8.41,4.45-18.3,6.43-29.68,6.43s-20.28-2-27.21-5.45S149,90.41,146,82.49,143,64.68,145.48,52.81Zm31.17,0c-2,10.39-2,17.32,1,21.77s7.42,6.92,13.85,6.92c6.92,0,12.36-2,16.81-6.43s7.92-12.36,10.39-23.74c2.48-9.4,2-16.33-1-20.78s-7.42-6.43-14.34-6.43c-6.43,0-11.87,2.48-16.82,6.93C182.09,35,178.63,42.42,176.65,52.81Zm86.56,0c3.46-16.32,10.88-29.18,21.77-38.58C296.35,4.83,309.71.38,326.53.38s28.69,4.45,36.11,13.35,8.9,21.77,5.44,38.09c-2.47,11.87-6.43,21.27-12.37,29.19a60.47,60.47,0,0,1-20.77,17.81c-8.41,4.45-18.31,6.43-29.68,6.43s-20.28-2-27.21-5.45-11.38-9.39-14.34-17.31S260.74,64.68,263.21,52.81Zm31.17,0c-2,10.39-2,17.32,1,21.77s7.42,6.92,13.86,6.92c6.92,0,12.36-2,16.81-6.43S334,62.71,336.42,51.33q3-14.1-1.48-20.78c-3-4.45-7.42-6.43-14.35-6.43-6.43,0-11.87,2.48-16.82,6.93C299.82,35,296.35,42.42,294.38,52.81ZM379.46,1.86H412.1l7.42,72.72L457.61,1.86h31.66L429.91,103.27H395.78Zm120.69,0h29.68l-1.48,56.39,27.7-56.39h29.68l3.46,56.39L612,1.86h29.68L598.1,102.77H567.43L563,39l-31.16,63.81H501.14Zm261.18,0H819.7q14.85,0,20.78,7.42c4,5,5.44,10.88,4,17.81a32.3,32.3,0,0,1-8.91,15.33c-3,3-7.42,4.95-12.36,6.93,6.92,2,11.37,4.95,14.34,8.9,2.47,4.46,3,9.4,2,15.83-1,5.44-3.46,9.9-6.93,14.35a45.26,45.26,0,0,1-11.87,9.89c-3,1.48-6.92,2.47-12.36,3.46A136.63,136.63,0,0,1,794,103.27H740.06Zm22.76,40.07h13.35c4.95,0,8.41-1,10.89-2.47s3.95-4,4.45-7.42c.49-3,0-5.44-1.49-6.93s-4.45-2.47-9.4-2.47H788l-3.95,19.29ZM775.68,81.5h15.83q8.16,0,11.87-3a12.25,12.25,0,0,0,5-7.91c.49-3,0-5.44-2-7.42s-5.44-3-10.89-3H779.64Z"/><path class="cls-2" d="M631.24,102.77h95l4.95-23.25h-95Z"/><path class="cls-3" d="M734.13,40.94h-90l-5,23.25h90Z"/><path class="cls-4" d="M647.56,26.1H743l5-23.25H652.51Z"/></svg>