<?xml version="1.0" encoding="UTF-8" standalone="no"?>
<!DOCTYPE svg PUBLIC "-//W3C//DTD SVG 1.1//EN" "http://www.w3.org/Graphics/SVG/1.1/DTD/svg11.dtd">
<svg version="1.1" xmlns="http://www.w3.org/2000/svg" xmlns:xlink="http://www.w3.org/1999/xlink" preserveAspectRatio="xMidYMid meet" viewBox="0 0 400 400" width="400" height="400"><defs><path d="M-25 -6.25L431.95 -6.25L431.95 422.46L-25 422.46L-25 -6.25Z" id="a1yJdMZ4fs"></path><path d="M91.04 300.83L91.09 300.83L91.14 300.84L91.19 300.85L91.24 300.86L91.28 300.87L91.32 300.88L91.35 300.89L91.39 300.9L91.42 300.92L91.45 300.93L91.48 300.95L91.51 300.97L91.53 300.98L91.55 301L91.57 301.02L91.59 301.04L91.61 301.06L91.63 301.07L91.64 301.09L91.65 301.11L91.67 301.13L91.68 301.15L91.68 301.17L91.69 301.18L91.7 301.2L91.71 301.22L91.71 301.23L91.71 301.25L91.72 301.26L91.72 301.27L91.72 301.28L91.72 301.29L91.73 301.3L91.73 301.31L91.73 301.32L91.73 301.32L91.73 309.32L91.33 309.32L91.36 309.32L91.4 309.33L91.44 309.33L91.48 309.34L91.52 309.35L91.56 309.35L91.6 309.37L91.64 309.38L91.68 309.39L91.73 309.41L91.77 309.43L91.81 309.44L91.85 309.46L91.89 309.48L91.93 309.51L91.97 309.53L92 309.56L92.04 309.58L92.08 309.61L92.11 309.63L92.15 309.66L92.18 309.69L92.22 309.72L92.25 309.75L92.28 309.79L92.31 309.82L92.34 309.85L92.36 309.89L92.39 309.92L92.41 309.96L92.43 309.99L92.45 310.03L92.47 310.06L92.48 310.1L92.5 310.14L92.51 310.17L92.52 310.21L92.52 310.25L92.53 310.28L92.53 310.32L92.53 310.52L92.33 310.72L92.36 310.72L92.38 310.72L92.41 310.72L92.43 310.73L92.45 310.73L92.47 310.73L92.49 310.73L92.51 310.73L92.52 310.74L92.54 310.74L92.55 310.74L92.57 310.75L92.58 310.75L92.59 310.75L92.61 310.76L92.62 310.76L92.63 310.77L92.65 310.77L92.66 310.78L92.68 310.78L92.69 310.79L92.71 310.8L92.73 310.8L92.74 310.81L92.76 310.81L92.79 310.82L92.81 310.83L92.83 310.83L92.86 310.84L92.89 310.85L92.92 310.86L92.95 310.86L92.99 310.87L93.03 310.88L93.07 310.88L93.11 310.89L93.16 310.9L93.21 310.91L93.27 310.91L93.33 310.92L93.33 311.22L93.38 311.25L93.44 311.28L93.49 311.32L93.54 311.35L93.59 311.38L93.63 311.41L93.67 311.45L93.71 311.48L93.74 311.51L93.77 311.55L93.8 311.58L93.83 311.61L93.86 311.65L93.88 311.68L93.9 311.71L93.92 311.75L93.94 311.78L93.95 311.81L93.96 311.84L93.98 311.87L93.99 311.9L94 311.93L94 311.96L94.01 311.99L94.02 312.01L94.02 312.04L94.02 312.06L94.03 312.08L94.03 312.1L94.03 312.12L94.03 312.14L94.03 312.16L94.03 312.17L94.03 312.18L94.03 312.2L94.03 312.2L94.03 312.21L94.03 312.22L94.03 312.22L94.12 312.22L94.21 312.23L94.3 312.23L94.38 312.24L94.45 312.25L94.53 312.26L94.59 312.28L94.66 312.29L94.71 312.31L94.77 312.33L94.82 312.35L94.86 312.37L94.91 312.4L94.94 312.42L94.98 312.44L95.01 312.47L95.03 312.49L95.06 312.52L95.07 312.55L95.09 312.57L95.1 312.6L95.11 312.62L95.11 312.65L95.11 312.68L95.11 312.7L95.11 312.72L95.1 312.75L95.09 312.77L95.07 312.79L95.05 312.81L95.03 312.83L95.01 312.85L94.98 312.86L94.95 312.88L94.92 312.89L94.89 312.9L94.85 312.91L94.81 312.92L94.77 312.92L94.73 312.92L94.65 312.93L94.58 312.95L94.51 312.97L94.44 312.99L94.37 313.02L94.31 313.06L94.25 313.1L94.19 313.14L94.13 313.18L94.07 313.23L94.01 313.28L93.96 313.33L93.91 313.39L93.86 313.44L93.81 313.5L93.77 313.56L93.72 313.62L93.68 313.69L93.64 313.75L93.6 313.81L93.56 313.87L93.53 313.93L93.5 313.99L93.47 314.05L93.44 314.11L93.41 314.17L93.38 314.22L93.36 314.27L93.34 314.32L93.32 314.37L93.3 314.41L93.29 314.45L93.27 314.49L93.26 314.52L93.25 314.55L93.24 314.58L93.23 314.6L93.23 314.61L93.23 314.62L93.38 314.68L93.5 314.73L93.64 314.78L93.82 314.85L94.01 314.92L94.24 315.01L94.48 315.1L94.74 315.2L95.03 315.31L95.33 315.43L95.64 315.55L95.97 315.67L96.31 315.8L96.65 315.94L97.01 316.07L97.37 316.21L97.73 316.35L98.1 316.5L98.47 316.64L98.83 316.78L99.2 316.92L99.55 317.06L99.9 317.2L100.25 317.33L100.58 317.46L100.9 317.59L101.2 317.71L101.49 317.83L101.77 317.94L102.02 318.04L102.25 318.13L102.46 318.22L102.64 318.3L102.8 318.36L102.93 318.42L103.03 318.46L103.09 318.5L103.12 318.52L103.13 318.54L103.14 318.57L103.14 318.59L103.15 318.62L103.15 318.64L103.15 318.67L103.15 318.69L103.15 318.72L103.15 318.75L103.15 318.77L103.15 318.8L103.15 318.83L103.14 318.85L103.14 318.88L103.14 318.91L103.13 318.93L103.13 318.96L103.12 318.98L103.12 319.01L103.11 319.03L103.11 319.06L103.1 319.08L103.09 319.1L103.09 319.12L103.08 319.15L103.08 319.17L103.07 319.19L103.06 319.2L103.06 319.22L103.05 319.24L103.05 319.25L103.04 319.27L103.04 319.28L103.04 319.29L103.03 319.31L103.02 319.32L103.23 319.32L103.42 319.33L103.59 319.33L103.76 319.34L103.91 319.35L104.05 319.37L104.18 319.39L104.3 319.4L104.41 319.42L104.5 319.45L104.59 319.47L104.67 319.5L104.73 319.52L104.79 319.55L104.84 319.58L104.88 319.61L104.91 319.64L104.94 319.67L104.95 319.7L104.96 319.73L104.96 319.76L104.96 319.8L104.95 319.83L104.93 319.86L104.91 319.89L104.88 319.92L104.85 319.95L104.81 319.98L104.77 320.01L104.73 320.04L104.68 320.06L104.62 320.09L104.57 320.11L104.51 320.13L104.45 320.15L104.39 320.17L104.32 320.19L104.26 320.2L104.19 320.21L104.12 320.22L104.02 320.22L103.91 320.22L103.8 320.22L103.69 320.23L103.58 320.23L103.47 320.23L103.36 320.24L103.25 320.24L103.13 320.25L103.02 320.26L102.9 320.27L102.79 320.27L102.67 320.28L102.56 320.29L102.44 320.3L102.33 320.32L102.21 320.33L102.1 320.34L101.99 320.36L101.87 320.37L101.76 320.39L101.65 320.4L101.54 320.42L101.43 320.44L101.32 320.45L101.22 320.47L101.11 320.49L101.01 320.51L100.91 320.54L100.81 320.56L100.71 320.58L100.61 320.6L100.52 320.63L100.42 320.65L100.33 320.68L100.25 320.71L100.16 320.73L100.08 320.76L100 320.79L99.92 320.82L99.88 320.87L99.84 320.93L99.8 320.98L99.77 321.04L99.74 321.1L99.71 321.16L99.68 321.22L99.65 321.28L99.63 321.34L99.61 321.4L99.59 321.46L99.57 321.52L99.56 321.58L99.55 321.64L99.53 321.7L99.52 321.76L99.52 321.81L99.51 321.87L99.5 321.93L99.5 321.98L99.5 322.04L99.49 322.09L99.49 322.14L99.49 322.19L99.49 322.23L99.49 322.28L99.5 322.32L99.5 322.36L99.5 322.4L99.5 322.44L99.51 322.47L99.51 322.5L99.51 322.53L99.51 322.55L99.52 322.57L99.52 322.59L99.52 322.6L99.52 322.61L99.52 322.62L99.96 322.65L100.34 322.69L100.66 322.73L100.92 322.78L101.14 322.83L101.31 322.88L101.43 322.94L101.51 323L101.55 323.07L101.55 323.13L101.51 323.2L101.44 323.27L101.34 323.34L101.2 323.42L101.05 323.49L100.87 323.57L100.66 323.64L100.44 323.72L100.2 323.79L99.95 323.87L99.69 323.94L99.41 324.02L99.13 324.09L98.85 324.16L98.56 324.23L98.28 324.29L97.99 324.36L97.72 324.42L97.45 324.48L97.19 324.53L96.95 324.58L96.72 324.63L96.5 324.67L96.31 324.71L96.14 324.74L96 324.77L95.88 324.79L95.8 324.81L95.74 324.82L95.73 324.82L95.56 325.1L95.4 325.44L95.24 325.85L95.09 326.31L94.95 326.82L94.82 327.39L94.69 328.01L94.57 328.67L94.46 329.38L94.35 330.13L94.25 330.92L94.15 331.74L94.06 332.59L93.98 333.48L93.9 334.39L93.82 335.32L93.75 336.28L93.69 337.26L93.63 338.25L93.58 339.25L93.53 340.27L93.48 341.29L93.44 342.32L93.4 343.35L93.37 344.38L93.34 345.4L93.31 346.42L93.29 347.43L93.27 348.43L93.25 349.41L93.24 350.37L93.23 351.32L93.22 352.24L93.21 353.14L93.21 354L93.21 354.84L93.21 355.64L93.21 356.4L93.22 357.13L93.23 357.81L97.93 357.81L97.93 368.51L101.12 367.21L101.12 363.41L102.72 363.41L102.72 363.61L103.72 364.61L104.72 363.41L105.52 363.41L106.02 365.01L109.32 365.01L109.32 348.91L115.72 348.91L115.72 348.11L116.52 348.11L116.52 348.91L119.72 348.91L119.72 347.31L121.32 347.31L121.32 348.91L122.12 348.91L122.12 360.21L126.12 360.21L126.12 340.91L129.52 340.91L131.82 337.12L131.82 335.32L133.42 335.32L133.42 337.02L136.12 340.91L139.81 340.91L139.81 353.01L144.21 353.01L146.01 360.21L149.51 360.21L149.51 374.91L152.21 373.41L152.71 369.11L155.01 369.11L155.81 373.11L158.11 375.01L158.12 375L158.17 375L158.24 375L158.33 374.99L158.45 374.99L158.59 374.99L158.75 374.99L158.93 374.99L159.13 375L159.34 375.01L159.57 375.03L159.81 375.06L160.06 375.1L160.33 375.14L160.6 375.2L160.88 375.26L161.16 375.34L161.45 375.43L161.74 375.54L162.03 375.66L162.33 375.79L162.62 375.94L162.9 376.11L163.19 376.3L163.46 376.51L163.73 376.74L163.99 376.99L164.23 377.26L164.47 377.55L164.69 377.87L164.9 378.22L165.08 378.59L165.26 378.99L165.41 379.41L165.54 379.87L165.64 380.35L165.72 380.87L165.78 381.41L165.81 381.99L165.81 382.6L165.81 382.61L165.83 382.63L165.86 382.65L165.9 382.69L165.94 382.73L166 382.79L166.07 382.85L166.15 382.92L166.23 382.99L166.33 383.07L166.43 383.16L166.55 383.25L166.67 383.35L166.8 383.45L166.94 383.56L167.08 383.67L167.23 383.78L167.39 383.89L167.56 384L167.73 384.12L167.91 384.23L168.1 384.34L168.29 384.46L168.49 384.57L168.69 384.68L168.9 384.79L169.11 384.89L169.33 384.99L169.55 385.09L169.77 385.18L170 385.26L170.24 385.34L170.47 385.42L170.71 385.48L170.96 385.54L171.2 385.59L171.45 385.63L171.7 385.67L171.95 385.69L172.21 385.7L177.51 383.8L177.61 381L177.61 381L177.6 380.99L177.6 380.97L177.6 380.95L177.6 380.92L177.6 380.89L177.6 380.85L177.6 380.81L177.61 380.76L177.61 380.71L177.62 380.65L177.63 380.59L177.64 380.53L177.66 380.47L177.67 380.4L177.7 380.33L177.72 380.26L177.75 380.19L177.78 380.12L177.82 380.04L177.86 379.97L177.91 379.9L177.96 379.82L178.02 379.75L178.08 379.68L178.15 379.61L178.22 379.55L178.31 379.48L178.4 379.42L178.49 379.36L178.59 379.3L178.71 379.25L178.83 379.2L178.95 379.16L179.09 379.12L179.23 379.09L179.39 379.06L179.55 379.03L179.72 379.02L179.9 379.01L180.17 379L180.42 378.99L180.67 378.99L180.92 378.99L181.16 378.99L181.39 378.98L181.63 378.99L181.85 378.99L182.07 378.99L182.29 378.99L182.5 379L182.7 379L182.9 379.01L183.09 379.02L183.28 379.02L183.46 379.03L183.63 379.04L183.8 379.05L183.96 379.06L184.12 379.07L184.26 379.08L184.41 379.09L184.54 379.1L184.67 379.11L184.79 379.12L184.91 379.12L185.01 379.13L185.11 379.14L185.2 379.15L185.29 379.16L185.37 379.17L185.44 379.17L185.5 379.18L185.55 379.19L185.6 379.19L185.64 379.2L185.67 379.2L185.69 379.2L185.7 379.2L185.7 379.21L185.71 379.21L185.72 379.21L185.74 379.21L185.77 379.21L185.8 379.21L185.84 379.21L185.89 379.22L185.94 379.22L186 379.23L186.06 379.24L186.13 379.25L186.2 379.26L186.27 379.28L186.35 379.3L186.43 379.32L186.51 379.35L186.6 379.37L186.68 379.41L186.77 379.44L186.85 379.48L186.94 379.52L187.03 379.57L187.11 379.62L187.19 379.68L187.28 379.74L187.36 379.81L187.43 379.88L187.51 379.96L187.58 380.04L187.64 380.13L187.71 380.23L187.76 380.33L187.82 380.44L187.86 380.56L187.9 380.68L187.94 380.81L187.97 380.95L187.99 381.09L188 381.24L188 381.4L188 386.9L195.9 386.9L195.9 386.89L195.92 386.85L195.94 386.79L195.96 386.71L196 386.6L196.05 386.48L196.1 386.33L196.17 386.17L196.24 385.99L196.33 385.8L196.43 385.59L196.54 385.37L196.67 385.14L196.8 384.9L196.96 384.65L197.12 384.4L197.3 384.13L197.49 383.86L197.7 383.59L197.93 383.32L198.17 383.04L198.42 382.76L198.7 382.49L198.99 382.22L199.3 381.95L199.63 381.68L199.97 381.43L200.34 381.18L200.73 380.93L201.13 380.7L201.56 380.48L202.01 380.27L202.47 380.08L202.97 379.9L203.48 379.74L204.02 379.59L204.57 379.46L205.16 379.36L205.77 379.27L206.4 379.21L206.39 379.21L206.37 379.23L206.33 379.27L206.28 379.31L206.22 379.37L206.15 379.45L206.07 379.53L205.98 379.63L205.88 379.73L205.77 379.85L205.65 379.98L205.53 380.11L205.4 380.26L205.27 380.41L205.13 380.58L204.99 380.75L204.85 380.93L204.71 381.11L204.57 381.31L204.42 381.5L204.28 381.71L204.14 381.92L204.01 382.14L203.87 382.36L203.74 382.58L203.62 382.81L203.5 383.05L203.39 383.28L203.29 383.52L203.19 383.76L203.11 384L203.03 384.25L202.97 384.49L202.92 384.74L202.88 384.98L202.85 385.23L202.84 385.48L202.84 385.72L202.86 385.96L202.9 386.2L202.9 386.2L202.91 386.17L202.93 386.14L202.95 386.08L202.97 386.02L203.01 385.94L203.05 385.85L203.09 385.75L203.15 385.63L203.21 385.51L203.27 385.38L203.35 385.23L203.43 385.08L203.52 384.92L203.62 384.75L203.72 384.57L203.83 384.39L203.96 384.2L204.09 384L204.22 383.8L204.37 383.6L204.53 383.39L204.69 383.18L204.86 382.96L205.05 382.75L205.24 382.53L205.44 382.31L205.65 382.09L205.87 381.87L206.1 381.65L206.35 381.43L206.6 381.21L206.86 381L207.13 380.79L207.42 380.58L207.71 380.37L208.01 380.17L208.33 379.98L208.66 379.79L209 379.61L233.79 379.61L233.8 379.61L233.84 379.63L233.9 379.65L233.99 379.69L234.09 379.74L234.22 379.8L234.36 379.87L234.52 379.95L234.7 380.04L234.89 380.14L235.1 380.25L235.32 380.37L235.55 380.49L235.8 380.63L236.05 380.78L236.31 380.93L236.58 381.09L236.85 381.26L237.13 381.44L237.42 381.63L237.7 381.82L237.99 382.03L238.28 382.24L238.56 382.46L238.85 382.68L239.13 382.91L239.41 383.15L239.68 383.4L239.95 383.65L240.2 383.91L240.45 384.17L240.69 384.44L240.92 384.72L241.13 385L241.33 385.29L241.52 385.58L241.69 385.88L241.84 386.18L241.97 386.49L242.09 386.8L242.09 386.79L242.08 386.76L242.06 386.72L242.04 386.65L242.02 386.57L241.98 386.47L241.94 386.36L241.9 386.23L241.84 386.09L241.78 385.93L241.72 385.77L241.64 385.59L241.56 385.4L241.47 385.2L241.37 384.99L241.27 384.77L241.15 384.55L241.03 384.31L240.9 384.07L240.76 383.83L240.62 383.58L240.46 383.33L240.3 383.07L240.12 382.81L239.94 382.55L239.75 382.28L239.55 382.02L239.34 381.76L239.12 381.5L238.88 381.24L238.64 380.98L238.39 380.72L238.13 380.48L237.86 380.23L237.57 379.99L237.28 379.76L236.97 379.53L236.66 379.31L236.33 379.11L235.99 378.91L236.01 378.9L236.06 378.9L236.15 378.89L236.28 378.88L236.43 378.87L236.62 378.86L236.83 378.85L237.07 378.84L237.33 378.84L237.62 378.84L237.93 378.85L238.26 378.86L238.61 378.88L238.97 378.91L239.35 378.94L239.75 378.99L240.16 379.05L240.58 379.11L241 379.2L241.44 379.29L241.88 379.4L242.33 379.53L242.78 379.67L243.23 379.83L243.67 380.01L244.12 380.21L244.57 380.43L245 380.67L245.44 380.94L245.86 381.22L246.27 381.54L246.68 381.87L247.07 382.24L247.44 382.63L247.8 383.05L248.14 383.5L248.46 383.98L248.76 384.49L249.04 385.03L249.29 385.6L249.29 382.8L254.49 382.8L255.29 377.21L257.29 377.21L257.29 375.61L260.88 375.61L260.88 375.59L260.88 375.58L260.88 375.56L260.87 375.54L260.87 375.51L260.87 375.48L260.87 375.44L260.87 375.4L260.87 375.35L260.88 375.31L260.88 375.26L260.9 375.2L260.91 375.15L260.93 375.09L260.95 375.03L260.98 374.97L261.01 374.91L261.04 374.84L261.08 374.78L261.13 374.72L261.19 374.65L261.25 374.59L261.32 374.53L261.39 374.46L261.48 374.4L261.57 374.34L261.67 374.28L261.78 374.23L261.9 374.17L262.03 374.12L262.16 374.07L262.31 374.02L262.47 373.98L262.65 373.94L262.83 373.91L263.02 373.87L263.23 373.85L263.45 373.82L263.68 373.81L263.68 367.61L266.78 367.61L267.78 366.01L273.28 366.01L273.28 354.71L274.88 354.71L275.68 351.51L278.08 351.51L278.09 351.1L278.13 350.71L278.19 350.35L278.27 350L278.38 349.67L278.5 349.37L278.64 349.08L278.8 348.82L278.97 348.57L279.16 348.35L279.36 348.15L279.57 347.96L279.79 347.8L280.02 347.66L280.26 347.53L280.51 347.43L280.76 347.35L281.01 347.28L281.27 347.24L281.53 347.21L281.79 347.21L282.05 347.22L282.3 347.26L282.55 347.31L282.8 347.38L283.04 347.47L283.27 347.58L283.49 347.71L283.7 347.86L283.9 348.03L284.09 348.21L284.26 348.42L284.42 348.64L284.56 348.88L284.68 349.14L284.79 349.42L284.87 349.71L284.93 350.03L284.97 350.36L284.98 350.71L285.98 350.71L285.98 354.71L287.58 354.71L287.58 357.91L289.18 357.91L289.18 360.31L292.48 360.31L292.48 363.51L294.08 363.51L294.08 361.91L296.48 361.91L296.48 356.41L311.77 356.51L311.77 369.91L313.37 369.91L313.37 336.52L314.97 335.02L314.97 328.92L315.77 328.92L315.77 336.12L317.37 336.12L317.37 334.52L319.77 334.52L319.77 338.52L331.07 338.52L331.07 359.41L332.67 359.41L332.67 345.71L335.07 345.71L335.07 344.91L335.87 344.91L335.87 345.71L341.46 345.71L341.46 370.61L355.96 370.61L355.96 375.41L357.56 375.41L358.26 377.01L359.96 377.01L359.96 373.81L358.76 373.81L359.66 372.21L363.16 372.21L363.16 370.61L365.56 370.61L365.56 367.41L366.86 367.41L367.46 364.21L369.46 364.21L369.66 361.51L369.66 360.91L370.46 360.91L370.46 362.51L374.46 362.51L374.46 363.31L375.26 363.31L375.26 364.91L377.56 364.91L378.16 368.11L380.06 368.11L380.06 381L386.25 381L386.75 381.8L388.95 381.8L388.95 393.1L390.55 393.1L391.35 393.9L392.25 393.9L392.95 394.7L393.95 394.7L395.05 396.3L396.85 396.3L397.75 397.1L398.35 397.1L399.35 399.1L399.35 399.2L400.95 399.2L400.95 400L-0.95 400L5.35 395.2L10.45 395.2L10.45 395.2L10.47 395.18L10.5 395.15L10.54 395.12L10.59 395.07L10.65 395.02L10.72 394.95L10.8 394.88L10.89 394.79L10.98 394.7L11.08 394.6L11.19 394.48L11.3 394.36L11.41 394.23L11.53 394.09L11.66 393.95L11.78 393.79L11.91 393.63L12.04 393.46L12.17 393.28L12.3 393.09L12.43 392.89L12.56 392.69L12.69 392.48L12.82 392.26L12.94 392.04L13.06 391.81L13.18 391.57L13.29 391.32L13.4 391.07L13.5 390.81L13.6 390.54L13.68 390.27L13.76 389.99L13.83 389.71L13.9 389.42L13.95 389.12L13.99 388.82L14.03 388.52L14.05 388.2L14.05 388.21L14.06 388.25L14.07 388.3L14.08 388.37L14.1 388.46L14.13 388.57L14.16 388.69L14.2 388.83L14.24 388.98L14.28 389.15L14.34 389.32L14.39 389.5L14.45 389.7L14.52 389.9L14.59 390.1L14.67 390.31L14.76 390.53L14.85 390.74L14.94 390.96L15.05 391.18L15.15 391.39L15.27 391.61L15.39 391.82L15.51 392.03L15.65 392.23L15.79 392.42L15.93 392.6L16.08 392.78L16.24 392.94L16.41 393.1L16.58 393.23L16.76 393.36L16.94 393.47L17.14 393.56L17.34 393.64L17.54 393.69L17.76 393.73L17.98 393.74L18.21 393.73L18.45 393.7L18.45 379.21L20.84 379.21L20.84 372.81L27.24 372.81L27.24 359.91L29.04 359.91L32.14 355.91L32.14 354.31L34.54 354.31L34.54 355.51L38.14 359.01L40.94 359.11L40.94 377.71L44.94 377.71L44.94 368.91L58.64 368.91L58.64 383.4L61.03 383.4L61.03 345.61L74.83 345.61L74.83 352.81L78.03 355.11L78.03 361.71L87.63 361.71L87.63 361.65L87.63 361.47L87.63 361.19L87.64 360.8L87.64 360.3L87.65 359.72L87.65 359.05L87.66 358.3L87.66 357.47L87.66 356.57L87.66 355.6L87.66 354.58L87.66 353.5L87.65 352.37L87.64 351.2L87.62 350L87.61 348.76L87.59 347.5L87.56 346.22L87.53 344.93L87.49 343.62L87.45 342.32L87.4 341.02L87.35 339.73L87.29 338.45L87.22 337.19L87.14 335.96L87.06 334.76L86.97 333.6L86.87 332.48L86.76 331.41L86.64 330.4L86.52 329.44L86.38 328.55L86.23 327.73L86.07 326.99L85.9 326.34L85.72 325.77L85.53 325.29L85.33 324.92L85.31 324.91L85.26 324.9L85.17 324.89L85.05 324.86L84.91 324.83L84.74 324.8L84.55 324.75L84.34 324.71L84.11 324.66L83.86 324.6L83.61 324.54L83.34 324.48L83.06 324.41L82.78 324.34L82.5 324.27L82.21 324.2L81.93 324.12L81.65 324.04L81.38 323.96L81.12 323.88L80.87 323.8L80.63 323.72L80.41 323.64L80.21 323.56L80.03 323.48L79.88 323.4L79.75 323.32L79.65 323.25L79.58 323.18L79.55 323.11L79.55 323.04L79.6 322.97L79.68 322.91L79.81 322.86L79.98 322.8L80.2 322.76L80.48 322.71L80.8 322.68L81.19 322.64L81.63 322.62L81.63 322.61L81.63 322.6L81.64 322.59L81.64 322.57L81.65 322.55L81.65 322.53L81.66 322.5L81.66 322.47L81.67 322.44L81.67 322.4L81.68 322.36L81.68 322.32L81.69 322.28L81.69 322.23L81.7 322.19L81.7 322.14L81.7 322.09L81.7 322.04L81.7 321.98L81.7 321.93L81.7 321.87L81.7 321.81L81.69 321.76L81.69 321.7L81.68 321.64L81.67 321.58L81.66 321.52L81.65 321.46L81.63 321.4L81.61 321.34L81.59 321.28L81.57 321.22L81.54 321.16L81.51 321.1L81.48 321.04L81.45 320.98L81.41 320.93L81.37 320.87L81.33 320.82L81.25 320.79L81.17 320.76L81.09 320.73L81.01 320.71L80.92 320.68L80.83 320.66L80.74 320.64L80.64 320.61L80.55 320.59L80.45 320.57L80.35 320.55L80.25 320.53L80.14 320.51L80.04 320.5L79.93 320.48L79.82 320.46L79.71 320.45L79.6 320.43L79.49 320.42L79.38 320.41L79.27 320.39L79.15 320.38L79.04 320.37L78.93 320.36L78.81 320.35L78.7 320.34L78.58 320.33L78.47 320.32L78.35 320.31L78.24 320.3L78.12 320.29L78.01 320.28L77.9 320.27L77.78 320.27L77.67 320.26L77.56 320.25L77.34 320.23L77.24 320.23L77.13 320.22L77.06 320.22L77 320.21L76.93 320.21L76.87 320.19L76.8 320.18L76.74 320.17L76.69 320.15L76.63 320.13L76.58 320.1L76.53 320.08L76.48 320.05L76.44 320.03L76.41 320L76.37 319.97L76.35 319.94L76.32 319.9L76.31 319.87L76.3 319.84L76.29 319.8L76.29 319.77L76.3 319.74L76.32 319.7L76.34 319.67L76.37 319.64L76.41 319.6L76.46 319.57L76.52 319.54L76.59 319.51L76.66 319.49L76.75 319.46L76.85 319.44L76.95 319.41L77.07 319.39L77.2 319.37L77.34 319.36L77.49 319.35L77.66 319.33L77.84 319.33L78.03 319.32L78.23 319.32L78.23 319.31L78.22 319.29L78.21 319.28L78.21 319.27L78.2 319.26L78.19 319.24L78.19 319.22L78.18 319.2L78.17 319.19L78.16 319.16L78.15 319.14L78.15 319.12L78.14 319.1L78.13 319.07L78.12 319.05L78.11 319.02L78.11 319L78.1 318.97L78.09 318.94L78.08 318.92L78.08 318.89L78.07 318.86L78.07 318.83L78.07 318.81L78.06 318.78L78.06 318.76L78.06 318.73L78.06 318.7L78.06 318.68L78.07 318.66L78.07 318.63L78.08 318.61L78.08 318.59L78.09 318.57L78.1 318.55L78.12 318.54L78.13 318.52L78.16 318.48L78.22 318.44L78.31 318.38L78.43 318.31L78.58 318.24L78.76 318.15L78.97 318.06L79.2 317.96L79.45 317.85L79.72 317.74L80.01 317.62L80.31 317.5L80.63 317.37L80.96 317.24L81.31 317.11L81.66 316.98L82.02 316.84L82.38 316.7L82.75 316.56L83.12 316.42L83.49 316.28L83.85 316.15L84.22 316.01L84.57 315.88L84.92 315.75L85.26 315.62L85.59 315.5L85.91 315.39L86.21 315.28L86.5 315.17L86.76 315.08L87.01 314.99L87.23 314.91L87.43 314.84L87.61 314.77L87.75 314.72L87.87 314.68L87.96 314.65L88.03 314.62L88.02 314.61L88.02 314.6L88.01 314.58L88 314.55L87.99 314.52L87.98 314.49L87.97 314.45L87.95 314.41L87.93 314.37L87.91 314.32L87.89 314.27L87.87 314.22L87.84 314.17L87.82 314.11L87.79 314.05L87.76 313.99L87.72 313.93L87.69 313.87L87.65 313.81L87.61 313.75L87.57 313.69L87.53 313.62L87.49 313.56L87.44 313.5L87.39 313.44L87.34 313.39L87.29 313.33L87.24 313.28L87.18 313.23L87.13 313.18L87.07 313.14L87.01 313.1L86.94 313.06L86.88 313.02L86.81 312.99L86.74 312.97L86.67 312.95L86.6 312.93L86.53 312.92L86.48 312.92L86.44 312.92L86.4 312.91L86.36 312.9L86.32 312.9L86.29 312.88L86.26 312.87L86.23 312.86L86.2 312.84L86.17 312.83L86.15 312.81L86.13 312.79L86.11 312.77L86.1 312.75L86.09 312.73L86.08 312.7L86.07 312.68L86.07 312.66L86.07 312.63L86.08 312.61L86.09 312.58L86.1 312.56L86.12 312.54L86.14 312.51L86.17 312.49L86.19 312.46L86.23 312.44L86.27 312.42L86.31 312.39L86.36 312.37L86.41 312.35L86.47 312.33L86.53 312.31L86.6 312.3L86.68 312.28L86.75 312.27L86.84 312.25L86.93 312.24L87.03 312.23L87.13 312.22L87.13 312.21L87.12 312.21L87.12 312.2L87.12 312.19L87.12 312.18L87.11 312.17L87.11 312.15L87.11 312.14L87.11 312.12L87.11 312.1L87.11 312.08L87.11 312.06L87.11 312.04L87.11 312.01L87.11 311.99L87.12 311.96L87.12 311.94L87.13 311.91L87.14 311.88L87.15 311.85L87.16 311.82L87.17 311.79L87.19 311.76L87.2 311.73L87.22 311.69L87.25 311.66L87.27 311.62L87.3 311.59L87.33 311.55L87.36 311.52L87.39 311.48L87.43 311.45L87.47 311.41L87.52 311.37L87.56 311.33L87.62 311.3L87.67 311.26L87.73 311.22L87.73 310.72L87.73 310.71L87.73 310.71L87.73 310.7L87.73 310.69L87.74 310.68L87.74 310.67L87.75 310.66L87.75 310.65L87.76 310.64L87.76 310.63L87.77 310.62L87.78 310.61L87.78 310.6L87.79 310.59L87.8 310.58L87.81 310.57L87.82 310.56L87.83 310.55L87.84 310.54L87.85 310.53L87.86 310.53L87.88 310.52L87.89 310.51L87.9 310.5L87.91 310.49L87.93 310.48L87.94 310.48L87.95 310.47L87.97 310.46L87.98 310.46L88 310.45L88.01 310.44L88.02 310.44L88.04 310.43L88.05 310.43L88.07 310.43L88.08 310.43L88.1 310.42L88.11 310.42L88.13 310.42L88.14 310.42L88.16 310.42L88.17 310.42L88.19 310.43L88.2 310.43L88.22 310.43L88.23 310.43L88.25 310.43L88.26 310.44L88.27 310.44L88.29 310.44L88.3 310.45L88.32 310.45L88.33 310.46L88.34 310.46L88.35 310.47L88.37 310.48L88.38 310.48L88.39 310.49L88.4 310.5L88.41 310.5L88.42 310.51L88.43 310.52L88.44 310.53L88.45 310.54L88.46 310.55L88.47 310.56L88.48 310.57L88.49 310.58L88.49 310.59L88.5 310.6L88.51 310.61L88.51 310.63L88.51 310.64L88.52 310.65L88.52 310.67L88.52 310.68L88.53 310.69L88.53 310.71L88.53 310.72L88.53 310.92L89.53 310.72L89.33 310.52L89.33 310.39L89.33 310.28L89.33 310.25L89.33 310.21L89.33 310.17L89.33 310.14L89.34 310.1L89.34 310.06L89.34 310.03L89.35 309.99L89.35 309.96L89.36 309.92L89.36 309.89L89.37 309.85L89.38 309.82L89.39 309.79L89.39 309.75L89.4 309.72L89.42 309.69L89.43 309.66L89.44 309.63L89.45 309.61L89.47 309.58L89.48 309.56L89.5 309.53L89.52 309.51L89.54 309.48L89.56 309.46L89.58 309.44L89.6 309.43L89.62 309.41L89.65 309.39L89.67 309.38L89.7 309.37L89.73 309.35L89.76 309.35L89.79 309.34L89.82 309.33L89.86 309.33L89.89 309.32L89.93 309.32L90.13 309.32L90.13 301.32L90.13 301.32L90.13 301.31L90.13 301.31L90.13 301.3L90.13 301.29L90.13 301.28L90.14 301.27L90.14 301.26L90.14 301.25L90.15 301.24L90.15 301.22L90.16 301.21L90.17 301.19L90.18 301.18L90.19 301.16L90.2 301.15L90.21 301.13L90.23 301.11L90.24 301.1L90.26 301.08L90.28 301.06L90.3 301.04L90.32 301.03L90.35 301.01L90.37 300.99L90.4 300.98L90.43 300.96L90.46 300.94L90.5 300.93L90.54 300.92L90.58 300.9L90.62 300.89L90.66 300.87L90.71 300.86L90.76 300.85L90.81 300.84L90.87 300.83L90.93 300.82L90.99 300.83L91.04 300.83ZM127.96 342.6L127.77 342.8L127.66 343.06L127.62 343.31L127.67 343.57L127.81 343.83L128 344.03L128.22 344.11L129.22 344.11L129.44 344.03L129.63 343.83L129.77 343.57L129.82 343.31L129.77 343.06L129.63 342.8L129.44 342.6L129.22 342.51L128.22 342.51L127.96 342.6ZM137.05 342.6L136.87 342.8L136.75 343.06L136.72 343.31L136.77 343.57L136.9 343.83L137.1 344.03L137.32 344.11L138.32 344.11L138.54 344.03L138.73 343.83L138.86 343.57L138.92 343.31L138.86 343.06L138.73 342.8L138.54 342.6L138.32 342.51L137.32 342.51L137.05 342.6Z" id="c46x2urSi"></path><path d="M173.47 228.99L173.26 231.64L172.98 234.22L172.61 236.72L172.17 239.14L171.65 241.49L171.06 243.77L170.39 245.97L169.64 248.09L168.83 250.14L167.94 252.12L166.99 254.02L165.97 255.85L164.87 257.61L163.72 259.29L162.49 260.9L161.2 262.44L159.85 263.91L158.44 265.31L156.97 266.63L155.43 267.89L153.84 269.07L152.19 270.18L150.48 271.23L148.72 272.2L146.91 273.11L145.04 273.94L143.12 274.71L141.15 275.41L139.13 276.04L137.06 276.6L134.94 277.1L132.78 277.53L130.57 277.89L128.32 278.19L126.03 278.41L123.69 278.58L121.31 278.68L118.9 278.71L116.72 278.68L114.59 278.6L112.51 278.46L110.47 278.27L108.47 278.02L106.52 277.73L104.62 277.38L102.75 276.99L100.93 276.54L99.16 276.05L97.42 275.52L95.73 274.94L94.08 274.32L92.47 273.65L90.9 272.95L89.37 272.2L87.89 271.42L86.44 270.59L85.03 269.73L83.66 268.84L82.33 267.91L81.04 266.95L79.78 265.95L78.57 264.93L77.39 263.87L76.25 262.79L75.14 261.67L74.07 260.53L73.04 259.37L72.04 258.18L71.08 256.97L70.15 255.73L69.26 254.48L68.4 253.2L67.58 251.91L66.78 250.6L66.03 249.27L65.3 247.92L64.6 246.57L63.94 245.19L93.78 227.12L94.21 227.89L94.64 228.64L95.08 229.39L95.51 230.13L95.94 230.86L96.37 231.58L96.81 232.3L97.25 233L97.69 233.69L98.14 234.37L98.59 235.03L99.05 235.69L99.51 236.33L99.99 236.95L100.47 237.56L100.96 238.15L101.46 238.73L101.97 239.29L102.49 239.83L103.02 240.36L103.57 240.86L104.13 241.35L104.7 241.81L105.29 242.26L105.9 242.68L106.52 243.08L107.15 243.45L107.81 243.81L108.48 244.13L109.18 244.44L109.89 244.71L110.62 244.97L111.38 245.19L112.15 245.39L112.95 245.55L113.78 245.69L114.63 245.8L115.5 245.88L116.4 245.93L117.32 245.94L118.22 245.93L119.1 245.91L119.96 245.86L120.81 245.79L121.63 245.7L122.44 245.59L123.23 245.46L124 245.31L124.75 245.13L125.49 244.92L126.2 244.69L126.89 244.43L127.56 244.14L128.21 243.83L128.84 243.48L129.45 243.11L130.04 242.7L130.61 242.27L131.15 241.8L131.67 241.3L132.17 240.76L132.65 240.19L133.1 239.58L133.53 238.93L133.94 238.25L134.32 237.53L134.67 236.77L135.01 235.97L135.31 235.12L135.6 234.24L135.85 233.31L136.08 232.34L136.29 231.33L136.47 230.27L136.62 229.17L136.74 228.02L136.84 226.82L136.91 225.57L136.95 224.27L136.97 222.93L136.97 98.32L173.63 98.32L173.63 223.45L173.59 226.26L173.59 226.26L173.47 228.99ZM262.36 96.43L264.03 96.54L265.67 96.68L267.28 96.86L268.87 97.06L270.44 97.3L271.99 97.58L273.51 97.89L275.01 98.23L276.49 98.61L277.94 99.03L279.37 99.48L280.78 99.97L282.17 100.5L283.53 101.07L284.88 101.67L286.2 102.31L287.5 102.99L288.78 103.71L290.04 104.48L291.28 105.28L292.5 106.12L293.69 107.01L294.87 107.93L296.03 108.91L297.17 109.92L298.28 110.97L299.38 112.08L300.46 113.22L301.52 114.41L302.56 115.65L303.58 116.93L304.59 118.26L305.57 119.63L306.54 121.05L307.49 122.52L308.42 124.04L309.34 125.61L280.77 143.9L280.3 143.07L279.82 142.26L279.34 141.48L278.86 140.73L278.38 140L277.89 139.29L277.4 138.61L276.9 137.95L276.41 137.31L275.9 136.7L275.39 136.11L274.88 135.54L274.36 135L273.83 134.48L273.3 133.98L272.76 133.5L272.22 133.05L271.67 132.61L271.11 132.2L270.55 131.81L269.97 131.44L269.39 131.09L268.8 130.77L268.2 130.46L267.6 130.17L266.98 129.91L266.35 129.66L265.72 129.43L265.07 129.22L264.42 129.04L263.75 128.87L263.07 128.71L262.39 128.58L261.69 128.47L260.97 128.37L260.25 128.29L259.51 128.23L258.77 128.19L258 128.17L257.23 128.16L256.43 128.17L255.65 128.21L254.88 128.27L254.13 128.36L253.4 128.47L252.68 128.6L251.97 128.76L251.29 128.94L250.62 129.14L249.96 129.36L249.33 129.61L248.71 129.87L248.11 130.16L247.53 130.46L246.97 130.79L246.42 131.13L245.9 131.49L245.39 131.87L244.9 132.27L244.44 132.68L243.99 133.11L243.56 133.56L243.16 134.03L242.77 134.51L242.41 135L242.07 135.51L241.75 136.03L241.45 136.57L241.17 137.12L240.92 137.68L240.69 138.25L240.48 138.84L240.3 139.44L240.14 140.04L240 140.66L239.89 141.29L239.8 141.93L239.74 142.58L239.7 143.24L239.68 143.9L239.7 144.72L239.74 145.51L239.8 146.27L239.89 147.02L240.01 147.74L240.15 148.45L240.32 149.13L240.52 149.79L240.74 150.44L241 151.07L241.27 151.68L241.58 152.28L241.92 152.87L242.28 153.44L242.67 153.99L243.09 154.54L243.54 155.07L244.01 155.59L244.52 156.11L245.05 156.61L245.62 157.11L246.21 157.6L246.84 158.08L247.49 158.56L248.17 159.03L248.89 159.5L249.63 159.97L250.41 160.43L251.21 160.9L252.05 161.36L252.92 161.83L253.82 162.29L254.75 162.76L255.72 163.23L256.71 163.71L257.74 164.19L258.8 164.67L259.89 165.16L261.02 165.66L262.18 166.17L271.32 170.07L273.64 171.07L275.9 172.07L278.11 173.08L280.27 174.1L282.37 175.12L284.43 176.15L286.42 177.19L288.37 178.24L290.26 179.31L292.1 180.39L293.88 181.49L295.61 182.61L297.28 183.75L298.89 184.9L300.45 186.09L301.95 187.29L303.4 188.52L304.79 189.78L306.12 191.07L307.39 192.39L308.6 193.74L309.76 195.13L310.85 196.55L311.89 198.01L312.86 199.51L313.78 201.04L314.63 202.62L315.43 204.24L316.16 205.91L316.83 207.62L317.44 209.38L317.98 211.2L318.47 213.06L318.89 214.97L319.24 216.94L319.54 218.96L319.76 221.05L319.93 223.19L320.03 225.39L320.06 227.65L320.01 230.1L319.87 232.49L319.63 234.82L319.3 237.1L318.88 239.31L318.36 241.48L317.77 243.58L317.08 245.63L316.31 247.62L315.46 249.54L314.53 251.41L313.52 253.23L312.42 254.98L311.26 256.67L310.02 258.3L308.7 259.87L307.31 261.38L305.86 262.83L304.33 264.22L302.74 265.55L301.08 266.81L299.36 268.02L297.58 269.16L295.73 270.24L293.83 271.25L291.87 272.2L289.86 273.09L287.79 273.91L285.67 274.67L283.49 275.37L281.27 276L279 276.56L276.69 277.06L274.33 277.5L271.93 277.87L269.48 278.17L267 278.4L264.48 278.57L261.92 278.67L259.33 278.71L256.79 278.68L254.3 278.6L251.86 278.45L249.46 278.25L247.1 278L244.79 277.68L242.53 277.31L240.31 276.89L238.14 276.42L236.01 275.89L233.92 275.31L231.88 274.69L229.88 274.01L227.93 273.29L226.03 272.52L224.16 271.71L222.35 270.85L220.57 269.95L218.84 269.01L217.15 268.02L215.51 267L213.91 265.94L212.36 264.84L210.85 263.7L209.38 262.53L207.95 261.32L206.57 260.08L205.23 258.81L203.94 257.5L202.69 256.17L201.48 254.8L200.31 253.41L199.19 251.99L198.11 250.54L197.07 249.07L196.08 247.57L195.13 246.05L194.22 244.51L193.35 242.95L192.52 241.37L222.37 224.05L222.96 225.01L223.56 225.95L224.18 226.88L224.8 227.79L225.44 228.69L226.08 229.57L226.74 230.44L227.41 231.29L228.1 232.12L228.79 232.94L229.5 233.74L230.23 234.51L230.97 235.27L231.72 236.01L232.49 236.73L233.28 237.43L234.09 238.1L234.91 238.76L235.75 239.39L236.61 239.99L237.49 240.57L238.39 241.13L239.31 241.67L240.24 242.17L241.2 242.65L242.19 243.11L243.19 243.53L244.22 243.93L245.27 244.3L246.34 244.64L247.44 244.95L248.56 245.23L249.71 245.48L250.88 245.7L252.09 245.89L253.31 246.04L254.57 246.16L255.85 246.25L257.16 246.3L258.5 246.32L259.63 246.3L260.74 246.26L261.83 246.19L262.9 246.1L263.94 245.97L264.96 245.82L265.96 245.65L266.94 245.45L267.89 245.22L268.81 244.97L269.72 244.7L270.59 244.4L271.44 244.08L272.27 243.73L273.07 243.37L273.84 242.98L274.59 242.57L275.3 242.14L275.99 241.69L276.66 241.22L277.29 240.73L277.9 240.22L278.47 239.69L279.02 239.14L279.53 238.58L280.02 238L280.47 237.4L280.9 236.78L281.29 236.15L281.65 235.5L281.97 234.84L282.27 234.16L282.53 233.47L282.76 232.76L282.95 232.04L283.11 231.31L283.23 230.56L283.32 229.8L283.38 229.03L283.4 228.25L283.38 227.32L283.32 226.42L283.23 225.55L283.1 224.7L282.93 223.89L282.73 223.1L282.5 222.33L282.22 221.58L281.92 220.86L281.58 220.16L281.2 219.48L280.79 218.82L280.35 218.18L279.87 217.55L279.36 216.94L278.82 216.35L278.24 215.77L277.63 215.2L276.99 214.64L276.32 214.1L275.62 213.56L274.88 213.04L274.12 212.52L273.32 212.01L272.5 211.5L271.64 211L270.76 210.5L269.84 210L268.9 209.51L267.93 209.02L266.93 208.52L265.9 208.03L264.84 207.53L263.76 207.03L262.65 206.52L261.51 206.01L260.35 205.49L259.16 204.96L257.95 204.43L256.7 203.88L247.56 199.98L245.59 199.13L243.65 198.27L241.76 197.4L239.89 196.51L238.07 195.6L236.28 194.68L234.53 193.74L232.82 192.78L231.15 191.8L229.51 190.8L227.93 189.78L226.38 188.73L224.88 187.65L223.42 186.55L222 185.43L220.63 184.27L219.31 183.08L218.03 181.86L216.81 180.61L215.63 179.33L214.5 178.01L213.42 176.65L212.39 175.26L211.42 173.83L210.49 172.36L209.62 170.85L208.81 169.29L208.05 167.7L207.35 166.05L206.7 164.37L206.11 162.63L205.58 160.85L205.11 159.02L204.7 157.14L204.35 155.21L204.06 153.22L203.84 151.18L203.68 149.09L203.58 146.94L203.55 144.73L203.59 142.68L203.7 140.65L203.9 138.65L204.16 136.68L204.51 134.75L204.93 132.84L205.42 130.96L205.98 129.12L206.62 127.32L207.33 125.55L208.1 123.82L208.95 122.13L209.86 120.48L210.84 118.87L211.89 117.31L213.01 115.79L214.18 114.32L215.43 112.89L216.73 111.52L218.1 110.19L219.53 108.92L221.02 107.69L222.57 106.53L224.18 105.42L225.84 104.36L227.57 103.37L229.35 102.43L231.18 101.55L233.07 100.74L235.02 99.99L237.02 99.31L239.06 98.69L241.16 98.14L243.32 97.66L245.52 97.24L247.76 96.91L250.06 96.64L252.4 96.45L254.79 96.33L257.23 96.29L258.97 96.31L260.68 96.35L260.68 96.35L262.36 96.43Z" id="i2E1qwMUzr"></path></defs><g><g><g><use xlink:href="#a1yJdMZ4fs" opacity="1" fill="#5d9630" fill-opacity="1"></use></g><g><use xlink:href="#c46x2urSi" opacity="1" fill="#373737" fill-opacity="1"></use><g><use xlink:href="#c46x2urSi" opacity="1" fill-opacity="0" stroke="#000000" stroke-width="1" stroke-opacity="0"></use></g></g><g><use xlink:href="#i2E1qwMUzr" opacity="1" fill="#373737" fill-opacity="1"></use><g><use xlink:href="#i2E1qwMUzr" opacity="1" fill-opacity="0" stroke="#000000" stroke-width="1" stroke-opacity="0"></use></g></g></g></g></svg>