<svg id="Layer_1" data-name="Layer 1" xmlns="http://www.w3.org/2000/svg" width="850" height="144.67" viewBox="0 0 850 144.67"><defs><style>.cls-1{fill:#fff;}.cls-2{fill:#666;}.cls-3{fill:#777;}.cls-4{fill:#898989;}.cls-5{fill:#ababab;}.cls-6{fill:#9a9a9a;}.cls-7{fill:#555;}.cls-8{fill:#bcbcbc;}.cls-9{fill:#333;}.cls-10{fill:#444;}.cls-11{fill:#cdcdcd;}</style></defs><title>spaces</title><path class="cls-1" d="M5.55.88V36.41c21.2-9.89,39.92-24.92,61.12-34.82C61.41-.61,53.17.88,47.48.88Z"/><path class="cls-2" d="M67.14,1.12c-.31.32.44.28.48.24C67.93,1,67.18,1.08,67.14,1.12Z"/><path class="cls-1" d="M68.09.88c4.53,3.94,10.44,6.56,15.64,9.54,9.49,5.45,18.92,11,28.42,16.46,4.75,2.72,12.49,5.46,15.92,9.8,1.82,2.32,1.14,6.22,1.14,9V95.4c0,3.47,1,8.88-.73,12-1.17,2.11-3.67,3.19-5.67,4.34l-11.37,6.6c-14.23,8.1-28.31,18.19-43.35,24.67,5.6,2.35,14.55.71,20.61.71H844.83V122.4c-3,4.18-5.87,8.43-11.37,9.19-7.63,1-16-7.14-14.24-14.87,3-13.26,20.51-14.33,24.9-1.42,1.4-3.36.71-7.76.71-11.37V.88Z"/><path class="cls-3" d="M65.25,1.59,66,2.3Z"/><path d="M66,2.08c-4.91,1.13-9.87,5.25-14.21,7.74L20.48,27.89l-10,5.79c-1.64,1-3.72,1.84-4.55,3.68C4.13,41.52,5.55,49,5.55,53.47V91.13c0,4.39-1.64,13,.73,16.79,2,3.15,7.5,5.08,10.64,6.87,7.86,4.47,15.62,9.1,23.46,13.6l19.18,11.07c2.38,1.37,5.62,4.06,8.53,3.61,4.44-.7,9.62-5.15,13.5-7.36,10.7-6.1,21.29-12.39,32-18.48,4.09-2.33,12.36-5.31,14.91-9.32,2.22-3.5.73-11.31.73-15.35V53.47c0-4.29,1.66-13-.73-16.68-1.56-2.39-5.39-3.78-7.8-5.15-6-3.38-11.83-6.87-17.77-10.26Q90.09,14.06,77.33,6.58C74.13,4.7,69.89,1.18,66,2.08Z"/><path class="cls-3" d="M68.8,1.59l.71.71Z"/><path class="cls-4" d="M63.83,2.3l.71.71Z"/><path class="cls-5" d="M70.22,2.3l.71.71Z"/><path class="cls-2" d="M72.36,3.73l.71.71Z"/><path class="cls-3" d="M60.27,4.44l.71.71Z"/><path class="cls-4" d="M73.78,4.44l.71.71Z"/><path class="cls-6" d="M58.85,5.15l.71.71Z"/><path class="cls-7" d="M56.72,6.57l.71.71Z"/><path class="cls-3" d="M77.33,6.57l.71.71-.71-.71m-22,.71L56,8Z"/><path class="cls-6" d="M78.75,7.28l.71.71-.71-.71M53.88,8l.71.71Z"/><path class="cls-7" d="M80.88,8.7l.71.71Z"/><path class="cls-8" d="M218.75,8.7c2.05.86,4.17.71,6.39.71-2-.86-4.17-.71-6.39-.71m331.16,0a13.93,13.93,0,0,0,5.68.71,13.91,13.91,0,0,0-5.68-.71m207.51,0a13.91,13.91,0,0,0,5.68.71A13.89,13.89,0,0,0,757.42,8.7Z"/><path class="cls-2" d="M51.75,9.41l.71.71Z"/><path class="cls-3" d="M82.3,9.41l.71.71-.71-.71m130.76,0a5,5,0,0,0,2.14.71A5.07,5.07,0,0,0,213.06,9.41Z"/><path class="cls-9" d="M215.67,9.65c-.32.31.43.27.47.23C216.46,9.57,215.71,9.61,215.67,9.65Z"/><path d="M248.6,45.65c4.77-3.36,8.59-8,12.79-12,1.3-1.26,4.11-3,4.11-5.06,0-1.65-1.61-2.91-2.71-3.9a68.27,68.27,0,0,0-9.22-6.92c-13.88-8.82-34.21-11-49.75-5.56-8.21,2.87-15.7,7.61-20.53,15-7.77,11.9-6.69,31.55,3.68,41.61,10.6,10.29,26.76,11.66,40.31,15.54,7.64,2.19,17.69,6.41,16.19,16-1.59,10.21-15.73,12-24,11.25A41.64,41.64,0,0,1,201,105.56c-2.76-1.78-6.52-6.86-9.95-6.78-3.64.08-8.12,5.74-10.66,8-1.72,1.56-4.72,3.45-5.56,5.7s1.49,4.71,2.93,6.27a48.61,48.61,0,0,0,16.14,11.13c12,5.16,24.82,6.06,37.66,4.68,9.44-1,19.11-3.51,26.29-10.13a31.68,31.68,0,0,0,9.94-17c3-13.89.67-29-11.36-37.94-5.78-4.31-13-6.94-19.9-8.7s-13.86-3.23-20.6-5.47c-4.2-1.4-8.35-3-10.86-6.88-5.3-8.29,5.52-14.25,12.28-15.32C229.18,31.31,240.34,37.76,248.6,45.65Z"/><path class="cls-10" d="M228.46,9.65c-.32.31.43.27.47.23C229.25,9.57,228.5,9.61,228.46,9.65Z"/><path class="cls-3" d="M229.88,9.65c-.31.31.44.27.48.23C230.67,9.57,229.92,9.61,229.88,9.65Z"/><path class="cls-11" d="M231.3,9.65c-.31.31.44.27.48.23C232.09,9.57,231.34,9.61,231.3,9.65Z"/><path class="cls-4" d="M543.51,9.41a5,5,0,0,0,2.14.71A5,5,0,0,0,543.51,9.41Z"/><path class="cls-9" d="M546.12,9.65c-.32.31.43.27.47.23C546.91,9.57,546.16,9.61,546.12,9.65Z"/><path d="M596.81,107.48c-6.7-3.57-13.83-9.93-21.32-11.37-2.89,5.07-6.83,9.76-12.08,12.51-11.06,5.79-24.53,1.26-31.81-8.25-12.26-16-12.26-46.2,3.41-60.19a25.6,25.6,0,0,1,31.24-2.27c2.84,1.9,5.42,7.09,8.66,7.87,2,.49,4.5-1.08,6.27-1.85a146.72,146.72,0,0,0,15.63-7.52C589,9.83,551.29,3.68,529.3,14.37c-12.13,5.9-21.26,16.63-26,29.15-9.46,25.07-7,59.55,13.2,78.85C539.86,144.69,584.14,137.9,596.81,107.48Z"/><path class="cls-10" d="M558.91,9.65c-.32.31.44.27.47.23C559.7,9.57,559,9.61,558.91,9.65Z"/><path class="cls-3" d="M560.33,9.65c-.31.31.44.27.48.23C561.12,9.57,560.37,9.61,560.33,9.65Z"/><path class="cls-11" d="M561.75,9.65c-.31.31.44.27.48.23C562.54,9.57,561.79,9.61,561.75,9.65Z"/><path class="cls-3" d="M750.31,9.41a7.39,7.39,0,0,0,2.84.71A7.57,7.57,0,0,0,750.31,9.41Z"/><path class="cls-10" d="M753.63,9.65c-.32.31.43.27.47.23C754.42,9.57,753.67,9.61,753.63,9.65Z"/><path d="M729.7,97.53c-6.48,4.29-11.45,10.47-17.76,14.92,3.06,9,14.37,15.2,22.74,18.48,23.43,9.18,64.78,6.43,71.3-23.45,2.61-12,1.43-26.49-8.12-35.32-7.41-6.85-17.46-9.7-26.94-12.29-8.42-2.29-22.78-3.14-27.81-11.38s5.4-14.25,12.18-15.32c11.85-1.86,23.1,4.49,31.26,12.48,4.58-3.22,8.7-7.59,12.8-11.43,1.45-1.37,4.11-3.39,4.11-5.62,0-2.68-3.71-5-5.53-6.44A55.31,55.31,0,0,0,778,11.85c-22.52-6.36-58-.28-61,28.12a51.16,51.16,0,0,0,.19,12.79c3.42,21.73,25.79,26,43.75,30.47,8.55,2.14,25.58,7,20,19.27-2.51,5.59-8.06,7.6-13.64,8.67C753.14,113.9,739.56,107.36,729.7,97.53Z"/><path class="cls-10" d="M766,9.41a7.39,7.39,0,0,0,2.84.71A7.57,7.57,0,0,0,766,9.41Z"/><path class="cls-8" d="M769.26,9.65c-.32.31.44.27.47.23C770.05,9.57,769.3,9.61,769.26,9.65Z"/><path class="cls-3" d="M50.33,10.12l.71.71Z"/><path class="cls-6" d="M83.73,10.12l.71.71Z"/><path class="cls-3" d="M208.8,10.12a5,5,0,0,0,2.13.71,5,5,0,0,0-2.13-.71m24.87,0a5,5,0,0,0,2.13.71A5,5,0,0,0,233.67,10.12Z"/><path class="cls-2" d="M540,10.12a5,5,0,0,0,2.13.71A5,5,0,0,0,540,10.12Z"/><path class="cls-7" d="M563.41,10.12a5,5,0,0,0,2.13.71,5,5,0,0,0-2.13-.71M748,10.36c-.32.31.43.27.46.23C748.73,10.28,748,10.32,748,10.36Z"/><path class="cls-3" d="M771.63,10.12a5,5,0,0,0,2.13.71A5,5,0,0,0,771.63,10.12Z"/><path class="cls-5" d="M48.9,10.83l.71.71Z"/><path class="cls-3" d="M206.43,11.07c-.32.31.43.27.47.24C207.22,11,206.47,11,206.43,11.07Z"/><path class="cls-6" d="M237.7,11.07c-.32.31.43.27.47.24C238.49,11,237.74,11,237.7,11.07Z"/><path class="cls-3" d="M287.68,10.83c4.92,2.06,12.45.71,17.77.71h39.79c-4.91-2.06-12.45-.71-17.76-.71Z"/><path class="cls-8" d="M345.24,10.83a5,5,0,0,0,2.14.71A5.17,5.17,0,0,0,345.24,10.83Z"/><path class="cls-3" d="M423.41,10.83c7.29,3.06,17.08-.43,24.88,1.42-2.48-1.87-5.51-1.42-8.53-1.42H423.41m114.18.24c-.31.31.44.27.48.24.31-.32-.44-.28-.48-.24m29.85,0c-.32.31.43.27.47.24.32-.32-.43-.28-.47-.24m45,122.7c1.48-3.53.71-8.28.71-12.08V11.54h84.56c-5.42-2.28-14-.71-19.89-.71h-59c-1.72,0-4.44-.4-5.66,1.14-1.57,2-.73,6.45-.73,8.81v113Z"/><path class="cls-10" d="M745.1,11.07c-.32.31.44.27.47.24C745.89,11,745.14,11,745.1,11.07Z"/><path class="cls-4" d="M775.66,11.07c-.32.31.43.28.47.24C776.45,11,775.7,11,775.66,11.07Z"/><path class="cls-2" d="M85.86,11.54l.71.71Z"/><path class="cls-6" d="M203.82,11.54l.72.71Z"/><path class="cls-5" d="M240.54,11.78c-.31.31.44.28.47.24C241.33,11.7,240.58,11.74,240.54,11.78Z"/><path class="cls-10" d="M287.68,11.54V133.77h24.87c-2.63-1.1-5.69-.71-8.52-.71H288.39V23.62C288.39,19.82,289.16,15.07,287.68,11.54Z"/><path d="M288.39,11.54V133.06h24.16V89.71c17.43,0,38.31,3.27,54-5.85,21.42-12.44,23.2-50.08,2.85-64.47-11.41-8.06-24.33-7.85-37.67-7.85Z"/><path class="cls-10" d="M349.27,11.78c-.32.31.43.28.47.24C350.06,11.7,349.31,11.74,349.27,11.78Z"/><path class="cls-6" d="M350.69,11.78c-.31.31.44.28.48.24C351.48,11.7,350.73,11.74,350.69,11.78Z"/><path d="M423.41,11.54c-3.35,12.3-9,24.36-13.63,36.25-11,28.29-22.84,56.53-32.56,85.27H395c2.22,0,5.47.58,7.52-.43S405.18,128,406,126c1.67-4.48,3.11-9,4.81-13.51.65-1.7,1.13-4,2.49-5.25s3.44-1.13,5.19-1.14c4.26,0,8.53,0,12.79,0H449c2.3,0,5.57-.55,7.62.73,2.21,1.39,2.72,4.8,3.53,7.09,2.25,6.31,5.07,12.66,6.61,19.18h27c-3.1-11.34-8.31-22.4-12.49-33.4Q470.6,71.6,460,43.52c-2.77-7.35-5.62-14.66-8.35-22-1-2.66-1.93-7.52-4.39-9.22-1.77-1.22-4.72-.73-6.75-.73Z"/><path class="cls-10" d="M535.46,11.78c-.32.32.43.28.47.24C536.25,11.7,535.5,11.74,535.46,11.78Z"/><path class="cls-3" d="M569.81,11.54l.71.71Z"/><path d="M613.16,11.54V133.06h86.7V109.61H637.32V79.76h34.82V56.31H637.32V35h60.4V11.54Z"/><path class="cls-8" d="M697.72,11.54V35c.95-2.25.71-4.67.71-7.1C698.43,23,699.64,16.12,697.72,11.54Z"/><path class="cls-5" d="M741.78,11.54l.71.71Z"/><path class="cls-6" d="M778.5,11.78c-.32.31.44.28.47.24C779.29,11.7,778.54,11.74,778.5,11.78Z"/><path class="cls-3" d="M46.77,12.25l.71.71-.71-.71m40.51,0L88,13Z"/><path class="cls-7" d="M202.17,12.49c-.32.32.43.28.47.24C203,12.41,202.21,12.45,202.17,12.49Z"/><path class="cls-3" d="M242.2,12.25l.71.71Z"/><path class="cls-2" d="M353.53,12.49c-.31.32.44.28.48.24C354.32,12.41,353.57,12.45,353.53,12.49Z"/><path class="cls-5" d="M532.85,12.25l.71.71Z"/><path class="cls-7" d="M533.56,12.25l.72.71Z"/><path class="cls-3" d="M571.94,12.25l.71.71Z"/><path class="cls-2" d="M740.36,12.25l.71.71Z"/><path class="cls-5" d="M780.64,12.49c-.32.32.43.28.46.24C781.42,12.41,780.67,12.45,780.64,12.49Z"/><path class="cls-4" d="M45.35,13l.71.71Z"/><path class="cls-5" d="M88.7,13l.71.71Z"/><path class="cls-2" d="M200.27,13l.71.71Z"/><path class="cls-6" d="M244.33,13l.71.71Z"/><path class="cls-3" d="M356.61,13l.71.71Z"/><path class="cls-2" d="M422.7,13l.71.71Z"/><path class="cls-7" d="M448.52,13.44s-.08.79.24.47C448.8,13.87,448.84,13.12,448.52,13.44Z"/><path class="cls-3" d="M531.43,13l.71.71Z"/><path class="cls-7" d="M573.36,13l.71.71Z"/><path class="cls-5" d="M574.07,13l.71.71Z"/><path class="cls-3" d="M738.23,13l.71.71-.71-.71m44.06,0,.71.71Z"/><path class="cls-2" d="M198.85,13.67l.71.71-.71-.71m46.9,0,.71.71Z"/><path class="cls-3" d="M358.75,13.67l.71.71Z"/><path class="cls-6" d="M575.49,13.67l.71.71Z"/><path class="cls-3" d="M736.81,13.67l.71.71Z"/><path class="cls-6" d="M784.42,13.67l.71.71Z"/><path class="cls-7" d="M43.22,14.38l.71.72Z"/><path class="cls-3" d="M90.83,14.38l.71.72Z"/><path class="cls-6" d="M360.88,14.38l.71.72-.71-.72m61.11,0,.71.72-.71-.72m154.92,0,.71.72Z"/><path class="cls-2" d="M735.39,14.38l.71.72Z"/><path class="cls-6" d="M785.84,14.38l.71.72Z"/><path class="cls-3" d="M41.8,15.1l.71.71Z"/><path class="cls-4" d="M92.25,15.1l.71.71Z"/><path class="cls-2" d="M196,15.1l.71.71Z"/><path class="cls-3" d="M362.3,15.1l.71.71Z"/><path class="cls-4" d="M449,15.1l.71.71Z"/><path class="cls-2" d="M527.17,15.1l.71.71Z"/><path class="cls-3" d="M734,15.1l.71.71Z"/><path class="cls-6" d="M787.27,15.1l.71.71-.71-.71m-746.89.71.71.71Z"/><path class="cls-3" d="M194.59,15.81l.71.71-.71-.71m169.13,0,.71.71Z"/><path class="cls-2" d="M525.75,15.81l.71.71-.71-.71m53.3,0,.71.71Z"/><path class="cls-6" d="M732.55,15.81l.71.71-.71-.71m56.14,0,.71.71Z"/><path class="cls-7" d="M94.39,16.52l.71.71Z"/><path class="cls-3" d="M365.14,16.52l.71.71-.71-.71m56.14,0,.71.71Z"/><path class="cls-5" d="M524.33,16.52l.71.71Z"/><path class="cls-4" d="M580.47,16.52l.71.71Z"/><path class="cls-2" d="M38.24,17.23l.71.71Z"/><path class="cls-3" d="M95.81,17.23l.71.71-.71-.71m96.64,0,.72.71-.72-.71m60.41,0,.71.71Z"/><path class="cls-2" d="M449.71,17.23l.71.71Z"/><path class="cls-7" d="M523.62,17.23l.71.71-.71-.71m57.56,0,.71.71Z"/><path class="cls-6" d="M730.41,17.23l.71.71Z"/><path class="cls-7" d="M790.82,17.23l.71.71Z"/><path class="cls-3" d="M36.82,17.94l.71.71Z"/><path class="cls-6" d="M97.23,17.94l.71.71Z"/><path class="cls-7" d="M367.27,17.94l.71.71-.71-.71m53.54.47s-.08.79.24.48C421.08,18.85,421.12,18.1,420.81,18.41Z"/><path class="cls-5" d="M522.19,17.94l.71.71Z"/><path class="cls-7" d="M729.7,17.94l.71.71Z"/><path class="cls-5" d="M792.24,17.94l.71.71-.71-.71M35.4,18.65l.71.71Z"/><path class="cls-6" d="M190.32,18.65l.71.71Z"/><path class="cls-3" d="M255,18.65l.71.71Z"/><path class="cls-5" d="M368.69,18.65l.72.71Z"/><path class="cls-6" d="M450.42,18.65l.71.71Z"/><path class="cls-7" d="M521.48,18.65l.71.71Z"/><path class="cls-3" d="M583.31,18.65l.71.71Z"/><path class="cls-7" d="M793,18.65l.71.71Z"/><path class="cls-2" d="M99.36,19.36l.71.71Z"/><path class="cls-3" d="M189.61,19.36l.71.71-.71-.71m179.8,0,.71.71Z"/><path class="cls-2" d="M584,19.36l.71.71Z"/><path class="cls-5" d="M727.57,19.36l.71.71Z"/><path class="cls-4" d="M794.37,19.36l.71.71Z"/><path class="cls-2" d="M33.27,20.07l.71.71Z"/><path class="cls-3" d="M100.78,20.07l.71.71Z"/><path class="cls-2" d="M188.9,20.07l.71.71Z"/><path class="cls-3" d="M257.12,20.07l.71.71Z"/><path class="cls-4" d="M419.86,20.07l.71.71Z"/><path class="cls-6" d="M519.35,20.07l.71.71-.71-.71m207.51,0,.71.71Z"/><path class="cls-4" d="M31.85,20.78l.71.71Z"/><path class="cls-6" d="M102.2,20.78l.71.71Z"/><path class="cls-3" d="M451.13,20.78l.71.71Z"/><path class="cls-4" d="M518.64,20.78l.71.71Z"/><path class="cls-3" d="M726.15,20.78l.71.71Z"/><path class="cls-2" d="M517.93,21.49l.71.71Z"/><path class="cls-3" d="M725.44,21.49l.71.71Z"/><path class="cls-6" d="M797.21,21.49l.72.71Z"/><path class="cls-2" d="M104.33,22.2l.71.71-.71-.71m82.44,0,.71.71Z"/><path class="cls-5" d="M260,22.2l.71.71Z"/><path class="cls-2" d="M419.15,22.2l.71.71-.71-.71m32.93.48s-.08.79.23.47C452.35,23.11,452.39,22.36,452.08,22.68Z"/><path class="cls-6" d="M724.73,22.2l.71.71Z"/><path class="cls-3" d="M797.93,22.2l.71.71-.71-.71M28.3,22.91l.71.71-.71-.71m77.46,0,.71.71Z"/><path class="cls-2" d="M186.06,22.91l.71.71Z"/><path class="cls-3" d="M260.68,22.91l.71.71Z"/><path class="cls-6" d="M724,22.91l.71.71Z"/><path class="cls-7" d="M798.64,22.91l.71.71Z"/><path class="cls-6" d="M26.87,23.62l.71.71Z"/><path class="cls-3" d="M185.35,23.62l.71.71Z"/><path class="cls-7" d="M261.39,23.62l.71.71Z"/><path class="cls-6" d="M418.44,23.62l.71.71Z"/><path class="cls-5" d="M723.31,23.62l.71.71-.71-.71m-538.67.71.71.71Z"/><path class="cls-6" d="M452.55,24.33l.71.71Z"/><path class="cls-7" d="M24.74,25l.71.72Z"/><path class="cls-3" d="M109.31,25l.71.72-.71-.72m-86,.72.71.71Z"/><path class="cls-4" d="M110.73,25.76l.71.71Z"/><path class="cls-2" d="M375.8,25.76l.71.71Z"/><path class="cls-3" d="M417.73,25.76l.71.71Z"/><path class="cls-2" d="M513.67,25.76l.71.71Z"/><path class="cls-3" d="M590.42,25.76l.71.71-.71-.71m131.47,0,.71.71Z"/><path class="cls-5" d="M802.19,25.76l.71.71Z"/><path class="cls-6" d="M21.9,26.47l.71.71Z"/><path class="cls-3" d="M183.22,26.47l.71.71Z"/><path class="cls-5" d="M376.51,26.47l.71.71Z"/><path class="cls-3" d="M453.26,26.47l.71.71Z"/><path class="cls-2" d="M513,26.47l.71.71Z"/><path class="cls-6" d="M591.13,26.47l.71.71-.71-.71m211.77,0,.71.71Z"/><path class="cls-7" d="M112.86,27.18l.71.71Z"/><path class="cls-5" d="M417,27.18l.71.71Z"/><path class="cls-4" d="M512.25,27.18l.71.71Z"/><path class="cls-6" d="M803.61,27.18l.71.71Z"/><path class="cls-2" d="M19.77,27.89l.71.71Z"/><path class="cls-3" d="M114.28,27.89l.71.71Z"/><path class="cls-7" d="M377.22,27.89l.71.71-.71-.71m39.8,0,.71.71Z"/><path class="cls-5" d="M454,27.89l.71.71Z"/><path class="cls-3" d="M720.46,27.89l.72.71Z"/><path class="cls-11" d="M804.56,28.36s-.08.79.24.47C804.83,28.8,804.88,28.05,804.56,28.36Z"/><path class="cls-3" d="M18.35,28.6l.71.71Z"/><path class="cls-6" d="M115.7,28.6l.72.71Z"/><path class="cls-5" d="M181.79,28.6l.72.71-.72-.71m196.14,0,.71.71Z"/><path class="cls-7" d="M454,28.6l.71.71Z"/><path class="cls-3" d="M592.55,28.6l.71.71Z"/><path class="cls-5" d="M16.92,29.31l.72.71Z"/><path class="cls-4" d="M416.31,29.31,417,30Z"/><path class="cls-2" d="M719.75,29.31l.71.71-.71-.71M117.84,30l.71.71Z"/><path class="cls-6" d="M181.08,30l.71.71Z"/><path class="cls-3" d="M378.64,30l.71.71Z"/><path class="cls-4" d="M454.68,30l.71.71Z"/><path class="cls-3" d="M510.11,30l.71.71-.71-.71m-495.32.71.71.71-.71-.71m104.47,0,.71.71Z"/><path class="cls-2" d="M263.52,30.73l.71.71Z"/><path class="cls-5" d="M509.4,30.73l.71.71Z"/><path class="cls-3" d="M594,30.73l.71.71-.71-.71m125.07,0,.71.71Z"/><path class="cls-4" d="M13.37,31.44l.71.71Z"/><path class="cls-5" d="M120.68,31.44l.71.71Z"/><path class="cls-2" d="M262.81,31.44l.71.71Z"/><path class="cls-3" d="M379.35,31.44l.71.71Z"/><path class="cls-2" d="M415.6,31.44l.71.71Z"/><path class="cls-7" d="M180.37,32.15l.71.71Z"/><path class="cls-2" d="M262.1,32.15l.71.71-.71-.71m193.29,0,.71.71-.71-.71m53.3,0,.71.71Z"/><path class="cls-6" d="M718.33,32.15l.71.71Z"/><path class="cls-7" d="M11.24,32.86l.71.71Z"/><path class="cls-2" d="M122.81,32.86l.71.71Z"/><path class="cls-10" d="M217.09,33.1c-.32.31.43.27.47.24C217.88,33,217.13,33.06,217.09,33.1Z"/><path class="cls-3" d="M218,32.86c2.05.86,4.17.71,6.39.71C222.38,32.71,220.26,32.86,218,32.86Z"/><path class="cls-9" d="M224.91,33.1c-.32.31.43.27.47.24C225.7,33,225,33.06,224.91,33.1Z"/><path class="cls-2" d="M261.39,32.86l.71.71Z"/><path class="cls-4" d="M380.06,32.86l.72.71Z"/><path class="cls-6" d="M414.89,32.86l.71.71Z"/><path class="cls-5" d="M595.39,32.86l.71.71Z"/><path class="cls-10" d="M755.05,33.1c-.32.31.44.27.47.24C755.84,33,755.09,33.06,755.05,33.1Z"/><path class="cls-3" d="M756,32.86c2,.86,4.17.71,6.39.71C760.34,32.71,758.22,32.86,756,32.86Z"/><path class="cls-10" d="M762.87,33.1c-.32.31.43.27.47.24C763.66,33,762.9,33.06,762.87,33.1Z"/><path class="cls-3" d="M9.82,33.57l.71.71Z"/><path class="cls-4" d="M124.23,33.57l.71.71-.71-.71m55.43,0,.71.71Z"/><path class="cls-3" d="M213.54,33.81c-.32.31.43.28.47.24C214.33,33.73,213.58,33.77,213.54,33.81Z"/><path class="cls-8" d="M227,33.81c-.32.31.43.28.47.24C227.83,33.73,227.08,33.77,227,33.81Z"/><path class="cls-2" d="M228.46,33.81c-.32.31.43.28.47.24.32-.32-.43-.28-.47-.24m32.22-.24.71.71Z"/><path class="cls-6" d="M456.1,33.57l.71.71Z"/><path class="cls-2" d="M547.07,33.57a5,5,0,0,0,2.13.71A5.17,5.17,0,0,0,547.07,33.57Z"/><path class="cls-8" d="M549.2,33.57a13.93,13.93,0,0,0,5.68.71A14.08,14.08,0,0,0,549.2,33.57Z"/><path class="cls-3" d="M554.88,33.57a5,5,0,0,0,2.14.71,5.17,5.17,0,0,0-2.14-.71m196.62.24c-.32.32.43.28.47.24C752.29,33.73,751.53,33.77,751.5,33.81Z"/><path class="cls-4" d="M765.24,33.57a5,5,0,0,0,2.13.71A5.17,5.17,0,0,0,765.24,33.57Z"/><path class="cls-6" d="M8.4,34.28l.71.71Z"/><path class="cls-2" d="M210.93,34.28l.71.71Z"/><path class="cls-10" d="M231.3,34.52c-.31.32.44.28.48.24C232.09,34.44,231.34,34.48,231.3,34.52Z"/><path class="cls-2" d="M260,34.28l.71.71Z"/><path class="cls-3" d="M507.27,34.28,508,35Z"/><path class="cls-6" d="M544.7,34.52c-.32.32.43.28.47.24C545.49,34.44,544.74,34.48,544.7,34.52Z"/><path class="cls-4" d="M558.91,34.52c-.32.32.44.28.47.24C559.7,34.44,559,34.48,558.91,34.52Z"/><path class="cls-6" d="M596.1,34.28l.71.71Z"/><path class="cls-9" d="M717.86,34.76s-.08.79.24.47C718.13,35.19,718.18,34.44,717.86,34.76Z"/><path class="cls-6" d="M749.37,34.52c-.32.32.43.28.47.24C750.16,34.44,749.4,34.48,749.37,34.52Z"/><path class="cls-7" d="M769.26,34.52c-.32.32.44.28.47.24C770.05,34.44,769.3,34.48,769.26,34.52Z"/><path class="cls-6" d="M209.51,35l.71.71Z"/><path class="cls-4" d="M233,35l.71.71Z"/><path class="cls-2" d="M259.26,35l.71.71Z"/><path class="cls-8" d="M312.55,35c3.18,1.34,7.25.71,10.66.71h20.61c-3.17-1.33-7.24-.71-10.66-.71Z"/><path class="cls-2" d="M343.82,35a4.9,4.9,0,0,0,2.13.71,5.12,5.12,0,0,0-2.13-.71m37,0,.71.71Z"/><path class="cls-3" d="M414.18,35l.71.71Z"/><path class="cls-5" d="M542.57,35.23c-.32.32.43.28.47.24C543.36,35.15,542.61,35.19,542.57,35.23Z"/><path class="cls-4" d="M561.28,35l.71.71Z"/><path class="cls-3" d="M637.32,35c5.09,2.14,13,.71,18.48.71h41.92c-5.08-2.13-13-.71-18.47-.71H637.32m110.15,0,.71.71Z"/><path class="cls-6" d="M770.92,35l.71.71Z"/><path class="cls-2" d="M6.27,35.7l.71.71Z"/><path class="cls-3" d="M127.79,35.7l.71.71Z"/><path class="cls-2" d="M179.19,36.18s-.08.79.24.47C179.47,36.61,179.5,35.86,179.19,36.18Z"/><path class="cls-3" d="M208.09,35.7l.71.71Z"/><path class="cls-2" d="M235.09,35.7l.71.71-.71-.71m23.45,0,.72.71Z"/><path class="cls-1" d="M312.55,35.7V66.26H336c5.13,0,11,.16,15.63-2.51,9.11-5.3,8.55-21.43-.7-26.31-4.32-2.28-9.51-1.74-14.21-1.74Z"/><path class="cls-4" d="M347.14,35.94c-.32.32.43.28.47.24C347.93,35.86,347.18,35.9,347.14,35.94Z"/><path class="cls-3" d="M456.81,35.7l.72.71-.72-.71m83.86,0,.71.71Z"/><path class="cls-7" d="M746.05,35.7l.71.71Z"/><path class="cls-3" d="M773.05,35.7l.71.71Z"/><path class="cls-2" d="M236.51,36.41l.72.72Z"/><path class="cls-4" d="M257.83,36.41l.71.72Z"/><path class="cls-3" d="M349.51,36.41l.71.72-.71-.72m32.21.48s-.08.79.24.47C382,37.32,382,36.57,381.72,36.89Z"/><path class="cls-2" d="M413.7,36.89s-.08.79.24.47C414,37.32,414,36.57,413.7,36.89Z"/><path class="cls-3" d="M539.25,36.41l.71.72Z"/><path class="cls-2" d="M596.1,36.41l.71.72-.71-.72m120.81,0v2.14C717.41,37.44,717.41,37.52,716.91,36.41Z"/><path class="cls-6" d="M745.34,36.41l.71.72Z"/><path class="cls-3" d="M774.47,36.41l.71.72Z"/><path class="cls-7" d="M795.79,36.41l.71.72Z"/><path class="cls-2" d="M237.94,37.13l.71.71Z"/><path class="cls-6" d="M257.12,37.13l.71.71Z"/><path class="cls-3" d="M350.93,37.13l.71.71Z"/><path class="cls-7" d="M537.83,37.13l.71.71Z"/><path class="cls-5" d="M565.54,37.13l.71.71Z"/><path class="cls-3" d="M594.68,37.13l.71.71-.71-.71m181.21,0,.72.71Z"/><path class="cls-2" d="M795.08,37.13l.71.71Z"/><path class="cls-6" d="M256.41,37.84l.71.71Z"/><path class="cls-2" d="M457.53,37.84l.71.71Z"/><path class="cls-4" d="M593.26,37.84l.71.71Z"/><path class="cls-2" d="M777.32,37.84l.71.71-.71-.71m17,0,.71.71Z"/><path class="cls-4" d="M178.24,38.55v2.13c.5-1.11.5-1,0-2.13m61.83,0,.71.71Z"/><path class="cls-6" d="M255.7,38.55l.71.71Z"/><path class="cls-4" d="M353.06,38.55l.71.71-.71-.71m59.69,0,.72.71Z"/><path class="cls-3" d="M567.68,38.55l.71.71Z"/><path class="cls-6" d="M591.84,38.55l.71.71Z"/><path class="cls-3" d="M743.21,38.55l.71.71Z"/><path class="cls-2" d="M793.66,38.55l.71.71Z"/><path class="cls-3" d="M204.54,39.26l.71.71Z"/><path class="cls-6" d="M255,39.26l.71.71-.71-.71m98.78,0,.71.71Z"/><path class="cls-2" d="M382.43,39.73s-.08.79.24.47C382.71,40.17,382.75,39.42,382.43,39.73Z"/><path class="cls-6" d="M458.24,39.26,459,40Z"/><path class="cls-2" d="M535,39.26l.71.71Z"/><path class="cls-6" d="M568.39,39.26l.71.71Z"/><path class="cls-3" d="M779.45,39.26l.71.71Z"/><path class="cls-2" d="M793,39.26l.71.71Z"/><path class="cls-3" d="M242.2,40l.71.71Z"/><path class="cls-6" d="M254.28,40l.71.71Z"/><path class="cls-2" d="M354.48,40l.71.71-.71-.71m179.8,0,.71.71Z"/><path class="cls-6" d="M569.1,40l.71.71Z"/><path class="cls-2" d="M588.28,40l.72.71Z"/><path class="cls-5" d="M742.49,40l.72.71Z"/><path class="cls-2" d="M792.24,40l.71.71Z"/><path class="cls-10" d="M178.48,41.15s-.08.79.24.48C178.75,41.59,178.79,40.84,178.48,41.15Z"/><path class="cls-5" d="M204.06,41.15s-.08.79.24.48C204.34,41.59,204.38,40.84,204.06,41.15Z"/><path class="cls-6" d="M253.57,40.68l.71.71Z"/><path class="cls-2" d="M355.19,40.68l.71.71-.71-.71m56.85,0,.71.71-.71-.71m121.52,0,.72.71Z"/><path class="cls-6" d="M569.81,40.68l.71.71Z"/><path class="cls-2" d="M586.86,40.68l.71.71Z"/><path class="cls-3" d="M716.2,40.68v2.13C716.7,41.71,716.7,41.78,716.2,40.68Z"/><path class="cls-2" d="M791.53,40.68l.71.71Z"/><path class="cls-6" d="M252.86,41.39l.71.71Z"/><path class="cls-3" d="M459,41.39l.71.71Z"/><path class="cls-2" d="M503.72,41.39l.71.71-.71-.71m29.13,0,.71.71Z"/><path class="cls-3" d="M570.52,41.39l.71.71-.71-.71m14.92,0,.71.71Z"/><path class="cls-5" d="M741.78,41.39v2.13C742.28,42.42,742.28,42.49,741.78,41.39Z"/><path class="cls-2" d="M782.29,41.39l.71.71-.71-.71m8.53,0,.71.71Z"/><path class="cls-7" d="M245,42.1l.71.71Z"/><path class="cls-4" d="M355.9,42.1l.71.71Z"/><path class="cls-7" d="M411.57,42.57s-.08.79.24.48C411.85,43,411.89,42.26,411.57,42.57Z"/><path class="cls-2" d="M532.14,42.1l.71.71Z"/><path class="cls-4" d="M584,42.1l.71.71L584,42.1m199,0,.71.71Z"/><path class="cls-3" d="M790.11,42.1l.71.71Z"/><path class="cls-2" d="M245.75,42.81l.71.71Z"/><path class="cls-4" d="M382.91,42.81v2.13C383.4,43.84,383.4,43.91,382.91,42.81Z"/><path class="cls-1" d="M434.78,42.81c-2,13.77-10.44,26.15-12.79,39.8h26.3c-1.26-8.49-5.48-16.8-8.29-24.88C438.34,52.94,437.48,47.1,434.78,42.81Z"/><path class="cls-5" d="M459.66,42.81l.71.71Z"/><path class="cls-4" d="M503,42.81l.71.71Z"/><path class="cls-6" d="M582.6,42.81l.71.71Z"/><path class="cls-10" d="M716.2,42.81V48.5A6.81,6.81,0,0,0,716.2,42.81Z"/><path class="cls-6" d="M783.71,42.81l.71.71-.71-.71m5.69,0,.71.71Z"/><path class="cls-10" d="M203.35,44s-.08.78.24.47C203.63,44.43,203.67,43.68,203.35,44Z"/><path class="cls-4" d="M246.46,43.52l.71.71Z"/><path class="cls-6" d="M356.61,43.52l.71.71Z"/><path class="cls-4" d="M435.73,44s-.08.78.24.47C436,44.43,436.05,43.68,435.73,44Z"/><path class="cls-7" d="M459.66,43.52l.71.71Z"/><path class="cls-6" d="M788.69,43.52l.71.71-.71-.71m-541.52.71.71.71Z"/><path class="cls-3" d="M410.62,44.23l.71.71Z"/><path class="cls-6" d="M434.31,44.71s-.08.79.24.47C434.59,45.14,434.63,44.39,434.31,44.71Z"/><path class="cls-3" d="M572.65,44.23l.71.71Z"/><path class="cls-2" d="M579.05,44.23l.71.71Z"/><path class="cls-6" d="M788,44.23l.71.71-.71-.71m-540.1.71.72.71Z"/><path class="cls-10" d="M382.91,44.94v2.13C383.4,46,383.4,46.05,382.91,44.94Z"/><path class="cls-4" d="M460.37,44.94l.71.71Z"/><path class="cls-2" d="M502.3,44.94l.71.71Z"/><path class="cls-3" d="M530,44.94l.71.71Z"/><path class="cls-2" d="M577.62,44.94l.72.71Z"/><path class="cls-5" d="M741.78,44.94v2.13C742.28,46,742.28,46.05,741.78,44.94Z"/><path class="cls-6" d="M787.27,44.94l.71.71Z"/><path class="cls-11" d="M357.56,46.13s-.08.79.24.47C357.84,46.56,357.88,45.81,357.56,46.13Z"/><path class="cls-5" d="M573.36,45.65l.71.71Z"/><path class="cls-3" d="M576.2,45.65l.71.71Z"/><path class="cls-2" d="M409.91,46.36l.71.71Z"/><path class="cls-3" d="M436.21,46.36l.71.71Z"/><path class="cls-7" d="M501.82,46.84s-.08.79.24.47C502.1,47.27,502.14,46.52,501.82,46.84Z"/><path class="cls-4" d="M574.55,46.6c-.32.32.43.28.47.24C575.33,46.52,574.58,46.56,574.55,46.6Z"/><path class="cls-3" d="M203.82,47.07l.72.72Z"/><path class="cls-4" d="M433.36,47.07l.71.72Z"/><path class="cls-3" d="M461.08,47.07l.71.72Z"/><path class="cls-2" d="M528.59,47.07l.71.72Z"/><path class="cls-6" d="M409.2,47.79l.71.71Z"/><path class="cls-10" d="M178.24,48.5v2.13C178.74,49.52,178.74,49.6,178.24,48.5Z"/><path class="cls-4" d="M204.54,48.5l.71.71Z"/><path class="cls-10" d="M358,48.5v4.26A4.7,4.7,0,0,0,358,48.5Z"/><path class="cls-8" d="M437.15,49s-.08.79.24.47C437.43,49.4,437.47,48.65,437.15,49Z"/><path class="cls-7" d="M462,49s-.08.79.23.47C462.3,49.4,462.34,48.65,462,49Z"/><path class="cls-3" d="M501.11,49s-.08.79.24.47C501.39,49.4,501.43,48.65,501.11,49Z"/><path class="cls-2" d="M527.88,48.5l.71.71Z"/><path class="cls-3" d="M716.44,49s-.08.79.24.47C716.71,49.4,716.76,48.65,716.44,49Z"/><path class="cls-7" d="M742.49,48.5l.72.71Z"/><path class="cls-11" d="M432.89,49.68s-.08.79.24.47C433.17,50.11,433.21,49.36,432.89,49.68Z"/><path class="cls-5" d="M743.21,49.21l.71.71Z"/><path class="cls-3" d="M408.49,49.92l.71.71Z"/><path class="cls-2" d="M527.17,49.92l.71.71Z"/><path class="cls-8" d="M716.44,50.39s-.08.79.24.47C716.71,50.83,716.76,50.08,716.44,50.39Z"/><path class="cls-6" d="M178.24,50.63v2.13C178.74,51.66,178.74,51.73,178.24,50.63Z"/><path class="cls-5" d="M437.86,51.1s-.07.79.24.48C438.14,51.54,438.18,50.79,437.86,51.1Z"/><path class="cls-4" d="M462.5,50.63l.71.71Z"/><path class="cls-5" d="M407.78,51.34l.71.71Z"/><path class="cls-3" d="M431.94,51.34l.71.71Z"/><path class="cls-7" d="M500.4,51.81s-.08.79.24.48C500.68,52.25,500.72,51.5,500.4,51.81Z"/><path class="cls-4" d="M745.34,51.34l.71.71Z"/><path class="cls-2" d="M208.09,52.05l.71.71Z"/><path class="cls-7" d="M407.78,52.05l.71.71Z"/><path class="cls-6" d="M526.46,52.05l.71.71Z"/><path class="cls-3" d="M209.51,52.76l.71.71Z"/><path class="cls-10" d="M382.91,52.76V55.6A2.88,2.88,0,0,0,382.91,52.76Z"/><path class="cls-5" d="M438.57,53.23s-.07.79.24.48C438.85,53.67,438.89,52.92,438.57,53.23Z"/><path class="cls-2" d="M463.21,52.76l.71.71Z"/><path class="cls-7" d="M716.91,52.76v2.13c.5-1.1.5-1,0-2.13m30.56,0,.71.71Z"/><path class="cls-2" d="M210.93,53.47l.71.71Z"/><path class="cls-4" d="M407.07,53.47l.71.71Z"/><path class="cls-3" d="M431.23,53.47l.71.71Z"/><path class="cls-5" d="M526,53.94s-.07.79.24.48c0,0,.08-.79-.24-.48m223.62-.47.71.71Z"/><path class="cls-4" d="M179.19,54.65s-.08.79.24.48c0,0,.07-.79-.24-.48m33.87-.47.71.71Z"/><path class="cls-6" d="M463.92,54.18l.71.71Z"/><path class="cls-3" d="M499.45,54.18v2.13c.5-1.1.5-1,0-2.13m251.57,0,.71.71Z"/><path class="cls-4" d="M215.2,54.89l.71.71Z"/><path class="cls-7" d="M357.56,55.37s-.08.79.24.47C357.84,55.8,357.88,55.05,357.56,55.37Z"/><path class="cls-5" d="M439.29,55.37s-.08.79.23.47C439.56,55.8,439.6,55.05,439.29,55.37Z"/><path class="cls-3" d="M753.15,54.89l.71.71Z"/><path class="cls-8" d="M217.8,55.84c-.32.32.44.28.47.24C218.59,55.76,217.84,55.8,217.8,55.84Z"/><path class="cls-4" d="M383.14,56.08s-.07.79.24.47C383.42,56.51,383.46,55.76,383.14,56.08Z"/><path class="cls-2" d="M406.36,55.6l.71.71Z"/><path class="cls-3" d="M430.52,55.6l.71.71Z"/><path class="cls-6" d="M525.27,56.08s-.08.79.24.47C525.55,56.51,525.59,55.76,525.27,56.08Z"/><path class="cls-8" d="M637.32,55.6c3.35,1.41,7.76.71,11.37.71h23.45c-3.35-1.4-7.76-.71-11.37-.71Z"/><path class="cls-5" d="M755.76,55.84c-.32.32.44.28.47.24C756.55,55.76,755.8,55.8,755.76,55.84Z"/><path class="cls-4" d="M219.93,56.55c-.31.32.44.28.48.24C220.72,56.47,220,56.51,219.93,56.55Z"/><path class="cls-3" d="M464.63,56.31l.71.71-.71-.71m207.51,0V79.76c1.92-4.57.71-11.4.71-16.34C672.85,61,673.08,58.56,672.14,56.31Z"/><path class="cls-6" d="M717.86,56.79s-.08.79.24.47C718.13,57.22,718.18,56.47,717.86,56.79Z"/><path class="cls-3" d="M757.89,56.55c-.32.32.44.28.47.24C758.68,56.47,757.93,56.51,757.89,56.55Z"/><path class="cls-5" d="M179.9,57.5s-.08.79.24.47C180.18,57.93,180.22,57.18,179.9,57.5Z"/><path class="cls-6" d="M222.78,57.26c-.32.32.43.28.47.24.32-.32-.44-.28-.47-.24M405.65,57l.71.71Z"/><path class="cls-5" d="M440,57.5s-.08.79.23.47C440.27,57.93,440.31,57.18,440,57.5Z"/><path class="cls-4" d="M760.74,57.26c-.32.32.43.28.47.24.32-.32-.44-.28-.47-.24M225.62,58c-.32.32.43.28.47.24C226.41,57.89,225.66,57.93,225.62,58Z"/><path class="cls-3" d="M429.81,57.73l.71.71Z"/><path class="cls-2" d="M465.58,58.21s-.08.79.24.47C465.86,58.64,465.9,57.89,465.58,58.21Z"/><path class="cls-3" d="M499,58.21s-.08.79.24.47c0,0,.08-.79-.24-.47M763.58,58c-.32.32.43.28.47.24C764.37,57.89,763.61,57.93,763.58,58Z"/><path class="cls-4" d="M228,58.44a5,5,0,0,0,2.13.72,5,5,0,0,0-2.13-.72m296.34,0v2.14C524.82,59.47,524.82,59.55,524.33,58.44Z"/><path class="cls-5" d="M718.57,58.92s-.08.79.24.47C718.84,59.35,718.89,58.6,718.57,58.92Z"/><path class="cls-3" d="M766.42,58.68c-.32.32.44.28.47.24.32-.32-.43-.28-.47-.24m-586,.48.71.71-.71-.71m50.93.23c-.31.32.44.28.48.24.31-.32-.44-.28-.48-.24m173.64-.23.71.71Z"/><path class="cls-5" d="M440.71,59.63s-.08.79.23.47C441,60.06,441,59.31,440.71,59.63Z"/><path class="cls-10" d="M499,59.63s-.08.79.24.47C499.26,60.06,499.3,59.31,499,59.63Z"/><path class="cls-5" d="M770,59.39c-.32.32.43.28.46.24C770.76,59.31,770,59.35,770,59.39Z"/><path class="cls-4" d="M234.15,60.1c-.32.32.43.28.47.24C234.94,60,234.18,60.06,234.15,60.1Z"/><path class="cls-5" d="M355.19,59.87l.71.71Z"/><path class="cls-4" d="M382.43,60.34s-.08.79.24.47c0,0,.08-.79-.24-.47m46.67-.47.71.71Z"/><path class="cls-6" d="M466.05,59.87l.71.71Z"/><path class="cls-3" d="M772.11,60.1c-.32.32.43.28.47.24C772.9,60,772.14,60.06,772.11,60.1Z"/><path class="cls-7" d="M181.08,60.58l.71.71Z"/><path class="cls-5" d="M237,60.81c-.32.32.43.28.47.24.32-.32-.43-.28-.47-.24m167.24-.23.71.71Z"/><path class="cls-6" d="M719,60.58l.71.71-.71-.71m55.91.23c-.32.32.43.28.47.24C775.74,60.73,775,60.77,775,60.81Z"/><path class="cls-4" d="M239.36,61.29l.71.71Z"/><path class="cls-7" d="M404.23,61.29l.71.71Z"/><path class="cls-3" d="M441.18,61.29l.71.71-.71-.71m336.14,0L778,62Z"/><path class="cls-2" d="M181.79,62l.72.71Z"/><path class="cls-4" d="M241.49,62l.71.71-.71-.71m186.9,0,.71.71Z"/><path class="cls-3" d="M466.76,62l.71.71Z"/><path class="cls-8" d="M498,62v2.13C498.53,63,498.53,63.1,498,62Z"/><path class="cls-3" d="M523.62,62v2.13C524.11,63,524.11,63.1,523.62,62Z"/><path class="cls-6" d="M719.75,62l.71.71Z"/><path class="cls-3" d="M779.45,62l.71.71Z"/><path class="cls-6" d="M243.62,62.71l.71.71Z"/><path class="cls-5" d="M352.35,62.71l.71.71Z"/><path class="cls-3" d="M381.72,63.18s-.08.79.24.48C382,63.62,382,62.87,381.72,63.18Z"/><path class="cls-4" d="M403.52,62.71l.71.71-.71-.71m378.06,0,.71.71Z"/><path class="cls-3" d="M182.51,63.42l.71.71Z"/><path class="cls-2" d="M245,63.42l.71.71Z"/><path class="cls-7" d="M351.64,63.42l.71.71Z"/><path class="cls-6" d="M427.91,63.89s-.07.79.24.48C428.19,64.33,428.23,63.58,427.91,63.89Z"/><path class="cls-3" d="M441.89,63.42l.71.71Z"/><path class="cls-5" d="M467.47,63.42l.72.71Z"/><path class="cls-6" d="M783.48,63.66c-.32.31.43.27.47.23.32-.31-.44-.27-.47-.23m-536.31.47.71.71Z"/><path class="cls-3" d="M350.22,64.13l.71.71Z"/><path class="cls-7" d="M467.47,64.13l.72.71Z"/><path class="cls-10" d="M498,64.13v4.26A4.7,4.7,0,0,0,498,64.13Z"/><path class="cls-8" d="M523.85,64.6s-.08.79.24.48C524.13,65,524.17,64.29,523.85,64.6Z"/><path class="cls-3" d="M721.18,64.13l.71.71-.71-.71m64,0,.71.71-.71-.71m-536.53.71.71.71Z"/><path class="cls-6" d="M348.09,64.84l.71.71Z"/><path class="cls-2" d="M402.81,64.84l.71.71-.71-.71m383.74,0,.72.71Z"/><path class="cls-4" d="M183.93,65.55l.71.71Z"/><path class="cls-3" d="M250,65.55l.71.71Z"/><path class="cls-8" d="M344.3,65.79c-.32.31.43.27.47.24C345.09,65.71,344.34,65.75,344.3,65.79Z"/><path class="cls-7" d="M345.72,65.79c-.32.31.43.27.47.24C346.51,65.71,345.76,65.75,345.72,65.79Z"/><path class="cls-3" d="M380.78,65.55l.71.71Z"/><path class="cls-5" d="M427.2,66s-.07.78.24.47C427.48,66.46,427.52,65.71,427.2,66Z"/><path class="cls-4" d="M442.6,65.55l.71.71-.71-.71m25.59,0,.71.71Z"/><path class="cls-2" d="M788,65.55l.71.71-.71-.71m-603.34.71.71.71Z"/><path class="cls-4" d="M251.44,66.26l.71.71Z"/><path class="cls-6" d="M402.1,66.26l.71.71-.71-.71m320.5,0,.71.71Z"/><path class="cls-3" d="M789.4,66.26l.71.71Z"/><path class="cls-7" d="M185.35,67l.71.71Z"/><path class="cls-5" d="M252.86,67l.71.71Z"/><path class="cls-6" d="M443.55,67.45s-.08.79.24.47c0,0,.08-.79-.24-.47M723.31,67l.71.71Z"/><path class="cls-3" d="M790.82,67l.71.71Z"/><path class="cls-7" d="M253.57,67.68l.71.71Z"/><path class="cls-4" d="M380.06,67.68l.72.71Z"/><path class="cls-2" d="M426.26,67.68l.71.71-.71-.71m42.64,0,.71.71Z"/><path class="cls-10" d="M522.9,67.68v3.56A3.8,3.8,0,0,0,522.9,67.68Z"/><path class="cls-2" d="M724,67.68l.71.71Z"/><path class="cls-4" d="M255,68.39l.71.71Z"/><path class="cls-3" d="M401.38,68.39l.72.71Z"/><path class="cls-2" d="M724.73,68.39l.71.71Z"/><path class="cls-3" d="M793,68.39l.71.71Z"/><path class="cls-2" d="M187.48,69.1l.71.72Z"/><path class="cls-3" d="M379.35,69.1l.71.72Z"/><path class="cls-5" d="M444.26,69.58s-.08.79.24.47C444.54,70,444.58,69.26,444.26,69.58Z"/><path class="cls-6" d="M469.61,69.1l.71.72Z"/><path class="cls-4" d="M725.44,69.1l.71.72Z"/><path class="cls-2" d="M188.19,69.82l.71.71-.71-.71m212.72.47s-.08.79.24.47C401.19,70.72,401.23,70,400.91,70.29Z"/><path class="cls-3" d="M425.55,69.82l.71.71Z"/><path class="cls-6" d="M726.15,69.82l.71.71-.71-.71m68.93,0,.71.71Z"/><path class="cls-4" d="M188.9,70.53l.71.71Z"/><path class="cls-6" d="M257.83,70.53l.71.71Z"/><path class="cls-3" d="M378.64,70.53l.71.71-.71-.71m417.15,0,.71.71Z"/><path class="cls-2" d="M258.54,71.24l.72.71-.72-.71m186.19,0,.71.71Z"/><path class="cls-3" d="M470.32,71.24,471,72l-.71-.71m52.58,0v2.13C523.4,72.26,523.4,72.34,522.9,71.24Z"/><path class="cls-7" d="M728.28,71.24,729,72Z"/><path class="cls-3" d="M191,72l.71.71Z"/><path class="cls-2" d="M259.26,72l.71.71Z"/><path class="cls-4" d="M377.93,72l.71.71-.71-.71m22,0,.71.71L400,72m24.88,0,.71.71-.71-.71M729,72l.71.71Z"/><path class="cls-2" d="M260,72.66l.71.71Z"/><path class="cls-7" d="M730.41,72.66l.71.71Z"/><path class="cls-4" d="M193.17,73.37l.71.71Z"/><path class="cls-2" d="M260.68,73.37l.71.71Z"/><path class="cls-3" d="M445.44,73.37l.72.71Z"/><path class="cls-2" d="M471,73.37l.71.71Z"/><path class="cls-10" d="M522.9,73.37v3.55A3.78,3.78,0,0,0,522.9,73.37Z"/><path class="cls-3" d="M194.59,74.08l.71.71-.71-.71m66.8,0,.71.71-.71-.71m115.12,0,.71.71-.71-.71m22.74,0,.71.71Z"/><path class="cls-4" d="M424.13,74.08l.71.71Z"/><path class="cls-6" d="M732.55,74.08l.71.71Z"/><path class="cls-3" d="M196,74.79l.71.71Z"/><path class="cls-5" d="M262.1,74.79l.71.71Z"/><path class="cls-6" d="M471.74,74.79l.71.71-.71-.71m262.23,0,.71.71Z"/><path class="cls-3" d="M800.06,74.79l.71.71-.71-.71m-602.63.71.71.71Z"/><path class="cls-7" d="M398.78,76s-.08.79.24.48C399.05,76.41,399.09,75.66,398.78,76Z"/><path class="cls-6" d="M423.65,76s-.08.79.24.48C423.93,76.41,424,75.66,423.65,76Z"/><path class="cls-4" d="M446.16,75.5l.71.71Z"/><path class="cls-6" d="M735.39,75.5l.71.71-.71-.71m65.38,0,.71.71-.71-.71m-601.92.71.71.71Z"/><path class="cls-2" d="M737.52,76.21l.71.71Z"/><path class="cls-3" d="M201,76.92l.71.71-.71-.71m62.54,0,.71.71Z"/><path class="cls-6" d="M374.38,76.92l.71.71Z"/><path class="cls-3" d="M472.45,76.92l.71.71Z"/><path class="cls-10" d="M498,76.92v2.84A2.83,2.83,0,0,0,498,76.92Z"/><path class="cls-4" d="M738.94,76.92l.71.71Z"/><path class="cls-2" d="M202.88,77.87c-.32.32.43.28.47.24C203.67,77.79,202.92,77.83,202.88,77.87Z"/><path class="cls-4" d="M373.67,77.63l.71.71Z"/><path class="cls-3" d="M397.83,77.63l.71.71Z"/><path class="cls-5" d="M422.94,78.11s-.08.79.24.47C423.22,78.54,423.26,77.79,422.94,78.11Z"/><path class="cls-6" d="M446.87,77.63l.71.71Z"/><path class="cls-3" d="M741.07,77.63l.71.71Z"/><path class="cls-4" d="M802.19,77.63l.71.71Z"/><path class="cls-2" d="M205,78.58c-.32.32.43.28.47.24C205.8,78.5,205.05,78.54,205,78.58Z"/><path class="cls-6" d="M373,78.34l.71.71Z"/><path class="cls-5" d="M473.16,78.34l.71.71Z"/><path class="cls-3" d="M743.21,78.34l.71.71-.71-.71m-535.83.71.71.71Z"/><path class="cls-4" d="M264.94,79.05l.71.71Z"/><path class="cls-6" d="M372.25,79.05l.71.71-.71-.71m75.56.48s-.08.79.24.47C448.09,80,448.13,79.21,447.81,79.53Z"/><path class="cls-7" d="M473.16,79.05l.71.71Z"/><path class="cls-8" d="M523.85,79.53s-.08.79.24.47C524.13,80,524.17,79.21,523.85,79.53Z"/><path class="cls-4" d="M745.34,79.05l.71.71Z"/><path class="cls-7" d="M802.9,79.05l.71.71-.71-.71M210,80c-.31.32.44.28.48.24C210.77,79.92,210,80,210,80Z"/><path class="cls-6" d="M371.54,79.76l.71.71Z"/><path class="cls-2" d="M397.12,79.76l.71.71-.71-.71m24.87,0,.71.71Z"/><path class="cls-3" d="M498.27,80.24s-.08.79.24.47c0,0,.08-.79-.24-.47m139.05-.48c3.35,1.41,7.76.71,11.37.71h23.45c-3.35-1.4-7.76-.71-11.37-.71Z"/><path class="cls-2" d="M748,80c-.32.32.43.28.46.24C748.73,79.92,748,80,748,80Z"/><path class="cls-10" d="M212.83,80.71c-.32.32.43.28.47.24C213.62,80.63,212.87,80.67,212.83,80.71Z"/><path class="cls-6" d="M265.65,80.47l.71.72Z"/><path class="cls-4" d="M473.87,80.47l.71.72Z"/><path class="cls-2" d="M523.62,80.47v2.14c.49-1.11.49-1,0-2.14m227.17.24c-.32.32.43.28.47.24.32-.32-.44-.28-.47-.24m52.82-.24.71.72Z"/><path class="cls-7" d="M215.67,81.42c-.32.32.43.28.47.24C216.46,81.34,215.71,81.38,215.67,81.42Z"/><path class="cls-6" d="M396.41,81.19l.71.71Z"/><path class="cls-5" d="M448.52,81.66s-.08.79.24.47C448.8,82.09,448.84,81.34,448.52,81.66Z"/><path class="cls-8" d="M498,81.19v2.13C498.53,82.21,498.53,82.29,498,81.19Z"/><path class="cls-2" d="M753.63,81.42c-.32.32.43.28.47.24.32-.32-.43-.28-.47-.24m-535.12.71c-.31.32.44.28.47.24C219.3,82.05,218.55,82.09,218.51,82.13Z"/><path class="cls-3" d="M368.69,81.9l.72.71-.72-.71m52.59,0c1.84,2.1,5.19,1.42,7.82,1.42H449c-2.63-1.11-5.7-.71-8.53-.71-6.27,0-13.06.75-19.19-.71m335.19.23c-.32.32.44.28.47.24.32-.32-.43-.28-.47-.24m47.85-.23.71.71Z"/><path class="cls-2" d="M221.35,82.84c-.31.32.44.28.48.24.31-.32-.44-.28-.48-.24m253.23-.23.71.71Z"/><path class="cls-3" d="M759.32,82.84c-.32.32.43.28.46.24C760.1,82.76,759.35,82.8,759.32,82.84Z"/><path class="cls-2" d="M224.2,83.55c-.32.32.43.28.47.24C225,83.48,224.24,83.52,224.2,83.55Z"/><path class="cls-3" d="M366.56,83.32l.71.71-.71-.71m29.14,0,.71.71-.71-.71m366.46.23c-.32.32.43.28.47.24C763,83.48,762.19,83.52,762.16,83.55Z"/><path class="cls-7" d="M805.27,83.79s-.08.79.24.47C805.54,84.23,805.59,83.48,805.27,83.79Z"/><path class="cls-10" d="M227,84.26c-.32.32.43.28.47.24C227.83,84.19,227.08,84.23,227,84.26Z"/><path class="cls-7" d="M267.31,84.5s-.08.79.24.48C267.59,84.94,267.63,84.19,267.31,84.5Z"/><path class="cls-2" d="M365.14,84l.71.71Z"/><path class="cls-7" d="M475.53,84.5s-.08.79.24.48C475.8,84.94,475.84,84.19,475.53,84.5Z"/><path class="cls-3" d="M524.33,84v2.13C524.82,85.06,524.82,85.13,524.33,84Z"/><path class="cls-7" d="M765,84.26c-.32.32.43.28.47.24.32-.31-.43-.27-.47-.24M229.17,85c-.31.31.44.27.47.23C230,84.9,229.21,84.94,229.17,85Z"/><path class="cls-5" d="M395,84.74l.71.71Z"/><path class="cls-10" d="M499,85.21s-.08.79.24.48C499.26,85.65,499.3,84.9,499,85.21Z"/><path class="cls-3" d="M767.13,85c-.32.31.44.27.47.23C767.92,84.9,767.17,84.94,767.13,85Z"/><path class="cls-5" d="M230.83,85.45l.71.71Z"/><path class="cls-7" d="M231.54,85.45l.71.71Z"/><path class="cls-2" d="M362.3,85.45l.71.71Z"/><path class="cls-7" d="M395,85.45l.71.71Z"/><path class="cls-3" d="M769.5,85.45l.71.71-.71-.71m36.48.47s-.08.79.24.48C806.25,86.36,806.3,85.61,806,85.92Z"/><path class="cls-6" d="M233,86.16l.71.71Z"/><path class="cls-2" d="M267.78,86.16v2.13C268.28,87.19,268.28,87.26,267.78,86.16Z"/><path class="cls-3" d="M360.88,86.16l.71.71Z"/><path class="cls-4" d="M476,86.16l.71.71Z"/><path class="cls-6" d="M499,86.63s-.08.79.24.48C499.26,87.07,499.3,86.32,499,86.63Z"/><path class="cls-5" d="M770.92,86.16l.71.71Z"/><path class="cls-7" d="M771.63,86.16l.71.71Z"/><path class="cls-2" d="M235.09,86.87l.71.71Z"/><path class="cls-3" d="M358.75,86.87l.71.71Z"/><path class="cls-4" d="M394.28,86.87l.71.71Z"/><path class="cls-3" d="M773.05,86.87l.71.71Z"/><path class="cls-2" d="M236.51,87.58l.72.71Z"/><path class="cls-8" d="M357.09,87.82c-.32.31.43.27.47.24C357.88,87.74,357.13,87.78,357.09,87.82Z"/><path class="cls-9" d="M525.27,88.06s-.08.78.24.47C525.55,88.49,525.59,87.74,525.27,88.06Z"/><path class="cls-3" d="M774.47,87.58l.71.71Z"/><path class="cls-5" d="M354.25,88.53c-.32.31.43.28.47.24C355,88.45,354.28,88.49,354.25,88.53Z"/><path class="cls-2" d="M476.71,88.29l.71.71Z"/><path class="cls-3" d="M775.89,88.29l.72.71Z"/><path class="cls-6" d="M806.45,88.29v2.13C807,89.32,807,89.4,806.45,88.29Z"/><path class="cls-5" d="M238.65,89l.71.71Z"/><path class="cls-3" d="M350,89.24c-.32.32.44.28.47.24C350.77,89.16,350,89.2,350,89.24Z"/><path class="cls-8" d="M351.4,89.24c-.31.32.44.28.48.24C352.19,89.16,351.44,89.2,351.4,89.24Z"/><path class="cls-2" d="M393.57,89l.71.71Z"/><path class="cls-10" d="M312.55,89.71c3.18,1.34,7.25.71,10.66.71h20.61c-3.17-1.33-7.24-.71-10.66-.71Z"/><path class="cls-3" d="M343.82,89.71a4.9,4.9,0,0,0,2.13.71A5.12,5.12,0,0,0,343.82,89.71Z"/><path class="cls-8" d="M346.43,90c-.32.32.43.28.47.24C347.22,89.87,346.47,89.91,346.43,90Z"/><path class="cls-6" d="M477.42,89.71l.71.71Z"/><path class="cls-4" d="M499.45,89.71v2.14c.5-1.11.5-1,0-2.14m26.3,0,.71.71Z"/><path class="cls-2" d="M778,89.71l.71.71Z"/><path class="cls-10" d="M268.49,90.42V94A3.8,3.8,0,0,0,268.49,90.42Z"/><path class="cls-6" d="M392.86,90.42l.71.71Z"/><path class="cls-2" d="M778.74,90.42l.71.71-.71-.71m.71.71.71.72Z"/><path class="cls-3" d="M478.13,91.85l.71.71-.71-.71m48.33,0,.71.71-.71-.71m-284.26.71.71.71-.71-.71m150,0,.71.71Z"/><path class="cls-2" d="M479.08,93.74s-.08.79.24.47C479.36,94.17,479.4,93.42,479.08,93.74Z"/><path class="cls-8" d="M500.4,93.74s-.08.79.24.47C500.68,94.17,500.72,93.42,500.4,93.74Z"/><path class="cls-6" d="M527.17,93.27l.71.71-.71-.71m-284,1.18s-.08.79.23.47C243.42,94.89,243.46,94.13,243.15,94.45Z"/><path class="cls-5" d="M391.44,94l.71.71Z"/><path class="cls-8" d="M807.16,94v5.68A6.79,6.79,0,0,0,807.16,94Z"/><path class="cls-7" d="M391.44,94.69l.71.71Z"/><path class="cls-6" d="M527.88,94.69l.71.71-.71-.71m-48.32.71.71.71Z"/><path class="cls-4" d="M501.11,95.87s-.08.79.24.48C501.39,96.31,501.43,95.56,501.11,95.87Z"/><path class="cls-3" d="M576,95.64c-.32.31.43.27.47.23C576.76,95.56,576,95.6,576,95.64Z"/><path class="cls-4" d="M390.72,96.11l.72.71Z"/><path class="cls-6" d="M528.59,96.11l.71.71-.71-.71m49,0,.72.71Z"/><path class="cls-10" d="M781.58,96.11v4.26A4.7,4.7,0,0,0,781.58,96.11Z"/><path class="cls-3" d="M574.78,96.82l.71.71Z"/><path class="cls-9" d="M190.8,97.77c-.32.31.43.27.47.23C191.59,97.69,190.84,97.73,190.8,97.77Z"/><path class="cls-3" d="M480.27,97.53l.71.71-.71-.71m49,0,.71.71Z"/><path class="cls-2" d="M579.76,97.53l.71.71Z"/><path class="cls-6" d="M728.28,97.53l.71.71Z"/><path class="cls-2" d="M189.61,98.24l.71.71-.71-.71m200.4,0,.71.71-.71-.71m111.58,0,.71.71Z"/><path class="cls-4" d="M581.18,98.24l.71.71Z"/><path class="cls-6" d="M727.57,98.24l.71.71Z"/><path class="cls-5" d="M481,99l.71.71Z"/><path class="cls-2" d="M573.36,99l.71.71-.71-.71m153.5,0,.71.71Z"/><path class="cls-10" d="M268.49,99.66v2.13C269,100.69,269,100.77,268.49,99.66Z"/><path class="cls-6" d="M389.3,99.66l.71.71Z"/><path class="cls-7" d="M481,99.66l.71.71Z"/><path class="cls-4" d="M530.72,99.66l.71.71Z"/><path class="cls-6" d="M572.65,99.66l.71.71Z"/><path class="cls-7" d="M583.31,99.66l.71.71Z"/><path class="cls-2" d="M726.15,99.66l.71.71Z"/><path class="cls-6" d="M242.91,100.37v2.13C243.4,101.4,243.4,101.48,242.91,100.37Z"/><path class="cls-4" d="M502.3,100.37l.71.71Z"/><path class="cls-3" d="M584.73,100.37l.71.71Z"/><path class="cls-4" d="M481.69,101.08l.71.71Z"/><path class="cls-5" d="M733.26,101.08l.71.71Z"/><path class="cls-6" d="M185.35,101.79l.71.71-.71-.71m83.14,0v2.14C269,102.82,269,102.9,268.49,101.79Z"/><path class="cls-3" d="M388.59,101.79l.71.71Z"/><path class="cls-6" d="M503.24,102.27s-.08.79.24.47C503.52,102.7,503.56,102,503.24,102.27Z"/><path class="cls-7" d="M571.23,101.79l.71.71-.71-.71m15.63,0,.71.71Z"/><path class="cls-4" d="M734,101.79l.71.71-.71-.71m46.9,0,.71.71Z"/><path class="cls-7" d="M806.69,102.27s-.08.79.24.47C807,102.7,807,102,806.69,102.27Z"/><path class="cls-6" d="M184.64,102.5l.71.72-.71-.72m12.08,0,.71.72Z"/><path class="cls-2" d="M570.52,102.5l.71.72Z"/><path class="cls-3" d="M588.28,102.5l.72.72Z"/><path class="cls-2" d="M734.68,102.5l.71.72-.71-.72m-550.75.72.71.71-.71-.71m13.5,0,.71.71Z"/><path class="cls-4" d="M242.2,103.22l.71.71Z"/><path class="cls-2" d="M388.12,103.69s-.08.79.24.47c0,0,.07-.79-.24-.47m94.28-.47.71.71-.71-.71m51.16,0,.72.71-.72-.71m36.25,0,.71.71Z"/><path class="cls-5" d="M589.71,103.22l.71.71Z"/><path class="cls-6" d="M721.89,103.22l.71.71Z"/><path class="cls-4" d="M806.45,103.22v2.13C807,104.24,807,104.32,806.45,103.22Z"/><path class="cls-2" d="M183.22,103.93l.71.71-.71-.71m320.5,0,.71.71-.71-.71m30.56,0,.71.71Z"/><path class="cls-6" d="M569.1,103.93l.71.71-.71-.71m152.08,0,.71.71Z"/><path class="cls-5" d="M736.81,103.93l.71.71Z"/><path class="cls-7" d="M780.16,103.93l.71.71Z"/><path class="cls-3" d="M199.56,104.64l.71.71-.71-.71m41.93,0,.71.71Z"/><path class="cls-6" d="M483.11,104.64l.71.71-.71-.71m85.28,0,.71.71Z"/><path class="cls-3" d="M591.84,104.64l.71.71-.71-.71m128.62,0,.72.71Z"/><path class="cls-5" d="M779.45,104.64l.71.71-.71-.71m-538.67.71.71.71Z"/><path class="cls-3" d="M267.78,105.35v2.13C268.28,106.38,268.28,106.45,267.78,105.35Z"/><path class="cls-4" d="M387.17,105.35l.71.71Z"/><path class="cls-2" d="M504.43,105.35l.71.71-.71-.71m63.25,0,.71.71Z"/><path class="cls-6" d="M593.26,105.35l.71.71Z"/><path class="cls-2" d="M719.75,105.35l.71.71Z"/><path class="cls-4" d="M738.94,105.35l.71.71Z"/><path class="cls-3" d="M829.9,105.35a7.87,7.87,0,0,0,2.85.71A7.44,7.44,0,0,0,829.9,105.35Z"/><path class="cls-8" d="M833.22,105.58c-.32.32.44.28.47.24C834,105.51,833.26,105.55,833.22,105.58Z"/><path class="cls-2" d="M201.69,106.06l.71.71Z"/><path class="cls-3" d="M412.75,106.06c4.06,1.7,9.84.71,14.22.71h30.56c-4.06-1.7-9.84-.71-14.22-.71Z"/><path class="cls-4" d="M537.12,106.06l.71.71-.71-.71m290.65,0,.71.71Z"/><path d="M828.48,106.45c-15.92,4.18-8.78,29.2,7.11,24.63S844.34,102.29,828.48,106.45Z"/><path class="cls-4" d="M835.59,106.06l.71.71Z"/><path class="cls-2" d="M203.11,106.77l.71.71Z"/><path class="cls-5" d="M239.36,106.77l.71.71-.71-.71m218.4.47s-.08.79.24.48C458,107.68,458.08,106.93,457.76,107.24Z"/><path class="cls-3" d="M483.82,106.77l.71.71Z"/><path class="cls-2" d="M505.14,106.77l.71.71Z"/><path class="cls-3" d="M595.39,106.77l.71.71Z"/><path class="cls-6" d="M806,107.24s-.08.79.24.48c0,0,.08-.79-.24-.48m-627,.24.71.71Z"/><path class="cls-2" d="M204.54,107.48l.71.71Z"/><path class="cls-3" d="M238.65,107.48l.71.71-.71-.71m147.81,0,.71.71-.71-.71m25.58,0,.71.71-.71-.71m127.21,0,.71.71Z"/><path class="cls-7" d="M564.83,107.48l.71.71Z"/><path class="cls-5" d="M776.61,107.48l.71.71Z"/><path class="cls-2" d="M824.93,107.48l.71.71-.71-.71m13.5,0,.71.71Z"/><path class="cls-1" d="M5.55,108.19v35.53H66c-5.51-5.59-14.51-9.11-21.32-13C31.59,123.29,18.81,115.25,5.55,108.19Z"/><path class="cls-6" d="M178.24,108.19l.71.71-.71-.71m28.43,0,.71.71-.71-.71m30.56,0,.71.71Z"/><path class="cls-2" d="M505.85,108.19l.71.71Z"/><path class="cls-3" d="M540.67,108.19l.71.71-.71-.71m22.74,0,.71.71Z"/><path class="cls-2" d="M596.1,108.19l.71.71Z"/><path class="cls-3" d="M744.63,108.19l.71.71Z"/><path class="cls-2" d="M775.89,108.19l.72.71Z"/><path class="cls-4" d="M7,108.9l.71.71Z"/><path class="cls-5" d="M127.07,108.9l.72.71Z"/><path class="cls-3" d="M177.53,108.9l.71.71Z"/><path class="cls-7" d="M208.09,108.9l.71.71Z"/><path class="cls-5" d="M208.8,108.9l.71.71Z"/><path class="cls-6" d="M235.8,108.9l.71.71Z"/><path class="cls-3" d="M267.07,108.9l.71.71Z"/><path class="cls-7" d="M386,109.37s-.08.79.23.48C386.26,109.81,386.3,109.06,386,109.37Z"/><path class="cls-2" d="M458.24,108.9l.71.71-.71-.71m26.29,0,.71.71-.71-.71m57.56,0,.71.71-.71-.71m19.9,0,.71.71Z"/><path class="cls-8" d="M637.32,108.9c5.26,2.21,13.5.71,19.19.71h44.06c-5.26-2.21-13.5-.71-19.19-.71Z"/><path class="cls-6" d="M715.49,108.9l.71.71-.71-.71m31.27,0,.71.71Z"/><path class="cls-5" d="M822.8,108.9l.71.71Z"/><path class="cls-2" d="M8.4,109.61l.71.71Z"/><path class="cls-3" d="M125.65,109.61l.71.71Z"/><path class="cls-2" d="M176.82,109.61l.71.71Z"/><path class="cls-3" d="M210.69,109.85c-.31.31.44.27.48.24C211.48,109.77,210.73,109.81,210.69,109.85Z"/><path class="cls-2" d="M234.15,109.85c-.32.31.43.27.47.24C234.94,109.77,234.18,109.81,234.15,109.85Z"/><path class="cls-3" d="M411.33,109.61l.71.71-.71-.71m95.23,0,.71.71Z"/><path class="cls-5" d="M544.7,109.85c-.32.31.43.27.47.24C545.49,109.77,544.74,109.81,544.7,109.85Z"/><path class="cls-3" d="M559.86,109.61l.71.71Z"/><path class="cls-2" d="M595.39,109.61l.71.71Z"/><path class="cls-10" d="M699.86,109.61v23.45h-86.7c2.81,1.18,6.21.71,9.24.71h78.17V118.14C700.57,115.31,701,112.24,699.86,109.61Z"/><path class="cls-6" d="M714.78,109.61l.71.71Z"/><path class="cls-5" d="M749.37,109.85c-.32.31.43.27.47.24C750.16,109.77,749.4,109.81,749.37,109.85Z"/><path class="cls-3" d="M772.11,109.85c-.32.31.43.27.47.24C772.9,109.77,772.14,109.81,772.11,109.85Z"/><path class="cls-4" d="M805,109.61l.71.71Z"/><path class="cls-5" d="M822.09,109.61l.71.71Z"/><path class="cls-2" d="M124.23,110.32l.71.71Z"/><path class="cls-3" d="M213.06,110.32a5,5,0,0,0,2.14.71A5.21,5.21,0,0,0,213.06,110.32Z"/><path class="cls-8" d="M229.88,110.56c-.31.31.44.28.48.24C230.67,110.48,229.92,110.52,229.88,110.56Z"/><path class="cls-3" d="M231.3,110.56c-.31.31.44.28.48.24C232.09,110.48,231.34,110.52,231.3,110.56Z"/><path class="cls-6" d="M485.24,110.32l.71.71Z"/><path class="cls-3" d="M547.54,110.56c-.31.31.44.28.47.24C548.33,110.48,547.58,110.52,547.54,110.56Z"/><path class="cls-8" d="M549,110.56c-.31.31.44.28.48.24.31-.32-.44-.28-.48-.24m6.4,0c-.32.31.43.28.47.24C556.15,110.48,555.4,110.52,555.36,110.56Z"/><path class="cls-2" d="M556.31,110.32a5,5,0,0,0,2.13.71A5.17,5.17,0,0,0,556.31,110.32Z"/><path class="cls-3" d="M714.07,110.32l.71.71-.71-.71m38.14.24c-.32.31.43.28.47.24C753,110.48,752.24,110.52,752.21,110.56Z"/><path class="cls-11" d="M753.63,110.56c-.32.31.43.28.47.24C754.42,110.48,753.67,110.52,753.63,110.56Z"/><path class="cls-4" d="M768.08,110.32a5,5,0,0,0,2.13.71A5.17,5.17,0,0,0,768.08,110.32Z"/><path class="cls-5" d="M10.53,111l.71.71Z"/><path class="cls-10" d="M217.33,111a4.85,4.85,0,0,0,2.13.71A5.17,5.17,0,0,0,217.33,111Z"/><path class="cls-3" d="M219.46,111c2,.86,4.17.71,6.39.71C223.8,110.88,221.68,111,219.46,111Z"/><path class="cls-10" d="M225.85,111a4.89,4.89,0,0,0,2.14.71A5.17,5.17,0,0,0,225.85,111Z"/><path class="cls-3" d="M266.36,111l.71.71-.71-.71M385,111l.71.71L385,111M459,111l.71.71Z"/><path class="cls-5" d="M507.27,111l.71.71Z"/><path class="cls-3" d="M594.68,111l.71.71Z"/><path class="cls-2" d="M713.36,111l.71.71Z"/><path class="cls-10" d="M756.47,111.27c-.32.32.44.28.47.24C757.26,111.19,756.51,111.23,756.47,111.27Z"/><path class="cls-3" d="M757.42,111c2.05.86,4.17.71,6.39.71C761.76,110.88,759.64,111,757.42,111Z"/><path class="cls-10" d="M763.81,111a7.48,7.48,0,0,0,2.85.71A7.87,7.87,0,0,0,763.81,111Z"/><path class="cls-3" d="M12,111.74l.71.71Z"/><path class="cls-6" d="M122.1,111.74l.71.71Z"/><path class="cls-4" d="M410.62,111.74l.71.71Z"/><path class="cls-7" d="M712.65,111.74l.71.71Z"/><path class="cls-4" d="M804.32,111.74l.71.71Z"/><path class="cls-3" d="M820.67,111.74l.71.71-.71-.71m22,0,.71.71Z"/><path class="cls-2" d="M13.37,112.45l.71.71Z"/><path class="cls-3" d="M120.68,112.45l.71.71-.71-.71m365.27,0,.71.71Z"/><path class="cls-5" d="M594,112.45l.71.71Z"/><path class="cls-7" d="M119.26,113.16l.71.72Z"/><path class="cls-3" d="M173.27,113.16l.71.72Z"/><path class="cls-6" d="M265.65,113.16l.71.72Z"/><path class="cls-2" d="M384.33,113.16l.71.72Z"/><path class="cls-6" d="M410.15,113.64s-.08.79.24.47C410.43,114.07,410.47,113.32,410.15,113.64Z"/><path class="cls-4" d="M459.66,113.16l.71.72Z"/><path class="cls-3" d="M508.69,113.16l.71.72Z"/><path class="cls-2" d="M803.61,113.16l.71.72-.71-.72m16.35,0,.71.72Z"/><path class="cls-3" d="M843.41,113.16l.71.72Z"/><path class="cls-6" d="M15.5,113.88l.71.71Z"/><path class="cls-5" d="M486.66,113.88l.71.71Z"/><path class="cls-3" d="M711.94,113.88l.71.71-.71-.71m-695,.71.72.71Z"/><path class="cls-4" d="M117.13,114.59l.71.71Z"/><path class="cls-6" d="M264.94,114.59l.71.71-.71-.71m118.68,0,.71.71Z"/><path class="cls-7" d="M486.66,114.59l.71.71Z"/><path class="cls-4" d="M592.55,114.59l.71.71Z"/><path class="cls-2" d="M802.9,114.59l.71.71-.71-.71m16.58.47s-.08.79.24.47C819.76,115.49,819.8,114.74,819.48,115.06Z"/><path class="cls-7" d="M18.35,115.3l.71.71Z"/><path class="cls-3" d="M115.7,115.3l.72.71Z"/><path class="cls-5" d="M174.69,115.3l.71.71Z"/><path class="cls-7" d="M409.2,115.3l.71.71Z"/><path class="cls-4" d="M460.37,115.3l.71.71Z"/><path class="cls-5" d="M510.11,115.3l.71.71Z"/><path class="cls-9" d="M844.35,115.77s-.08.79.24.47C844.63,116.2,844.67,115.45,844.35,115.77Z"/><path class="cls-4" d="M175.4,116l.71.71Z"/><path class="cls-6" d="M264.23,116l.71.71Z"/><path class="cls-5" d="M409.2,116l.71.71Z"/><path class="cls-4" d="M487.37,116l.71.71Z"/><path class="cls-3" d="M510.82,116l.71.71Z"/><path class="cls-2" d="M802.19,116l.71.71Z"/><path class="cls-4" d="M20.48,116.72l.71.71Z"/><path class="cls-5" d="M113.57,116.72l.71.71Z"/><path class="cls-2" d="M176.11,116.72l.71.71Z"/><path class="cls-3" d="M382.91,116.72l.71.71Z"/><path class="cls-6" d="M461.32,117.19s-.08.79.23.48C461.59,117.63,461.63,116.88,461.32,117.19Z"/><path class="cls-5" d="M591.13,116.72l.71.71Z"/><path class="cls-6" d="M714.07,116.72l.71.71Z"/><path class="cls-3" d="M21.9,117.43l.71.71-.71-.71m90.25,0,.71.71Z"/><path class="cls-5" d="M408.73,117.9s-.08.79.23.48C409,118.34,409,117.59,408.73,117.9Z"/><path class="cls-3" d="M590.42,117.43l.71.71-.71-.71m124.36,0,.71.71Z"/><path class="cls-4" d="M801.48,117.43l.71.71Z"/><path class="cls-8" d="M818.53,117.43v2.84A2.83,2.83,0,0,0,818.53,117.43Z"/><path class="cls-2" d="M110.73,118.14l.71.71Z"/><path class="cls-3" d="M262.81,118.14l.71.71Z"/><path class="cls-5" d="M382.2,118.14l.71.71Z"/><path class="cls-2" d="M488.08,118.14l.71.71-.71-.71m227.41,0,.71.71Z"/><path class="cls-5" d="M24,118.85l.71.71Z"/><path class="cls-7" d="M382.2,118.85l.71.71Z"/><path class="cls-5" d="M462,119.32s-.08.79.23.48C462.3,119.76,462.34,119,462,119.32Z"/><path class="cls-6" d="M513,118.85l.71.71Z"/><path class="cls-2" d="M716.2,118.85l.71.71Z"/><path class="cls-3" d="M25.45,119.56l.71.71Z"/><path class="cls-6" d="M108.6,119.56l.71.71Z"/><path class="cls-3" d="M407.78,119.56l.71.71Z"/><path class="cls-7" d="M489,120s-.08.79.24.48C489.31,120.47,489.35,119.72,489,120Z"/><path class="cls-6" d="M513.67,119.56l.71.71Z"/><path class="cls-2" d="M716.91,119.56l.71.71Z"/><path class="cls-6" d="M800.06,119.56l.71.71Z"/><path class="cls-2" d="M26.87,120.27l.71.71Z"/><path class="cls-3" d="M107.18,120.27l.71.71Z"/><path class="cls-5" d="M261.39,120.27l.71.71Z"/><path class="cls-4" d="M381.49,120.27l.71.71Z"/><path class="cls-6" d="M514.38,120.27l.71.71Z"/><path class="cls-2" d="M717.62,120.27l.71.71Z"/><path class="cls-3" d="M799.35,120.27l.71.71Z"/><path class="cls-7" d="M105.76,121l.71.71Z"/><path class="cls-2" d="M180.37,121l.71.71Z"/><path class="cls-3" d="M260.68,121l.71.71Z"/><path class="cls-2" d="M462.5,121l.71.71Z"/><path class="cls-6" d="M515.09,121l.71.71Z"/><path class="cls-4" d="M718.33,121l.71.71Z"/><path class="cls-6" d="M29,121.69l.71.71Z"/><path class="cls-2" d="M181.08,121.69l.71.71-.71-.71m78.89,0,.71.71Z"/><path class="cls-3" d="M407.07,121.69l.71.71Z"/><path class="cls-4" d="M489.5,121.69l.72.71-.72-.71m26.3,0,.71.71Z"/><path class="cls-6" d="M586.86,121.69l.71.71-.71-.71m132.18,0,.71.71Z"/><path class="cls-5" d="M819.48,122.17s-.08.79.24.47C819.76,122.6,819.8,121.85,819.48,122.17Z"/><path class="cls-3" d="M844.12,121.69l.71.71-.71-.71m-813.69.71.71.71Z"/><path class="cls-6" d="M103.62,122.4l.71.71Z"/><path class="cls-4" d="M181.79,122.4l.72.71Z"/><path class="cls-2" d="M259.26,122.4l.71.71-.71-.71m121.52,0,.71.71Z"/><path class="cls-6" d="M516.51,122.4l.71.71Z"/><path class="cls-5" d="M586.15,122.4l.71.71Z"/><path class="cls-2" d="M31.85,123.11l.71.71Z"/><path class="cls-3" d="M102.2,123.11l.71.71Z"/><path class="cls-2" d="M258.54,123.11l.72.71Z"/><path class="cls-3" d="M463.21,123.11l.71.71Z"/><path class="cls-2" d="M257.83,123.82l.71.72Z"/><path class="cls-6" d="M380.06,123.82l.72.72Z"/><path class="cls-4" d="M406.36,123.82l.71.72Z"/><path class="cls-2" d="M490.22,123.82l.71.72Z"/><path class="cls-3" d="M721.89,123.82l.71.72-.71-.72m98.07,0,.71.72-.71-.72m23.45,0,.71.72Z"/><path class="cls-6" d="M34,124.54l.71.71Z"/><path class="cls-4" d="M184.64,124.54l.71.71Z"/><path class="cls-3" d="M257.12,124.54l.71.71-.71-.71m-221.72.71.71.71Z"/><path class="cls-4" d="M98.65,125.25l.71.71Z"/><path class="cls-5" d="M256.41,125.25l.71.71Z"/><path class="cls-6" d="M405.88,125.72s-.07.79.24.47C406.16,126.15,406.2,125.4,405.88,125.72Z"/><path class="cls-4" d="M463.92,125.25l.71.71Z"/><path class="cls-6" d="M490.93,125.25l.71.71Z"/><path class="cls-2" d="M520.06,125.25l.71.71-.71-.71m62.54,0,.71.71-.71-.71m141.42,0,.71.71Z"/><path class="cls-3" d="M794.37,125.25l.71.71-.71-.71m26.3,0,.71.71Z"/><path class="cls-6" d="M842.7,125.25l.71.71Z"/><path class="cls-2" d="M97.23,126l.71.71Z"/><path class="cls-3" d="M186.77,126l.71.71-.71-.71m192.58,0,.71.71Z"/><path class="cls-5" d="M520.77,126l.71.71Z"/><path class="cls-4" d="M581.89,126l.71.71Z"/><path class="cls-5" d="M724.73,126l.71.71-.71-.71m68.93,0,.71.71Z"/><path class="cls-7" d="M188.19,126.67l.71.71Z"/><path class="cls-2" d="M254.28,126.67l.71.71Z"/><path class="cls-3" d="M522.19,126.67l.71.71-.71-.71m204,0,.71.71Z"/><path class="cls-4" d="M39,127.38l.72.71Z"/><path class="cls-5" d="M95.1,127.38l.71.71-.71-.71m283.54,0,.71.71Z"/><path class="cls-7" d="M404.94,127.38l.71.71Z"/><path class="cls-4" d="M464.63,127.38l.71.71Z"/><path class="cls-3" d="M491.64,127.38l.71.71-.71-.71m88.12,0,.71.71Z"/><path class="cls-7" d="M727.57,127.38l.71.71Z"/><path class="cls-4" d="M791.53,127.38l.71.71Z"/><path class="cls-3" d="M40.38,128.09l.71.71-.71-.71m53.29,0,.72.71Z"/><path class="cls-6" d="M190.32,128.09l.71.71Z"/><path class="cls-3" d="M252.15,128.09l.71.71Z"/><path class="cls-7" d="M378.64,128.09l.71.71Z"/><path class="cls-5" d="M404.94,128.09l.71.71Z"/><path class="cls-3" d="M524.33,128.09l.71.71Z"/><path class="cls-2" d="M790.11,128.09l.71.71-.71-.71m-697.86.71.71.71Z"/><path class="cls-6" d="M191.74,128.8l.71.71Z"/><path class="cls-7" d="M250.73,128.8l.71.71Z"/><path class="cls-6" d="M465.58,129.27s-.08.79.24.48C465.86,129.71,465.9,129,465.58,129.27Z"/><path class="cls-2" d="M492.58,129.27s-.08.79.24.48C492.86,129.71,492.9,129,492.58,129.27Z"/><path class="cls-6" d="M577.62,128.8l.72.71Z"/><path class="cls-5" d="M42.51,129.51l.71.71Z"/><path class="cls-6" d="M193.17,129.51l.71.71Z"/><path class="cls-2" d="M249.31,129.51l.71.71Z"/><path class="cls-4" d="M377.93,129.51l.71.71Z"/><path class="cls-5" d="M404.46,130s-.08.79.24.48C404.74,130.42,404.78,129.67,404.46,130Z"/><path class="cls-3" d="M576.2,129.51l.71.71Z"/><path class="cls-2" d="M731.83,129.51l.72.71Z"/><path class="cls-4" d="M824.93,129.51l.71.71Z"/><path class="cls-6" d="M838.43,129.51l.71.71Z"/><path class="cls-3" d="M43.93,130.22l.71.71Z"/><path class="cls-6" d="M90.12,130.22l.71.71Z"/><path class="cls-2" d="M195.3,130.22l.71.71-.71-.71m52.58,0,.72.71Z"/><path class="cls-3" d="M574.78,130.22l.71.71-.71-.71m158.48,0,.71.71-.71-.71m93.09,0,.71.71-.71-.71m10.66,0,.71.71Z"/><path class="cls-2" d="M45.35,130.93l.71.71Z"/><path class="cls-3" d="M88.7,130.93l.71.71Z"/><path class="cls-4" d="M196.72,130.93l.71.71-.71-.71m49.74,0,.71.71Z"/><path class="cls-5" d="M466.29,131.4s-.08.79.24.48C466.57,131.84,466.61,131.09,466.29,131.4Z"/><path class="cls-6" d="M493.06,130.93l.71.71Z"/><path class="cls-2" d="M530,130.93l.71.71Z"/><path class="cls-4" d="M573.36,130.93l.71.71Z"/><path class="cls-5" d="M734.68,130.93l.71.71Z"/><path class="cls-7" d="M735.39,130.93l.71.71Z"/><path class="cls-3" d="M784.42,130.93l.71.71Z"/><path class="cls-9" d="M829,131.17c-.32.31.43.27.47.23C829.75,131.09,829,131.13,829,131.17Z"/><path class="cls-3" d="M834.88,130.93l.71.71Z"/><path class="cls-7" d="M87.28,131.64l.71.71Z"/><path class="cls-3" d="M198.85,131.64l.71.71-.71-.71m45.48,0,.71.71Z"/><path class="cls-2" d="M377.22,131.64l.71.71Z"/><path class="cls-3" d="M403.52,131.64l.71.71Z"/><path class="cls-6" d="M531.43,131.64l.71.71Z"/><path class="cls-2" d="M571.23,131.64l.71.71Z"/><path class="cls-4" d="M736.81,131.64l.71.71Z"/><path class="cls-5" d="M782.77,131.88c-.32.31.43.27.47.24C783.56,131.8,782.8,131.84,782.77,131.88Z"/><path class="cls-8" d="M831.8,131.88c-.32.31.44.27.47.24C832.59,131.8,831.84,131.84,831.8,131.88Z"/><path class="cls-6" d="M47.48,132.35l.71.71Z"/><path class="cls-4" d="M201,132.35l.71.71Z"/><path class="cls-3" d="M242.2,132.35l.71.71-.71-.71m291.36,0,.72.71Z"/><path class="cls-6" d="M569.57,132.59c-.32.32.44.28.47.24C570.36,132.51,569.61,132.55,569.57,132.59Z"/><path class="cls-7" d="M739.42,132.59c-.32.32.43.28.47.24C740.21,132.51,739.45,132.55,739.42,132.59Z"/><path class="cls-6" d="M780.64,132.59c-.32.32.43.28.46.24C781.42,132.51,780.67,132.55,780.64,132.59Z"/><path class="cls-3" d="M48.9,133.06l.71.71Z"/><path class="cls-4" d="M85.15,133.06l.71.71Z"/><path class="cls-3" d="M203.59,133.3c-.32.32.43.28.47.24C204.38,133.22,203.63,133.26,203.59,133.3Z"/><path class="cls-5" d="M239.83,133.3c-.32.32.44.28.47.24C240.62,133.22,239.87,133.26,239.83,133.3Z"/><path class="cls-10" d="M377.22,133.06c2.82,1.18,6.21.71,9.24.71h17.06c-2.82-1.18-6.21-.71-9.24-.71H377.22m89.54,0c2.82,1.18,6.21.71,9.24.71h17.77c-2.82-1.18-6.21-.71-9.24-.71Z"/><path class="cls-6" d="M493.77,133.06l.71.71Z"/><path class="cls-7" d="M536.17,133.3c-.32.32.43.28.47.24C537,133.22,536.21,133.26,536.17,133.3Z"/><path class="cls-5" d="M567.44,133.3c-.32.32.43.28.47.24C568.23,133.22,567.48,133.26,567.44,133.3Z"/><path class="cls-10" d="M742.26,133.3c-.32.32.43.28.47.24C743.05,133.22,742.3,133.26,742.26,133.3Z"/><path class="cls-6" d="M777.79,133.3c-.32.32.44.28.47.24C778.58,133.22,777.83,133.26,777.79,133.3Z"/><path class="cls-7" d="M50.33,133.77l.71.71Z"/><path class="cls-3" d="M83.73,133.77l.71.71Z"/><path class="cls-7" d="M207.14,134c-.31.32.44.28.47.24C207.93,133.93,207.18,134,207.14,134Z"/><path class="cls-3" d="M236.28,134c-.32.32.43.28.47.24C237.07,133.93,236.32,134,236.28,134Z"/><path class="cls-10" d="M539,134c-.31.32.44.28.48.24C539.8,133.93,539.05,134,539,134Z"/><path class="cls-6" d="M564.6,134c-.32.32.43.28.47.24C565.39,133.93,564.64,134,564.6,134Z"/><path class="cls-4" d="M743.92,133.77a4.85,4.85,0,0,0,2.13.71A5.17,5.17,0,0,0,743.92,133.77Z"/><path class="cls-3" d="M774.24,134c-.32.32.43.28.47.24C775,133.93,774.27,134,774.24,134Z"/><path class="cls-11" d="M775.66,134c-.32.32.43.28.47.24C776.45,133.93,775.7,134,775.66,134Z"/><path class="cls-6" d="M210,134.72c-.31.32.44.28.48.24C210.77,134.64,210,134.68,210,134.72Z"/><path class="cls-2" d="M210.93,134.48a4.9,4.9,0,0,0,2.13.71A5.12,5.12,0,0,0,210.93,134.48Z"/><path class="cls-10" d="M229.41,134.48a4.85,4.85,0,0,0,2.13.71A5.17,5.17,0,0,0,229.41,134.48Z"/><path class="cls-3" d="M232,134.72c-.31.32.44.28.48.24C232.8,134.64,232.05,134.68,232,134.72Z"/><path class="cls-11" d="M233.44,134.72c-.32.32.43.28.47.24C234.22,134.64,233.47,134.68,233.44,134.72Z"/><path class="cls-4" d="M541.38,134.48a4.9,4.9,0,0,0,2.13.71A5.12,5.12,0,0,0,541.38,134.48Z"/><path class="cls-9" d="M544,134.72c-.32.32.43.28.47.24C544.78,134.64,544,134.68,544,134.72Z"/><path class="cls-7" d="M559.15,134.48a4.85,4.85,0,0,0,2.13.71A5.17,5.17,0,0,0,559.15,134.48Z"/><path class="cls-8" d="M561.75,134.72c-.31.32.44.28.48.24C562.54,134.64,561.79,134.68,561.75,134.72Z"/><path class="cls-5" d="M748,134.72c-.32.32.43.28.46.24C748.73,134.64,748,134.68,748,134.72Z"/><path class="cls-3" d="M749.37,134.72c-.32.32.43.28.47.24C750.16,134.64,749.4,134.68,749.37,134.72Z"/><path class="cls-10" d="M768.55,134.72c-.32.32.44.28.47.24C769.34,134.64,768.59,134.68,768.55,134.72Z"/><path class="cls-3" d="M770,134.72c-.32.32.43.28.46.24C770.76,134.64,770,134.68,770,134.72Z"/><path class="cls-8" d="M771.4,134.72c-.32.32.43.28.47.24C772.19,134.64,771.43,134.68,771.4,134.72Z"/><path class="cls-6" d="M52.46,135.19l.71.72Z"/><path class="cls-5" d="M81.59,135.19l.71.72Z"/><path class="cls-8" d="M215.2,135.19a7.58,7.58,0,0,0,2.84.72A7.63,7.63,0,0,0,215.2,135.19Z"/><path class="cls-3" d="M218,135.19c2.05.87,4.17.71,6.39.72C222.38,135,220.26,135.2,218,135.19Z"/><path class="cls-8" d="M224.43,135.19a8.75,8.75,0,0,0,3.56.72,8.75,8.75,0,0,0-3.56-.72m321.93,0a7.58,7.58,0,0,0,2.84.72A7.63,7.63,0,0,0,546.36,135.19Z"/><path class="cls-3" d="M549.2,135.19a12.26,12.26,0,0,0,5,.72A12.21,12.21,0,0,0,549.2,135.19Z"/><path class="cls-8" d="M554.17,135.19a7.63,7.63,0,0,0,2.85.72,7.63,7.63,0,0,0-2.85-.72m199.69,0a7.68,7.68,0,0,0,2.85.72A7.63,7.63,0,0,0,753.86,135.19Z"/><path class="cls-3" d="M756.71,135.19a13.89,13.89,0,0,0,5.68.72A14.06,14.06,0,0,0,756.71,135.19Z"/><path class="cls-8" d="M762.39,135.19a8.75,8.75,0,0,0,3.56.72A8.75,8.75,0,0,0,762.39,135.19Z"/><path class="cls-3" d="M53.88,135.91l.71.71-.71-.71m26.29,0,.71.71Z"/><path class="cls-2" d="M78.75,136.62l.71.71Z"/><path class="cls-3" d="M57.43,138l.71.71Z"/><path class="cls-6" d="M76.62,138l.71.71Z"/><path class="cls-2" d="M58.85,138.75l.71.71Z"/><path class="cls-3" d="M75.2,138.75l.71.71Z"/><path class="cls-2" d="M73.78,139.46l.71.71Z"/><path class="cls-5" d="M61,140.17l.72.71Z"/><path class="cls-3" d="M62.41,140.88l.71.71Z"/><path class="cls-6" d="M71.64,140.88l.72.71Z"/><path class="cls-2" d="M63.83,141.59l.71.71Z"/><path class="cls-3" d="M70.22,141.59l.71.71Z"/><path class="cls-6" d="M66,143l.71.71Z"/></svg>