<svg id="Layer_1" data-name="Layer 1" xmlns="http://www.w3.org/2000/svg" width="818" height="129.8" viewBox="0 0 818 129.8"><defs><style>.cls-1{fill:#008ff9;fill-rule:evenodd;}</style></defs><title>stackshare</title><g id="Layer1"><path d="M224.46,88.7q0,11-7.65,16.77t-22.89,5.76a72.29,72.29,0,0,1-13.31-1,50.49,50.49,0,0,1-10.31-3.11V90.94a69.17,69.17,0,0,0,12.26,4.29,49.76,49.76,0,0,0,12,1.72q10.63,0,10.63-6.14a5.13,5.13,0,0,0-1.41-3.75,20.11,20.11,0,0,0-4.86-3.26q-3.46-1.83-9.22-4.26a58.14,58.14,0,0,1-12.13-6.4,18,18,0,0,1-5.64-6.76A22.34,22.34,0,0,1,170.17,57q0-9.54,7.4-14.76t21-5.21a59.49,59.49,0,0,1,25.17,5.63l-5.89,14.09A107.12,107.12,0,0,0,207.75,53a31.56,31.56,0,0,0-9.54-1.47q-8.64,0-8.64,4.67,0,2.63,2.79,4.55t12.19,5.69q8.38,3.41,12.3,6.34a18.87,18.87,0,0,1,5.76,6.79,20.82,20.82,0,0,1,1.85,9.16Z"/><path d="M263.3,95.67a42.13,42.13,0,0,0,12.3-2.24V108q-7.31,3.25-17.93,3.26-11.72,0-17.06-5.92t-5.35-17.77V53h-9.35V44.77l10.76-6.53,5.63-15.11h12.49V38.37h20V53h-20V87.54q0,4.17,2.33,6.15A9.24,9.24,0,0,0,263.3,95.67Z"/><path d="M329,110l-3.78-9.73h-.51q-4.94,6.21-10.15,8.61t-13.61,2.4q-10.31,0-16.23-5.89t-5.92-16.77q0-11.4,8-16.81t24-6l12.43-.38V62.25q0-10.87-11.14-10.88-8.58,0-20.17,5.18l-6.47-13.19a58.2,58.2,0,0,1,27.4-6.46q14.42,0,22.09,6.27t7.69,19.08V110Zm-5.76-33.16-7.56.25q-8.52.25-12.68,3.08t-4.16,8.58q0,8.25,9.48,8.25,6.78,0,10.85-3.9a13.71,13.71,0,0,0,4.07-10.37V76.79Z"/><path d="M385.22,111.23q-33.42,0-33.42-36.68,0-18.25,9.09-27.89T387,37a49.72,49.72,0,0,1,22.28,4.86L403.47,57q-4.61-1.86-8.58-3A27.63,27.63,0,0,0,387,52.78q-15.24,0-15.24,21.64,0,21,15.24,21a34.53,34.53,0,0,0,10.44-1.51,37.67,37.67,0,0,0,9.6-4.7v16.71a31.69,31.69,0,0,1-9.57,4.16,53.75,53.75,0,0,1-12.2,1.15Z"/><path d="M435.78,71l8.51-10.88,20-21.77h22L457.93,69.42,488.09,110H465.55L444.93,81l-8.38,6.72V110H417V10.33h19.53V54.76l-1,16.26Z"/><path d="M541.71,88.7q0,11-7.65,16.77t-22.89,5.76a72.29,72.29,0,0,1-13.31-1,50.49,50.49,0,0,1-10.31-3.11V90.94a69.17,69.17,0,0,0,12.26,4.29,49.76,49.76,0,0,0,12,1.72q10.63,0,10.63-6.14A5.13,5.13,0,0,0,521,87.06a20.11,20.11,0,0,0-4.86-3.26Q512.71,82,507,79.54a58.14,58.14,0,0,1-12.13-6.4,18.09,18.09,0,0,1-5.64-6.76A22.34,22.34,0,0,1,487.42,57q0-9.54,7.4-14.76t21-5.21A59.49,59.49,0,0,1,541,42.66l-5.89,14.09A107.12,107.12,0,0,0,525,53a31.56,31.56,0,0,0-9.54-1.47q-8.64,0-8.64,4.67,0,2.63,2.79,4.55t12.19,5.69q8.38,3.41,12.3,6.34a18.87,18.87,0,0,1,5.76,6.79A20.82,20.82,0,0,1,541.71,88.7Z"/><path d="M616.47,110H596.94V68.14q0-15.49-11.52-15.49-8.19,0-11.84,5.57t-3.66,18V110H550.4V10.33h19.52V30.62c0,1.58-.14,5.3-.44,11.14L569,47.53h1Q576.59,37,590.8,37q12.62,0,19.14,6.78t6.53,19.47Z"/><path d="M675.48,110l-3.78-9.73h-.51q-4.94,6.21-10.15,8.61t-13.61,2.4q-10.3,0-16.23-5.89t-5.92-16.77q0-11.4,8-16.81t24-6l12.42-.38V62.25q0-10.87-11.14-10.88-8.58,0-20.17,5.18l-6.47-13.19a58.2,58.2,0,0,1,27.4-6.46q14.42,0,22.09,6.27t7.69,19.08V110Zm-5.76-33.16-7.56.25q-8.52.25-12.68,3.08t-4.16,8.58q0,8.25,9.48,8.25,6.78,0,10.85-3.9a13.71,13.71,0,0,0,4.07-10.37Z"/><path d="M742.62,37a31.82,31.82,0,0,1,6.59.57l-1.47,18.31a22.67,22.67,0,0,0-5.76-.64q-9.36,0-14.57,4.81t-5.22,13.44V110H702.66V38.37h14.79l2.89,12h1a26.86,26.86,0,0,1,9-9.7A22.15,22.15,0,0,1,742.62,37Z"/><path d="M782.67,50.92q-6.21,0-9.73,3.94t-4,11.17h27.4c-.09-4.82-1.34-8.55-3.78-11.17a12.77,12.77,0,0,0-9.86-3.94Zm2.75,60.31q-17.28,0-27-9.54t-9.74-27q0-18,9-27.82T782.54,37q15.18,0,23.63,8.64t8.45,23.88V79H768.46q.31,8.32,4.93,13t12.93,4.68a53.49,53.49,0,0,0,12.23-1.35,60.58,60.58,0,0,0,12-4.29v15.11a45.79,45.79,0,0,1-11,3.81A68.54,68.54,0,0,1,785.42,111.23Z"/></g><path class="cls-1" d="M105.36,85.9a8.06,8.06,0,0,0-7.89,6.48,13.4,13.4,0,0,0,0,3.13,8,8,0,1,0,7.89-9.61m-69.94-29a8,8,0,1,0,8,8,8.05,8.05,0,0,0-8-8M105.34,44a8,8,0,1,0-7.88-9.6v0a15.4,15.4,0,0,0,0,3.07A8.05,8.05,0,0,0,105.34,44"/><path class="cls-1" d="M105.34,108.86a15.3,15.3,0,0,1-14.69-11H76.75l-.07,0L60.1,69.37H50a15.31,15.31,0,1,1,0-8.56h9.91l.12-.22L76.68,31.9l.14.08H90.59a15.31,15.31,0,1,1,0,8.56h-9L67.42,64.87v0L81.58,89.28h9.07a15.3,15.3,0,1,1,14.69,19.58Zm23-106h-117a8,8,0,0,0-8,8V119a8,8,0,0,0,8,8h117a8,8,0,0,0,8-8V10.85A8,8,0,0,0,128.37,2.9Z"/></svg>