<svg width="406" height="62" xmlns="http://www.w3.org/2000/svg" xmlns:xlink="http://www.w3.org/1999/xlink"><defs><path d="M37.493 15.184c2.022 0 3.66-1.7 3.66-3.796 0-2.097-1.638-3.796-3.66-3.796-2.022 0-3.66 1.7-3.66 3.796s1.638 3.796 3.66 3.796z" id="a"/><mask id="d" x="-3.534" y="-3.534" width="14.39" height="14.661"><path fill="#fff" d="M30.298 4.057H44.688V18.718H30.298z"/><use xlink:href="#a"/></mask><ellipse id="b" cx="37.493" cy="40.257" rx="3.661" ry="3.796"/><mask id="e" x="-3.534" y="-3.534" width="14.39" height="14.661"><path fill="#fff" d="M30.298 32.927H44.688V47.588H30.298z"/><use xlink:href="#b"/></mask><ellipse id="c" cx="3.661" cy="26.83" rx="3.661" ry="3.796"/><mask id="f" x="-3.534" y="-3.534" width="14.39" height="14.661"><path fill="#fff" d="M-3.534 19.499H10.856000000000002V34.16H-3.534z"/><use xlink:href="#c"/></mask></defs><g fill="none" fill-rule="evenodd"><rect fill="#0690FA" width="66.272" height="62" rx="4.418"/><g transform="translate(12.37 5.314)"><path stroke="#FFF" stroke-width="4.418" fill="#0690FA" transform="rotate(30 32.523 25.583)" d="M32.5230425 9.31459505L46.1097904 17.4487058 46.1097904 33.7169274 32.5230425 41.8510382 18.9362945 33.7169274 18.9362945 17.4487058z"/><path fill="#0690FA" d="M32.953 0H53.013000000000005V53.143H32.953z"/><use fill="#0690FA" xlink:href="#a"/><use stroke="#FFF" mask="url(#d)" stroke-width="7.069" xlink:href="#a"/><use fill="#0690FA" xlink:href="#b"/><use stroke="#FFF" mask="url(#e)" stroke-width="7.069" xlink:href="#b"/><g><use fill="#0690FA" xlink:href="#c"/><use stroke="#FFF" mask="url(#f)" stroke-width="7.069" xlink:href="#c"/></g><path fill="#FFF" d="M7.453 24.015H17.211V28.353H7.453z"/></g><g transform="translate(83 7)" fill="#000"><path d="M27.361 36.038c0 3.67-1.272 6.464-3.815 8.385-2.544 1.92-6.348 2.88-11.414 2.88-2.597 0-4.81-.176-6.641-.528a25.075 25.075 0 0 1-5.14-1.552v-8.065c1.809.853 3.847 1.568 6.113 2.144 2.267.576 4.263.864 5.987.864 3.533 0 5.3-1.024 5.3-3.072 0-.768-.234-1.392-.702-1.872-.469-.48-1.278-1.024-2.427-1.633-1.15-.608-2.682-1.317-4.598-2.128-2.745-1.152-4.762-2.219-6.05-3.2-1.288-.982-2.224-2.107-2.81-3.376-.585-1.27-.878-2.833-.878-4.689 0-3.179 1.23-5.638 3.688-7.377 2.459-1.739 5.944-2.608 10.456-2.608 4.3 0 8.483.939 12.548 2.816l-2.937 7.041a53.953 53.953 0 0 0-5.013-1.888 15.706 15.706 0 0 0-4.757-.736c-2.874 0-4.31.779-4.31 2.336 0 .875.463 1.632 1.388 2.272.926.64 2.954 1.59 6.083 2.849 2.788 1.13 4.831 2.186 6.13 3.168 1.298.981 2.256 2.112 2.873 3.392.618 1.28.926 2.806.926 4.577zm19.544 3.488c1.703 0 3.746-.373 6.13-1.12v7.265c-2.426 1.088-5.406 1.632-8.94 1.632-3.895 0-6.73-.987-8.508-2.96-1.777-1.974-2.666-4.934-2.666-8.881v-17.25h-4.662v-4.129l5.364-3.264 2.81-7.553h6.226v7.617h9.993v7.329H42.66v17.25c0 1.387.388 2.41 1.165 3.072.777.661 1.804.992 3.081.992zm33.806 7.137l-1.884-4.865h-.256c-1.638 2.07-3.325 3.505-5.06 4.305-1.735.8-3.996 1.2-6.785 1.2-3.427 0-6.124-.982-8.093-2.944-1.97-1.963-2.954-4.758-2.954-8.385 0-3.798 1.325-6.598 3.975-8.401 2.65-1.803 6.647-2.8 11.99-2.992l6.193-.192V22.82c0-3.627-1.852-5.44-5.555-5.44-2.852 0-6.205.864-10.058 2.592L59 13.38c4.108-2.155 8.663-3.232 13.665-3.232 4.789 0 8.46 1.045 11.015 3.136 2.554 2.091 3.831 5.27 3.831 9.537v23.843h-6.8zm-2.874-16.578l-3.767.128c-2.831.085-4.938.598-6.322 1.536-1.384.94-2.075 2.369-2.075 4.289 0 2.752 1.575 4.128 4.725 4.128 2.256 0 4.06-.65 5.412-1.952 1.351-1.302 2.027-3.03 2.027-5.185v-2.944zm29.246 17.218c-11.11 0-16.666-6.113-16.666-18.338 0-6.08 1.511-10.726 4.534-13.937 3.022-3.211 7.354-4.817 12.994-4.817 4.13 0 7.833.81 11.111 2.432l-2.873 7.553a49.067 49.067 0 0 0-4.278-1.52 13.755 13.755 0 0 0-3.96-.592c-5.065 0-7.598 3.606-7.598 10.817 0 6.998 2.533 10.497 7.598 10.497 1.874 0 3.608-.25 5.205-.752 1.596-.501 3.192-1.285 4.789-2.352v8.353c-1.575 1.002-3.166 1.696-4.773 2.08-1.607.384-3.635.576-6.083.576zm25.387-20.098l4.247-5.44 9.993-10.882h10.983l-14.176 15.522 15.038 20.258h-11.238l-10.281-14.498-4.183 3.36v11.138h-9.738V0h9.228l.157 27.2-.157.005h.127zm55.037 8.833c0 3.67-1.272 6.464-3.815 8.385-2.544 1.92-6.349 2.88-11.415 2.88-2.596 0-4.81-.176-6.64-.528a25.075 25.075 0 0 1-5.14-1.552v-8.065c1.808.853 3.846 1.568 6.113 2.144 2.267.576 4.263.864 5.987.864 3.533 0 5.3-1.024 5.3-3.072 0-.768-.234-1.392-.703-1.872-.468-.48-1.277-1.024-2.426-1.633-1.15-.608-2.682-1.317-4.598-2.128-2.746-1.152-4.762-2.219-6.05-3.2-1.288-.982-2.224-2.107-2.81-3.376-.585-1.27-.878-2.833-.878-4.689 0-3.179 1.23-5.638 3.688-7.377 2.458-1.739 5.944-2.608 10.456-2.608 4.3 0 8.482.939 12.548 2.816l-2.938 7.041a53.953 53.953 0 0 0-5.012-1.888 15.706 15.706 0 0 0-4.757-.736c-2.874 0-4.31.779-4.31 2.336 0 .875.462 1.632 1.388 2.272.926.64 2.953 1.59 6.082 2.849 2.789 1.13 4.832 2.186 6.13 3.168 1.299.981 2.257 2.112 2.874 3.392.617 1.28.926 2.806.926 4.577zm37.455 10.625h-9.738V25.765c0-5.164-1.915-7.745-5.747-7.745-2.724 0-4.693.928-5.906 2.784-1.213 1.856-1.82 4.865-1.82 9.025v16.834h-9.738V0h9.802l-.064 7.01c0 .79-.075 2.646-.224 5.57l-.223 2.88h.51c2.172-3.5 5.62-5.249 10.345-5.249 4.194 0 7.376 1.13 9.547 3.392 2.17 2.262 3.256 5.505 3.256 9.73v23.33zm28.718 0l-1.884-4.865h-.255c-1.639 2.07-3.326 3.505-5.06 4.305-1.735.8-3.997 1.2-6.785 1.2-3.427 0-6.125-.982-8.094-2.944-1.969-1.963-2.953-4.758-2.953-8.385 0-3.798 1.325-6.598 3.975-8.401 2.65-1.803 6.646-2.8 11.989-2.992l6.194-.192V22.82c0-3.627-1.852-5.44-5.556-5.44-2.852 0-6.204.864-10.057 2.592l-3.225-6.593c4.108-2.155 8.663-3.232 13.665-3.232 4.79 0 8.461 1.045 11.015 3.136 2.555 2.091 3.832 5.27 3.832 9.537v23.843h-6.8zm-2.873-16.578l-3.768.128c-2.83.085-4.938.598-6.322 1.536-1.383.94-2.075 2.369-2.075 4.289 0 2.752 1.575 4.128 4.725 4.128 2.257 0 4.06-.65 5.412-1.952 1.352-1.302 2.028-3.03 2.028-5.185v-2.944zm34.674-19.874c1.32 0 2.415.096 3.288.288l-.734 9.153c-.788-.213-1.746-.32-2.874-.32-3.107 0-5.528.8-7.263 2.4-1.735 1.6-2.602 3.84-2.602 6.72v18.21h-9.738V10.884h7.375l1.437 6.017h.479c1.106-2.006 2.602-3.622 4.486-4.849 1.883-1.227 3.932-1.84 6.146-1.84zm21.46 6.945c-2.065 0-3.683.656-4.854 1.968-1.17 1.312-1.84 3.174-2.011 5.585h13.665c-.043-2.411-.67-4.273-1.884-5.585-1.213-1.312-2.852-1.968-4.917-1.968zM294.84 42.534c-3.236-3.179-4.853-7.68-4.853-13.505 0-5.995 1.495-10.63 4.486-13.905 2.99-3.275 7.125-4.913 12.403-4.913 5.045 0 8.972 1.44 11.782 4.32 2.81 2.88 4.214 6.86 4.214 11.938v4.736h-23.02c.107 2.774.926 4.94 2.459 6.497 1.532 1.557 3.682 2.336 6.45 2.336 2.149 0 4.182-.224 6.097-.672 1.916-.448 3.917-1.163 6.003-2.144v7.553a22.83 22.83 0 0 1-5.46 1.904c-1.937.416-4.3.624-7.088.624-5.747 0-10.238-1.59-13.473-4.769z"/><path d="M198 0H202V18H198z"/></g></g></svg>