<svg id="Layer_1" data-name="Layer 1" xmlns="http://www.w3.org/2000/svg" width="850" height="374" viewBox="0 0 850 374"><defs><style>.cls-1,.cls-2{fill:#32325d;}.cls-1{fill-rule:evenodd;}</style></defs><title>stripe</title><path class="cls-1" d="M845,192.83C845,133.1,816.07,86,760.77,86c-55.54,0-89.14,47.13-89.14,106.4,0,70.23,39.67,105.7,96.6,105.7,27.77,0,48.77-6.3,64.64-15.17V236.23c-15.87,7.94-34.07,12.84-57.17,12.84-22.63,0-42.7-7.94-45.27-35.47h114.1C844.53,210.57,845,198.43,845,192.83ZM729.73,170.67c0-26.37,16.1-37.34,30.8-37.34,14.24,0,29.4,11,29.4,37.34Z"/><path class="cls-1" d="M581.57,86C558.7,86,544,96.7,535.83,104.17l-3-14.47H481.47V361.77L539.8,349.4l.23-66c8.4,6.06,20.77,14.7,41.3,14.7,41.77,0,79.8-33.6,79.8-107.57C660.9,122.83,622.4,86,581.57,86Zm-14,160.76c-13.77,0-21.94-4.9-27.54-11l-.23-86.57c6.07-6.77,14.47-11.43,27.77-11.43,21.23,0,35.93,23.8,35.93,54.36C603.5,223.4,589,246.73,567.57,246.73Z"/><polygon class="cls-1" points="401.2 72.2 459.77 59.6 459.77 12.23 401.2 24.6 401.2 72.2"/><rect class="cls-2" x="401.2" y="89.93" width="58.57" height="204.17"/><path class="cls-1" d="M338.43,107.2,334.7,89.93H284.3V294.1h58.33V155.73c13.77-18,37.1-14.7,44.34-12.13V89.93C379.5,87.13,352.2,82,338.43,107.2Z"/><path class="cls-1" d="M221.77,39.3,164.83,51.43l-.23,186.9c0,34.54,25.9,60,60.43,60,19.14,0,33.14-3.5,40.84-7.7V243.23c-7.47,3-44.34,13.77-44.34-20.76V139.63h44.34V89.93H221.53Z"/><path class="cls-1" d="M64,149.2c0-9.1,7.47-12.6,19.84-12.6,17.73,0,40.13,5.37,57.86,14.93V96.7A153.84,153.84,0,0,0,83.87,86C36.5,86,5,110.7,5,152c0,64.4,88.67,54.13,88.67,81.9,0,10.73-9.34,14.23-22.4,14.23-19.37,0-44.1-7.93-63.7-18.66V285a161.8,161.8,0,0,0,63.7,13.3c48.53,0,81.9-24,81.9-65.8C152.93,163,64,175.33,64,149.2Z"/></svg>