<svg xmlns="http://www.w3.org/2000/svg" width="864" height="404.49" viewBox="0 0 864 404.49"><defs><style>.cls-1{fill:#404040;}.cls-2{fill:#564740;}.cls-3{fill:#483a34;}.cls-4{fill:#aad9bd;}.cls-5{fill:#f6e3d6;}.cls-6{fill:#faf1ea;}.cls-7{fill:#63c199;}.cls-8{fill:#c5e4d0;}.cls-9{fill:#fbf8f5;}.cls-10{fill:#a8e1c2;}</style></defs><title>Artboard 1</title><g id="mascot"><path class="cls-1" d="M316.85,216.37V192.85H338.4c1.52,15.24,9.58,19.38,21.56,19.38,10.66,0,18.07-4.14,18.07-13.72,0-8.92-5-12.63-15.24-15L346,179.79C328,175.87,317.28,165,317.28,146c0-24.6,19.81-36.79,43.76-36.79,19.38,0,31.79,5.22,37.67,7.83v23.08h-20c-1.74-12.41-9.15-16.76-20.25-16.76-10,0-15.68,4.35-15.68,12.84,0,7.19,3.92,10.89,13.94,13.07l14.8,3.26c21.56,4.79,33.75,16.55,33.75,36.14,0,23.52-17.42,37-47.9,37C334.26,225.73,322.94,219.63,316.85,216.37Z"/><path class="cls-1" d="M539.79,209v8.93L505,225.73h-3.26a37.44,37.44,0,0,1-5.88-17.64c-8.49,10.45-20,17.64-36.58,17.64-18.72,0-31.13-9.36-31.13-30.92V146c0-15.89-2.18-18.07-12.85-18.51V118l40.06-7.63h5.23v76.86c0,11.76,3.92,17.64,13.93,17.64,7.41,0,13.07-2.62,19.6-8.06V146c0-15.89-2.4-18.07-13.07-18.51V118l40.07-7.63h5.22v80.13C526.29,206.35,528.69,208.09,539.79,209Z"/><path class="cls-1" d="M549.37,213.1c10.88-.22,13.28-2.83,13.28-15.24V146c0-15.89-2.18-18.07-13.07-18.51V118l35.06-8.71h3.26c2.18,3.92,6.32,13.71,6.75,27.86,5.45-18.72,19.38-27.86,31.14-27.86a25.25,25.25,0,0,1,8.27,1.3L628,143.43a38.58,38.58,0,0,0-12-1.74c-16.55,0-20.9,5.22-20.9,22.2v34c0,12.41,2.39,15,17.2,15.24v9.8H549.37Z"/><path class="cls-1" d="M737.69,131.45a34.29,34.29,0,0,1-14.37-3,22.64,22.64,0,0,1,10,19.37c0,15-8.93,32.88-49.64,32.88h-1.53c-4.57,2.18-7.62,4.57-7.62,8.05,0,2.84,1.74,4.79,6.1,5l20.9.87C729.42,195.9,744,203.3,744,226.82c0,27.65-23.52,39.19-55.74,39.19-30.92,0-51.6-7.84-51.6-23.08,0-7.4,5.23-12.85,11.32-15.24l21.56-.22a20.41,20.41,0,0,0-2.62,10.45c0,10.45,6.32,14.8,22.43,14.8,18.72,0,25.47-6.09,25.47-16.76,0-10.89-6.53-13.72-29.17-14.59-7.84-.22-20-.87-24.61-1.52-11.53-1.31-16.11-9.36-16.11-18.94,0-10.89,9.15-19.16,23.95-23.08-17.85-3.7-28.52-15.24-28.52-32,0-23.29,18.51-36.57,46.81-36.57,7.19,0,12.19.87,22.64,3.7,5.23,1.3,7.19,2,12.41,2,7.63,0,16.12-5,22-10.45l11.32,20.68C749.89,129.06,744.23,131.45,737.69,131.45ZM687,122.75c-9.36,0-14.37,6.09-14.37,22.64,0,15.89,5.23,22.42,14.37,22.42,10,0,14.81-6.31,14.81-21.77C701.77,128.62,697.2,122.75,687,122.75Z"/><path class="cls-1" d="M849.6,199.17l5.44,8.92c-11.76,11.54-26.13,17.42-45.5,17.42-33.75,0-53.56-21.34-53.56-58.35,0-36.79,21.33-57.91,52.9-57.91,34,0,48.12,20.24,48.12,53.56v9.36H790.81c.66,24.6,9.15,34.62,29.83,34.62A62,62,0,0,0,849.6,199.17ZM791,157.36h33.75c0-26.34-4.36-34.61-15.9-34.61C798,122.75,792.55,130.8,791,157.36Z"/><path class="cls-2" d="M262.26,102c-2.68-2.24-5.71-4.93-14-7.06v-.11c11.88-30.48,3.7-42.59-7.73-52.11-8.3-7-22.75-8.29-34.07-5.72-12.21-22.63-40-30.59-66.34-30.81-26.33.22-54.12,8.18-66.45,30.7-11.31-2.58-25.77-1.12-34.06,5.72C28.18,52.09,20,64.19,31.88,94.67v.12C23.58,96.91,20.67,99.72,18,102A27.28,27.28,0,0,0,7,124.37c.56,16.92,14,145.22,14,145.22a.72.72,0,0,0,.67.68.6.6,0,0,0,.45-.23l12.1-11.32V277a.64.64,0,0,0,.67.67.45.45,0,0,0,.45-.22l20.51-17.71v10.65a.64.64,0,0,0,.67.67.59.59,0,0,0,.45-.22l11.54-11.1,8-7.62c.44,40.9-1.13,90.66-8.19,136.94-1.12,7.5,3,9.3,6.73,9.3a11.22,11.22,0,0,0,4.7-1c11.32-5.94,20.74-29.59,26.9-55.92,5.15-21.85,10.87-50.31,16.25-84.94a44.87,44.87,0,0,0,17,3.48,45.5,45.5,0,0,0,17-3.48c5.27,34.52,11.09,63,16.25,84.94,6.16,26.33,15.58,50,26.89,55.92a11.76,11.76,0,0,0,4.71,1c3.7,0,8-1.8,6.72-9.3-7.06-46.17-8.63-95.93-8.18-136.94l8,7.62,11.54,11.1a.86.86,0,0,0,.45.22.72.72,0,0,0,.67-.67V259.73l20.51,17.71a.83.83,0,0,0,.45.22.72.72,0,0,0,.67-.67V258.72L257.67,270a.88.88,0,0,0,.45.23.65.65,0,0,0,.67-.68s13.45-128.19,14-145.22A25.87,25.87,0,0,0,262.26,102Z"/><path class="cls-3" d="M144.27,194.29l-4.15-3.92L136,194.29v.11l-4.82,4.82c2.8,2.92,5.83,4.48,9,4.48s6.17-1.56,9-4.48l-4.82-4.93Z"/><polygon class="cls-4" points="153.35 207.74 126.9 207.74 125.78 216.48 154.47 216.48 153.35 207.74"/><path class="cls-5" d="M122.08,208.3s-3.47,25.43-4.7,34.29C107.29,311.28,93.06,383.44,76.7,390.5a1.65,1.65,0,0,1-2.24-1.79c2-10.87,6.61-39.56,8.07-65.22,1.12-19.05,1.56-53.56,1.68-89.2l9.86-9.41a1.13,1.13,0,0,1,2,.79v8.85l26-26.22Z"/><path class="cls-6" d="M96,234.63v-8.85a1.13,1.13,0,0,0-2-.79l-6.17,5.83c-.11,3-1.45,57.15-1.45,68.36,0,31.15-8.07,80-7.29,80,7.06,0,16.92-105.89,20.17-148Z"/><path class="cls-5" d="M158.16,208.3s3.48,25.43,4.71,34.29C173,311.28,187.19,383.44,203.55,390.5a1.65,1.65,0,0,0,2.24-1.79c-2-10.87-6.61-39.56-8.07-65.22-1.12-19.05-1.57-53.56-1.68-89.2l-9.86-9.41a1.13,1.13,0,0,0-2,.79v8.85l-26-26.22Z"/><path class="cls-7" d="M242.77,99.38c-5.72-.9-23.2-.67-23.42-.67l21.85-5c16.69-35.52-8.85-52.44-24.32-52.44-5.27,0-19,1.91-20.62,1.91,0,0,2.58-.34,3.25-1,0-6.61-18.49-28.46-59.39-28.46S80.73,35.51,80.73,42.12c.68.67,3.25,1,3.25,1-1.57,0-15.35-1.91-20.62-1.91C48,41.22,22.35,58,39.05,93.66l21.85,5c-.11,0-17.71-.12-23.42.67-7.84,1.23-23.2,9.64-23.2,24.54,0,7,2.92,27.45,2.92,27.45H262.94s2.91-20.5,2.91-27.45C266,109,250.61,100.61,242.77,99.38Z"/><path class="cls-8" d="M233,54.78c-3.7-2.69-8.63-3.81-15.24-3.81,0,0-2.92.11-4.6.34-15.8,2-21.4,10.53-36.64,10.53-7.73,0-3.58-18.38-3.58-18.38s19.49.45,19.49-.89c0-5.94-23-23.09-50.76-23.09h-3.36c-27.79,0-50.76,17.15-50.76,23.09,0,1.34,19.5.89,19.5.89s4.25,18.38-3.59,18.38c-15.24,0-20.84-8.52-36.64-10.53-1.68-.23-4.6-.34-4.6-.34C55.63,51,50.7,52.09,47,54.78c-5.15,3.81-15.68,18,2.69,41.46l11,2.47H219.12l11-2.47c18.61-23.53,8.07-37.76,2.92-41.46Z"/><path class="cls-3" d="M64.6,66.21a5,5,0,0,0-3,1A1.43,1.43,0,0,1,62,68.34a1.53,1.53,0,0,1-1.57,1.57,1.77,1.77,0,0,1-1-.34,7.21,7.21,0,0,0-.78,3.48c0,3.81,2.69,6.83,6,6.83s6.05-3,6.05-6.83S68,66.21,64.6,66.21Z"/><path class="cls-9" d="M63.36,68.34a2.64,2.64,0,0,0-.89-2,2.8,2.8,0,0,0-2-.89,3,3,0,0,0-2.91,2.91,3.15,3.15,0,0,0,1.12,2.35,3.07,3.07,0,0,0,1.79.56,3,3,0,0,0,2.91-2.91Z"/><polygon class="cls-2" points="135.31 111.59 128.36 105.09 135.42 111.71 135.31 111.59"/><path class="cls-10" d="M87.9,230.71l-3.69,3.58Z"/><polygon class="cls-10" points="93.96 224.88 87.91 230.71 87.91 230.71 93.96 224.88"/><polygon class="cls-2" points="135.75 112.04 138.67 114.73 135.42 111.71 135.75 112.04"/><path class="cls-3" d="M217.78,66.21a5,5,0,0,0-3,1,1.43,1.43,0,0,1,.45,1.12,1.53,1.53,0,0,1-1.57,1.57,1.8,1.8,0,0,1-1-.34,7.21,7.21,0,0,0-.78,3.48c0,3.81,2.69,6.83,6,6.83s6.05-3,6.05-6.83S221.14,66.21,217.78,66.21Z"/><path class="cls-9" d="M216.55,68.34a2.64,2.64,0,0,0-.9-2,2.8,2.8,0,0,0-2-.89,3,3,0,0,0-2.91,2.91,3.15,3.15,0,0,0,1.12,2.35,3.07,3.07,0,0,0,1.79.56A3,3,0,0,0,216.55,68.34Z"/><polygon class="cls-2" points="144.94 111.59 151.89 105.09 144.83 111.71 144.94 111.59"/><path class="cls-6" d="M184.27,234.63v-8.85a1.13,1.13,0,0,1,2-.79l6.16,5.83c.12,3,1.46,57.15,1.46,68.36,0,31.15,8.07,80,7.28,80-7.06,0-16.92-105.89-20.17-148Z"/><path class="cls-10" d="M192.34,230.71l3.7,3.58Z"/><polygon class="cls-10" points="186.29 224.88 192.34 230.71 192.34 230.71 186.29 224.88"/><polygon class="cls-2" points="144.49 112.04 141.58 114.73 144.83 111.71 144.49 112.04"/><path class="cls-4" d="M222.93,120.11c-24.09-10.42-60.06-14.12-71-15l-7.06,6.62-.34.33-2.91,2.69a2.13,2.13,0,0,1-1.46.56,2.3,2.3,0,0,1-1.45-.56L135.75,112l-.33-.33-7.06-6.62c-11,.9-47,4.6-71.05,15C31.43,131.32,17.2,152.27,17.2,151.37l1.23,13.34v-.11c38.88-44.49,117.43,29.58,117.43,29.58l4.15-3.92,4.15,3.92s78.55-74.07,117.43-29.58v.11l1.23-13.34c.23.9-14-20.05-39.89-31.26Z"/><path class="cls-8" d="M136,194.29l-5.27-54.23c-5.6,7.28-15.69,13.78-32.27,13.78-25.77,0-41-33.73-79.9,10.76l8,86.39.56,4.15,11-11.21,1.34-75.41,1.68-1.12L41.63,262l13-11.2,5.94-5.16c.45-22.07,1.12-60.06,1.12-60.06l1.8-1.23.33,69.7,10.65-10.2.67-.67L81.52,237c.33-17.92.67-35,.67-35L84,200.45l.23,34.07,3.69-3.59,6.17-5.82a1.35,1.35,0,0,1,1-.45c.56,0,1,.45,1,1.23v8.85L136,194.29Z"/><path class="cls-2" d="M170,91.31a3.27,3.27,0,0,0-1-.22H111.21a2.78,2.78,0,0,0-1,.22,1.59,1.59,0,0,0-.78,2.13l.34.45,25.55,24,.11.11,3.25,3a2.13,2.13,0,0,0,1.45.56,2.41,2.41,0,0,0,1.46-.56l3.25-3,.11-.11,25.55-24a1.8,1.8,0,0,0,.34-.45,1.48,1.48,0,0,0-.79-2.13Z"/><path class="cls-8" d="M144.27,194.29l5.27-54.23c5.6,7.28,15.68,13.78,32.27,13.78,25.77,0,41-33.73,79.89,10.76L253.75,251l-.56,4.15-11-11.21-1.35-75.41-1.68-1.12L238.62,262l-13-11.2-5.94-5.16c-.45-22.07-1.12-60.06-1.12-60.06l-1.79-1.23-.34,69.7-10.64-10.2-.67-.67L198.73,237c-.34-17.92-.67-35-.67-35l-1.8-1.57L196,234.52l-3.7-3.59-6.16-5.82a1.36,1.36,0,0,0-1-.45c-.56,0-1,.45-1,1.23v8.85l-39.89-40.45Z"/><path class="cls-2" d="M248.26,77c0-2.24,0-4.37-.11-6.5V94.79C248.26,76.52,248.26,77.42,248.26,77Z"/><path class="cls-4" d="M102.92,68.79c12.78,0,5.15-21,5.15-21s1,8.63-8.85,8.63c-19,0-19-6.61-34.29-6.61-12.55,0-16.58,4-16.58,4,28.91-6.94,36.08,14.91,54.57,14.91Z"/><path class="cls-8" d="M154.35,215.69l-6.94-6.94a54,54,0,0,1-7.29.45c-2.46,0-4.93-.23-7.28-.45l-7,6.94-4.26,31.16c5.16,4.25,11.32,6.05,18.27,6.05h.45c7.06,0,13.11-1.8,18.26-6.05Z"/><path class="cls-7" d="M152.56,202.7l-3.47-3.59c-2.8,2.91-5.83,4.48-9,4.48s-6.16-1.57-9-4.48l-3.47,3.59-.68,5a18.13,18.13,0,0,0,2.24.45,58.78,58.78,0,0,0,10.87,1,57.83,57.83,0,0,0,10.87-1c.79-.12,1.57-.34,2.24-.45l-.67-5Z"/><path class="cls-4" d="M177.33,68.79c-12.78,0-5.16-21-5.16-21s-1,8.63,8.85,8.63c19,0,19-6.61,34.29-6.61,12.55,0,16.59,4,16.59,4C203,46.94,195.81,68.79,177.33,68.79Z"/></g></svg>