<svg id="Layer_1" data-name="Layer 1" xmlns="http://www.w3.org/2000/svg" width="850" height="414.2" viewBox="0 0 850 414.2"><defs><style>.cls-1{fill:#87189d;}</style></defs><title>zulily</title><path class="cls-1" d="M152.07,312c-23.7,0-60.87,7-77.62,12.27-.36.11-1.7.51-1.75-1-.3-8.86,114.62-146,114.62-179,0-18.58-12.17-25.83-22.56-25.52-18,.54-83.34,36-117.69,36-9.73,0-20-4.48-28-4.48-4.53,0-7,1.75-7.19,7.69-.22,9.94,15.12,18.39,38.76,18.52,35.06.2,79.77-24.3,84.35-24.3,1.49,0,2,.69,2,1.75,0,7.66-115.59,148.14-115.59,167.89,0,23.77,4.5,45.62,17.67,45.62,24.59,0,64.53-35.29,119.85-35.29,27.91,0,29.63,8.89,38.12,8.89,4.89,0,8.76-4.4,8.76-10.14C205.74,320.84,181.35,312,152.07,312Z"/><path class="cls-1" d="M518.36,127.56c6.47-2,18.41-19.38,18.75-31.94S511.93,84.45,505.78,85a13.27,13.27,0,0,0-11.36,9c-1.18,3.93-4.81,24.21-.87,29S511.9,129.51,518.36,127.56Z"/><path class="cls-1" d="M838.16,221.8c0-2.75-.5-6.47-5-6.47-7.11,0-6.46,6.12-21.09,21.53-8.8,9.28-17.92,17.94-25.22,24.6.31-1.72.46-2.67.46-2.67.57-6.43,14.3-101,14.23-110.36s-4.94-15.21-15.41-15.21c-15.11,0-18.7,5.25-20.25,8.59-11,23.73-54.13,122.78-73.48,122.78-12.25,0,14.15-70,14.15-107.4,0-7.54-1.58-12.12-20.81-12.12-15.17,0-28.09,52.14-31.6,77.44a93.89,93.89,0,0,0-2.47,16.73c-11.41,24.58-26.19,47-42.16,47-12.49,0-12.64-48.34-12.64-78,0-2.51.18-5.92.52-10,21.93-25,65.59-82,65.59-139,0-36.87-11.06-48.92-25.68-48.92-48.88,0-78.39,158.34-78.39,206.67,0,1.09,0,2.17,0,3.26-11.25,28.3-29.72,68-45.17,68.91-9,.53-6.67-14.88-7.12-27.13-1-28,11.61-90,11.61-97.22,0-9.58-32.43-12.31-35.05-3.4-.76,2.61-1.76,7.16-2.86,13.06-8.42,31.1-37.61,130.47-66.72,130.47-13.48,0-11-55.54-9.59-92.08,19.76-23.46,63.18-81.42,63.18-137.66,0-36.87-10.67-48.21-24.58-48.21-42.44,0-82.5,125.47-81,197.64.1,4.77.21,9.52.35,14.21-10.35,23.63-24.79,51-36,51-8.7,0-9.86-8.48-9.86-18.95,0-23.38,13.7-91.27,13.7-109.7,0-2.59-2.21-5.54-8-5.54-4.33,0-19.32,1.56-26.47,4.75a8.61,8.61,0,0,0-4.5,3.89C288.29,169.43,253.45,286,235.74,286c-25.79,0,2.13-91.8,2.13-105.83,0-8.43-5.92-10.8-14.61-10.8s-16.77,2.07-19.65,5.48c-14.06,16.57-19.23,68-19.23,81.65,0,43.46,18.27,51.1,37.94,51.1,36.18,0,47-37.14,55.71-60.85-.11,3-1.59,61.41,43.18,61.41,18.85,0,33.36-18.54,43-36.62,3.8,29.89,13.66,51.94,41.49,51.94,32.06,0,52.72-34.28,65.23-65-.08,2.85-.13,5.64-.13,8.34,0,17.19,7.85,42.84,38.19,42.84,25.36,0,42.32-31.52,51.6-55.74,3.47,31.08,13.29,53.73,38.34,53.73,26.31,0,45.07-18.4,57.89-39.2,4.67,8.22,13.08,14.24,27.71,14.24,33.92,0,57.63-51.22,70.07-77.5,0,19.43-4.08,48.36-10.83,77.51-24.73,16.89-81.14,59.63-81.14,98.16,0,12.73,8.06,23,27,23.12C743,404.1,770,330.18,781,287.78,798.38,272,838,234.78,838.16,221.8ZM443.6,42.51c6.14,0,6.83,13.84,6.83,26.09,0,50.65-27.83,93.18-45.47,115.05C407.83,144.75,427.33,42.51,443.6,42.51ZM638,26.77c8.17.26,8.49,16.91,8.49,29.15,0,42.35-25.69,83.08-45,107.71C609.5,108.37,626,26.77,638,26.77Zm51.37,361.61c-8.49,0-10.47-4.23-10.47-12.05,0-19.47,36.13-51.3,58.53-69.16C725.08,350.51,707.43,388.38,689.41,388.38Z"/></svg>